<svg xmlns="http://www.w3.org/2000/svg" xmlns:xlink="http://www.w3.org/1999/xlink" width="200" zoomAndPan="magnify" viewBox="0 0 150 149.999998" height="200" preserveAspectRatio="xMidYMid meet" version="1.0"><defs><g/><clipPath id="694c466b43"><path d="M 45 74 L 69 74 L 69 108.75 L 45 108.75 Z M 45 74 " clip-rule="nonzero"/></clipPath><clipPath id="a85033ab2f"><path d="M 44.996094 72 L 47 72 L 47 89 L 44.996094 89 Z M 44.996094 72 " clip-rule="nonzero"/></clipPath><clipPath id="1f8901437a"><path d="M 44.996094 34.78125 L 50 34.78125 L 50 69 L 44.996094 69 Z M 44.996094 34.78125 " clip-rule="nonzero"/></clipPath><clipPath id="547828a951"><path d="M 44.996094 38 L 47 38 L 47 71 L 44.996094 71 Z M 44.996094 38 " clip-rule="nonzero"/></clipPath><clipPath id="dea5c92593"><path d="M 50 50 L 84.265625 50 L 84.265625 75 L 50 75 Z M 50 50 " clip-rule="nonzero"/></clipPath><clipPath id="5cc86a55b3"><path d="M 44.996094 67 L 52 67 L 52 77 L 44.996094 77 Z M 44.996094 67 " clip-rule="nonzero"/></clipPath><clipPath id="8ac94f7e3b"><path d="M 46.1875 74 L 69 74 L 69 107.644531 L 46.1875 107.644531 Z M 46.1875 74 " clip-rule="nonzero"/></clipPath><clipPath id="54b4fb777b"><path d="M 46.1875 72 L 48 72 L 48 89 L 46.1875 89 Z M 46.1875 72 " clip-rule="nonzero"/></clipPath><clipPath id="f5645695ae"><path d="M 46.1875 36.101562 L 51 36.101562 L 51 70 L 46.1875 70 Z M 46.1875 36.101562 " clip-rule="nonzero"/></clipPath><clipPath id="5a985d5709"><path d="M 46.1875 39 L 48 39 L 48 71 L 46.1875 71 Z M 46.1875 39 " clip-rule="nonzero"/></clipPath><clipPath id="2a2bec793f"><path d="M 51 51 L 83.960938 51 L 83.960938 75 L 51 75 Z M 51 51 " clip-rule="nonzero"/></clipPath><clipPath id="1ff69134f9"><path d="M 46.1875 67 L 53 67 L 53 77 L 46.1875 77 Z M 46.1875 67 " clip-rule="nonzero"/></clipPath><clipPath id="5a0d978044"><path d="M 46.1875 76 L 69 76 L 69 108.75 L 46.1875 108.75 Z M 46.1875 76 " clip-rule="nonzero"/></clipPath><clipPath id="862061f7e2"><path d="M 46.1875 74 L 48 74 L 48 90 L 46.1875 90 Z M 46.1875 74 " clip-rule="nonzero"/></clipPath><clipPath id="169c811e0f"><path d="M 46.1875 37.207031 L 51 37.207031 L 51 71 L 46.1875 71 Z M 46.1875 37.207031 " clip-rule="nonzero"/></clipPath><clipPath id="03e7277022"><path d="M 46.1875 40 L 48 40 L 48 72 L 46.1875 72 Z M 46.1875 40 " clip-rule="nonzero"/></clipPath><clipPath id="85ccda08bc"><path d="M 51 52 L 83.960938 52 L 83.960938 76 L 51 76 Z M 51 52 " clip-rule="nonzero"/></clipPath><clipPath id="af592c77a9"><path d="M 46.1875 68 L 53 68 L 53 78 L 46.1875 78 Z M 46.1875 68 " clip-rule="nonzero"/></clipPath></defs><path fill="#000000" d="M 79.132812 86.179688 L 79.132812 91.898438 C 79.132812 92.5625 78.992188 93.199219 78.714844 93.796875 C 77.976562 95.359375 76.390625 96.367188 74.664062 96.367188 L 68.679688 96.367188 C 67.285156 96.367188 66.152344 95.238281 66.152344 93.84375 L 66.152344 84.234375 C 66.152344 82.882812 67.207031 81.777344 68.554688 81.710938 C 68.605469 81.707031 68.648438 81.707031 68.679688 81.707031 L 74.664062 81.707031 C 77.128906 81.707031 79.132812 83.714844 79.132812 86.179688 Z M 67.3125 93.84375 C 67.3125 94.597656 67.925781 95.207031 68.679688 95.207031 L 74.664062 95.207031 C 75.941406 95.207031 77.117188 94.460938 77.660156 93.300781 C 77.867188 92.863281 77.972656 92.390625 77.972656 91.898438 L 77.972656 86.179688 C 77.972656 84.351562 76.488281 82.871094 74.664062 82.871094 L 68.679688 82.871094 C 68.671875 82.871094 68.664062 82.867188 68.652344 82.871094 C 68.644531 82.871094 68.632812 82.871094 68.621094 82.871094 C 67.886719 82.902344 67.3125 83.5 67.3125 84.234375 Z M 67.3125 93.84375 " fill-opacity="1" fill-rule="nonzero"/><path fill="#000000" d="M 81.652344 87.511719 L 81.652344 90.640625 C 81.652344 90.960938 81.390625 91.21875 81.070312 91.21875 L 78.554688 91.21875 C 78.234375 91.21875 77.972656 90.960938 77.972656 90.640625 L 77.972656 87.511719 C 77.972656 87.191406 78.234375 86.933594 78.554688 86.933594 L 81.070312 86.933594 C 81.390625 86.933594 81.652344 87.191406 81.652344 87.511719 Z M 80.488281 90.058594 L 80.488281 88.09375 L 79.132812 88.09375 L 79.132812 90.058594 Z M 80.488281 90.058594 " fill-opacity="1" fill-rule="nonzero"/><path fill="#000000" d="M 81.96875 89.039062 C 81.96875 93.613281 80.050781 97.8125 79.96875 97.988281 C 79.835938 98.28125 79.488281 98.40625 79.199219 98.273438 C 78.90625 98.140625 78.78125 97.792969 78.914062 97.503906 C 78.941406 97.449219 80.804688 93.34375 80.804688 89.039062 C 80.804688 84.734375 78.9375 80.707031 78.917969 80.667969 C 78.78125 80.378906 78.90625 80.03125 79.195312 79.894531 C 79.484375 79.757812 79.832031 79.882812 79.96875 80.171875 C 80.050781 80.34375 81.96875 84.460938 81.96875 89.039062 Z M 81.96875 89.039062 " fill-opacity="1" fill-rule="nonzero"/><path fill="#000000" d="M 74.125 79.605469 L 74.125 82.289062 C 74.125 82.609375 73.867188 82.871094 73.546875 82.871094 C 73.222656 82.871094 72.964844 82.609375 72.964844 82.289062 L 72.964844 80.183594 L 68.613281 80.183594 C 68.292969 80.183594 68.03125 79.925781 68.03125 79.605469 C 68.03125 79.28125 68.292969 79.023438 68.613281 79.023438 L 73.546875 79.023438 C 73.867188 79.023438 74.125 79.28125 74.125 79.605469 Z M 74.125 79.605469 " fill-opacity="1" fill-rule="nonzero"/><path fill="#000000" d="M 74.125 95.789062 L 74.125 98.472656 C 74.125 98.792969 73.867188 99.054688 73.546875 99.054688 L 68.613281 99.054688 C 68.292969 99.054688 68.03125 98.792969 68.03125 98.472656 C 68.03125 98.152344 68.292969 97.890625 68.613281 97.890625 L 72.964844 97.890625 L 72.964844 95.789062 C 72.964844 95.46875 73.222656 95.207031 73.546875 95.207031 C 73.867188 95.207031 74.125 95.46875 74.125 95.789062 Z M 74.125 95.789062 " fill-opacity="1" fill-rule="nonzero"/><g clip-path="url(#694c466b43)"><path fill="#000000" d="M 68.328125 104.8125 L 68.328125 108.167969 C 68.328125 108.488281 68.070312 108.75 67.746094 108.75 L 45.605469 108.75 C 45.285156 108.75 45.023438 108.488281 45.023438 108.167969 L 45.023438 75.5 C 45.023438 75.300781 45.125 75.117188 45.296875 75.007812 C 45.464844 74.902344 45.675781 74.890625 45.855469 74.976562 C 46.3125 75.191406 46.800781 75.300781 47.308594 75.300781 C 47.804688 75.300781 48.277344 75.195312 48.714844 74.992188 C 48.894531 74.910156 49.105469 74.921875 49.273438 75.027344 C 49.441406 75.136719 49.542969 75.320312 49.542969 75.519531 L 49.542969 104.230469 L 67.746094 104.230469 C 68.070312 104.230469 68.328125 104.492188 68.328125 104.8125 Z M 67.167969 107.585938 L 67.167969 105.394531 L 48.960938 105.394531 C 48.640625 105.394531 48.378906 105.132812 48.378906 104.8125 L 48.378906 76.335938 C 48.035156 76.421875 47.675781 76.460938 47.308594 76.460938 C 46.925781 76.460938 46.550781 76.417969 46.1875 76.324219 L 46.1875 107.585938 Z M 67.167969 107.585938 " fill-opacity="1" fill-rule="nonzero"/></g><path fill="#000000" d="M 64.160156 73.441406 L 64.160156 104.8125 C 64.160156 105.132812 63.902344 105.394531 63.582031 105.394531 L 48.960938 105.394531 C 48.640625 105.394531 48.378906 105.132812 48.378906 104.8125 L 48.378906 75.519531 C 48.378906 75.292969 48.511719 75.085938 48.71875 74.992188 C 49.324219 74.714844 49.832031 74.269531 50.183594 73.703125 C 50.277344 73.554688 50.359375 73.394531 50.433594 73.21875 C 50.523438 73 50.734375 72.859375 50.96875 72.859375 L 63.582031 72.859375 C 63.902344 72.859375 64.160156 73.121094 64.160156 73.441406 Z M 63 104.230469 L 63 74.023438 L 51.339844 74.023438 C 51.285156 74.125 51.226562 74.226562 51.167969 74.320312 C 50.761719 74.96875 50.207031 75.5 49.542969 75.875 L 49.542969 104.230469 Z M 63 104.230469 " fill-opacity="1" fill-rule="nonzero"/><g clip-path="url(#a85033ab2f)"><path fill="#000000" d="M 46.1875 75.5 L 46.1875 88.066406 C 46.1875 88.386719 45.925781 88.648438 45.605469 88.648438 L 14.234375 88.648438 C 13.914062 88.648438 13.652344 88.386719 13.652344 88.066406 L 13.652344 73.449219 C 13.652344 73.125 13.914062 72.867188 14.234375 72.867188 L 43.648438 72.867188 C 43.882812 72.867188 44.09375 73.007812 44.183594 73.222656 C 44.507812 73.992188 45.101562 74.617188 45.855469 74.976562 C 46.058594 75.070312 46.1875 75.277344 46.1875 75.5 Z M 45.023438 87.484375 L 45.023438 75.851562 C 44.28125 75.417969 43.675781 74.789062 43.277344 74.027344 L 14.816406 74.027344 L 14.816406 87.484375 Z M 45.023438 87.484375 " fill-opacity="1" fill-rule="nonzero"/></g><g clip-path="url(#1f8901437a)"><path fill="#000000" d="M 49.542969 35.363281 L 49.542969 68.308594 C 49.542969 68.507812 49.441406 68.691406 49.273438 68.800781 C 49.109375 68.90625 48.898438 68.921875 48.71875 68.835938 C 48.277344 68.632812 47.800781 68.53125 47.308594 68.53125 C 46.796875 68.53125 46.308594 68.640625 45.859375 68.859375 C 45.679688 68.945312 45.46875 68.9375 45.296875 68.828125 C 45.128906 68.722656 45.023438 68.539062 45.023438 68.335938 L 45.023438 39.300781 L 26.820312 39.300781 C 26.5 39.300781 26.238281 39.042969 26.238281 38.71875 L 26.238281 35.363281 C 26.238281 35.042969 26.5 34.785156 26.820312 34.785156 L 48.960938 34.785156 C 49.28125 34.785156 49.542969 35.042969 49.542969 35.363281 Z M 48.378906 67.496094 L 48.378906 35.945312 L 27.398438 35.945312 L 27.398438 38.140625 L 45.605469 38.140625 C 45.925781 38.140625 46.1875 38.398438 46.1875 38.722656 L 46.1875 67.507812 C 46.550781 67.414062 46.921875 67.367188 47.308594 67.367188 C 47.675781 67.367188 48.03125 67.410156 48.378906 67.496094 Z M 48.378906 67.496094 " fill-opacity="1" fill-rule="nonzero"/></g><g clip-path="url(#547828a951)"><path fill="#000000" d="M 46.1875 38.722656 L 46.1875 68.335938 C 46.1875 68.566406 46.054688 68.773438 45.84375 68.867188 C 45.734375 68.917969 45.625 68.976562 45.527344 69.039062 C 45.003906 69.363281 44.582031 69.820312 44.304688 70.355469 C 44.203125 70.550781 44.003906 70.671875 43.789062 70.671875 L 30.988281 70.671875 C 30.664062 70.671875 30.40625 70.414062 30.40625 70.089844 L 30.40625 38.722656 C 30.40625 38.398438 30.664062 38.140625 30.988281 38.140625 L 45.605469 38.140625 C 45.925781 38.140625 46.1875 38.398438 46.1875 38.722656 Z M 45.023438 67.984375 L 45.023438 39.300781 L 31.566406 39.300781 L 31.566406 69.511719 L 43.449219 69.511719 C 43.816406 68.921875 44.3125 68.425781 44.910156 68.054688 C 44.945312 68.03125 44.984375 68.007812 45.023438 67.984375 Z M 45.023438 67.984375 " fill-opacity="1" fill-rule="nonzero"/></g><path fill="#000000" d="M 71.890625 44.382812 L 71.890625 50.367188 C 71.890625 51.761719 70.757812 52.894531 69.363281 52.894531 L 59.753906 52.894531 C 58.402344 52.894531 57.296875 51.839844 57.230469 50.492188 C 57.226562 50.441406 57.226562 50.398438 57.226562 50.367188 L 57.226562 44.382812 C 57.226562 41.917969 59.234375 39.914062 61.699219 39.914062 L 67.417969 39.914062 C 68.082031 39.914062 68.722656 40.054688 69.316406 40.332031 C 70.878906 41.070312 71.890625 42.65625 71.890625 44.382812 Z M 58.390625 50.394531 C 58.390625 50.40625 58.390625 50.414062 58.390625 50.425781 C 58.421875 51.160156 59.019531 51.734375 59.753906 51.734375 L 69.363281 51.734375 C 70.117188 51.734375 70.726562 51.121094 70.726562 50.367188 L 70.726562 44.382812 C 70.726562 43.105469 69.980469 41.929688 68.820312 41.386719 C 68.382812 41.179688 67.910156 41.074219 67.417969 41.074219 L 61.699219 41.074219 C 59.875 41.074219 58.390625 42.558594 58.390625 44.382812 L 58.390625 50.367188 C 58.390625 50.375 58.390625 50.386719 58.390625 50.394531 Z M 57.8125 50.449219 Z M 57.8125 50.449219 " fill-opacity="1" fill-rule="nonzero"/><path fill="#000000" d="M 66.742188 37.976562 L 66.742188 40.492188 C 66.742188 40.8125 66.480469 41.074219 66.160156 41.074219 L 63.03125 41.074219 C 62.710938 41.074219 62.453125 40.8125 62.453125 40.492188 L 62.453125 37.976562 C 62.453125 37.65625 62.710938 37.394531 63.03125 37.394531 L 66.160156 37.394531 C 66.480469 37.394531 66.742188 37.65625 66.742188 37.976562 Z M 65.578125 39.914062 L 65.578125 38.558594 L 63.613281 38.558594 L 63.613281 39.914062 Z M 65.578125 39.914062 " fill-opacity="1" fill-rule="nonzero"/><path fill="#000000" d="M 73.847656 39.605469 C 73.847656 39.6875 73.832031 39.769531 73.792969 39.847656 C 73.660156 40.140625 73.3125 40.265625 73.023438 40.132812 C 72.96875 40.105469 68.863281 38.242188 64.558594 38.242188 C 60.253906 38.242188 56.226562 40.109375 56.1875 40.128906 C 55.898438 40.265625 55.550781 40.140625 55.414062 39.851562 C 55.277344 39.5625 55.402344 39.214844 55.691406 39.078125 C 55.863281 38.996094 59.980469 37.078125 64.558594 37.078125 C 69.136719 37.078125 73.332031 38.996094 73.511719 39.078125 C 73.722656 39.175781 73.847656 39.386719 73.847656 39.605469 Z M 73.847656 39.605469 " fill-opacity="1" fill-rule="nonzero"/><path fill="#000000" d="M 58.390625 45.5 C 58.390625 45.824219 58.128906 46.082031 57.808594 46.082031 L 55.703125 46.082031 L 55.703125 50.433594 C 55.703125 50.753906 55.445312 51.015625 55.125 51.015625 C 54.804688 51.015625 54.542969 50.753906 54.542969 50.433594 L 54.542969 45.5 C 54.542969 45.179688 54.804688 44.921875 55.125 44.921875 L 57.808594 44.921875 C 58.128906 44.921875 58.390625 45.179688 58.390625 45.5 Z M 58.390625 45.5 " fill-opacity="1" fill-rule="nonzero"/><path fill="#000000" d="M 74.574219 45.5 L 74.574219 50.433594 C 74.574219 50.753906 74.3125 51.015625 73.992188 51.015625 C 73.671875 51.015625 73.410156 50.753906 73.410156 50.433594 L 73.410156 46.082031 L 71.308594 46.082031 C 70.988281 46.082031 70.726562 45.824219 70.726562 45.5 C 70.726562 45.179688 70.988281 44.921875 71.308594 44.921875 L 73.992188 44.921875 C 74.3125 44.921875 74.574219 45.179688 74.574219 45.5 Z M 74.574219 45.5 " fill-opacity="1" fill-rule="nonzero"/><g clip-path="url(#dea5c92593)"><path fill="#000000" d="M 84.269531 51.300781 L 84.269531 73.441406 C 84.269531 73.761719 84.007812 74.023438 83.6875 74.023438 L 50.96875 74.023438 C 50.773438 74.023438 50.59375 73.925781 50.484375 73.765625 C 50.378906 73.601562 50.359375 73.398438 50.433594 73.21875 C 50.605469 72.800781 50.691406 72.363281 50.691406 71.914062 C 50.691406 71.367188 50.5625 70.839844 50.3125 70.355469 C 50.214844 70.175781 50.222656 69.957031 50.328125 69.785156 C 50.433594 69.609375 50.621094 69.503906 50.824219 69.503906 L 79.75 69.503906 L 79.75 51.300781 C 79.75 50.976562 80.011719 50.71875 80.332031 50.71875 L 83.6875 50.71875 C 84.007812 50.71875 84.269531 50.976562 84.269531 51.300781 Z M 83.105469 72.859375 L 83.105469 51.878906 L 80.914062 51.878906 L 80.914062 70.085938 C 80.914062 70.40625 80.652344 70.667969 80.332031 70.667969 L 51.679688 70.667969 C 51.882812 71.378906 51.910156 72.140625 51.757812 72.859375 Z M 83.105469 72.859375 " fill-opacity="1" fill-rule="nonzero"/></g><path fill="#000000" d="M 80.914062 55.464844 L 80.914062 70.085938 C 80.914062 70.40625 80.652344 70.667969 80.332031 70.667969 L 50.824219 70.667969 C 50.609375 70.667969 50.410156 70.546875 50.3125 70.355469 C 49.964844 69.6875 49.398438 69.148438 48.71875 68.835938 C 48.511719 68.742188 48.378906 68.535156 48.378906 68.308594 L 48.378906 55.464844 C 48.378906 55.144531 48.640625 54.886719 48.960938 54.886719 L 80.332031 54.886719 C 80.652344 54.886719 80.914062 55.144531 80.914062 55.464844 Z M 79.75 69.503906 L 79.75 56.046875 L 49.542969 56.046875 L 49.542969 67.957031 C 50.199219 68.328125 50.757812 68.863281 51.160156 69.503906 Z M 79.75 69.503906 " fill-opacity="1" fill-rule="nonzero"/><g clip-path="url(#5cc86a55b3)"><path fill="#000000" d="M 51.855469 71.914062 C 51.855469 72.515625 51.738281 73.105469 51.503906 73.664062 C 51.40625 73.898438 51.292969 74.121094 51.167969 74.320312 C 50.695312 75.078125 50.015625 75.675781 49.203125 76.046875 C 48.613281 76.324219 47.972656 76.460938 47.308594 76.460938 C 46.625 76.460938 45.96875 76.316406 45.355469 76.027344 C 44.34375 75.542969 43.546875 74.707031 43.113281 73.671875 C 42.878906 73.113281 42.761719 72.523438 42.761719 71.914062 C 42.761719 71.171875 42.933594 70.46875 43.273438 69.820312 C 43.644531 69.101562 44.210938 68.488281 44.910156 68.054688 C 45.046875 67.964844 45.199219 67.882812 45.359375 67.8125 C 45.964844 67.519531 46.621094 67.367188 47.308594 67.367188 C 47.972656 67.367188 48.609375 67.507812 49.203125 67.78125 C 50.117188 68.203125 50.875 68.925781 51.339844 69.816406 C 51.675781 70.460938 51.855469 71.1875 51.855469 71.914062 Z M 43.921875 71.914062 C 43.921875 72.367188 44.011719 72.808594 44.183594 73.222656 C 44.507812 73.992188 45.101562 74.617188 45.855469 74.976562 C 46.3125 75.191406 46.800781 75.300781 47.308594 75.300781 C 47.804688 75.300781 48.277344 75.195312 48.714844 74.992188 C 49.324219 74.714844 49.832031 74.269531 50.183594 73.703125 C 50.277344 73.554688 50.359375 73.394531 50.433594 73.21875 C 50.605469 72.800781 50.691406 72.363281 50.691406 71.914062 C 50.691406 71.367188 50.566406 70.839844 50.3125 70.355469 C 49.964844 69.6875 49.398438 69.148438 48.71875 68.835938 C 48.277344 68.632812 47.800781 68.53125 47.308594 68.53125 C 46.796875 68.53125 46.308594 68.640625 45.859375 68.859375 C 45.855469 68.863281 45.851562 68.863281 45.84375 68.867188 C 45.734375 68.917969 45.625 68.976562 45.527344 69.039062 C 45.003906 69.363281 44.582031 69.820312 44.304688 70.355469 C 44.050781 70.839844 43.921875 71.363281 43.921875 71.914062 Z M 43.921875 71.914062 " fill-opacity="1" fill-rule="nonzero"/></g><path fill="#000000" d="M 78.996094 85.8125 L 78.996094 91.34375 C 78.996094 91.988281 78.859375 92.605469 78.589844 93.179688 C 77.878906 94.691406 76.34375 95.667969 74.671875 95.667969 L 68.882812 95.667969 C 67.535156 95.667969 66.441406 94.574219 66.441406 93.226562 L 66.441406 83.933594 C 66.441406 82.621094 67.460938 81.554688 68.765625 81.492188 C 68.8125 81.488281 68.851562 81.488281 68.882812 81.488281 L 74.671875 81.488281 C 77.058594 81.488281 78.996094 83.425781 78.996094 85.8125 Z M 67.5625 93.226562 C 67.5625 93.953125 68.15625 94.542969 68.882812 94.542969 L 74.671875 94.542969 C 75.910156 94.542969 77.046875 93.820312 77.574219 92.703125 C 77.773438 92.277344 77.875 91.820312 77.875 91.34375 L 77.875 85.8125 C 77.875 84.046875 76.4375 82.613281 74.671875 82.613281 L 68.882812 82.613281 C 68.875 82.613281 68.867188 82.609375 68.859375 82.613281 C 68.851562 82.613281 68.839844 82.613281 68.828125 82.613281 C 68.117188 82.644531 67.5625 83.222656 67.5625 83.933594 Z M 67.5625 93.226562 " fill-opacity="1" fill-rule="nonzero"/><path fill="#000000" d="M 81.433594 87.101562 L 81.433594 90.128906 C 81.433594 90.4375 81.179688 90.6875 80.871094 90.6875 L 78.4375 90.6875 C 78.125 90.6875 77.875 90.4375 77.875 90.128906 L 77.875 87.101562 C 77.875 86.792969 78.125 86.539062 78.4375 86.539062 L 80.871094 86.539062 C 81.179688 86.539062 81.433594 86.792969 81.433594 87.101562 Z M 80.308594 89.566406 L 80.308594 87.664062 L 78.996094 87.664062 L 78.996094 89.566406 Z M 80.308594 89.566406 " fill-opacity="1" fill-rule="nonzero"/><path fill="#000000" d="M 81.738281 88.578125 C 81.738281 93.003906 79.882812 97.066406 79.804688 97.234375 C 79.675781 97.519531 79.339844 97.640625 79.058594 97.511719 C 78.777344 97.378906 78.65625 97.046875 78.785156 96.765625 C 78.808594 96.710938 80.613281 92.742188 80.613281 88.578125 C 80.613281 84.414062 78.804688 80.519531 78.789062 80.480469 C 78.65625 80.203125 78.773438 79.867188 79.054688 79.734375 C 79.335938 79.601562 79.671875 79.722656 79.804688 80.003906 C 79.882812 80.167969 81.738281 84.152344 81.738281 88.578125 Z M 81.738281 88.578125 " fill-opacity="1" fill-rule="nonzero"/><path fill="#000000" d="M 74.152344 79.453125 L 74.152344 82.050781 C 74.152344 82.359375 73.902344 82.613281 73.589844 82.613281 C 73.28125 82.613281 73.03125 82.359375 73.03125 82.050781 L 73.03125 80.015625 L 68.820312 80.015625 C 68.511719 80.015625 68.257812 79.761719 68.257812 79.453125 C 68.257812 79.144531 68.511719 78.890625 68.820312 78.890625 L 73.589844 78.890625 C 73.902344 78.890625 74.152344 79.144531 74.152344 79.453125 Z M 74.152344 79.453125 " fill-opacity="1" fill-rule="nonzero"/><path fill="#000000" d="M 74.152344 95.105469 L 74.152344 97.703125 C 74.152344 98.011719 73.902344 98.265625 73.589844 98.265625 L 68.820312 98.265625 C 68.511719 98.265625 68.257812 98.011719 68.257812 97.703125 C 68.257812 97.394531 68.511719 97.140625 68.820312 97.140625 L 73.03125 97.140625 L 73.03125 95.105469 C 73.03125 94.796875 73.28125 94.542969 73.589844 94.542969 C 73.902344 94.542969 74.152344 94.796875 74.152344 95.105469 Z M 74.152344 95.105469 " fill-opacity="1" fill-rule="nonzero"/><g clip-path="url(#8ac94f7e3b)"><path fill="#000000" d="M 68.546875 103.835938 L 68.546875 107.082031 C 68.546875 107.390625 68.292969 107.640625 67.984375 107.640625 L 46.566406 107.640625 C 46.257812 107.640625 46.007812 107.390625 46.007812 107.082031 L 46.007812 75.484375 C 46.007812 75.292969 46.105469 75.113281 46.269531 75.007812 C 46.429688 74.90625 46.632812 74.894531 46.808594 74.976562 C 47.25 75.183594 47.722656 75.292969 48.214844 75.292969 C 48.695312 75.292969 49.152344 75.191406 49.578125 74.992188 C 49.75 74.910156 49.953125 74.925781 50.117188 75.027344 C 50.277344 75.132812 50.375 75.308594 50.375 75.503906 L 50.375 103.273438 L 67.984375 103.273438 C 68.292969 103.273438 68.546875 103.523438 68.546875 103.835938 Z M 67.421875 106.519531 L 67.421875 104.398438 L 49.8125 104.398438 C 49.503906 104.398438 49.253906 104.144531 49.253906 103.835938 L 49.253906 76.292969 C 48.917969 76.375 48.570312 76.414062 48.214844 76.414062 C 47.84375 76.414062 47.480469 76.371094 47.128906 76.28125 L 47.128906 106.519531 Z M 67.421875 106.519531 " fill-opacity="1" fill-rule="nonzero"/></g><path fill="#000000" d="M 64.515625 73.492188 L 64.515625 103.835938 C 64.515625 104.144531 64.265625 104.398438 63.953125 104.398438 L 49.8125 104.398438 C 49.503906 104.398438 49.253906 104.144531 49.253906 103.835938 L 49.253906 75.503906 C 49.253906 75.28125 49.378906 75.082031 49.582031 74.992188 C 50.164062 74.722656 50.65625 74.292969 50.996094 73.746094 C 51.085938 73.605469 51.167969 73.445312 51.238281 73.277344 C 51.324219 73.066406 51.527344 72.929688 51.753906 72.929688 L 63.953125 72.929688 C 64.265625 72.929688 64.515625 73.183594 64.515625 73.492188 Z M 63.390625 103.273438 L 63.390625 74.054688 L 52.113281 74.054688 C 52.0625 74.15625 52.007812 74.25 51.949219 74.34375 C 51.558594 74.972656 51.015625 75.484375 50.375 75.847656 L 50.375 103.273438 Z M 63.390625 103.273438 " fill-opacity="1" fill-rule="nonzero"/><g clip-path="url(#54b4fb777b)"><path fill="#000000" d="M 47.128906 75.484375 L 47.128906 87.636719 C 47.128906 87.949219 46.878906 88.199219 46.566406 88.199219 L 16.226562 88.199219 C 15.914062 88.199219 15.664062 87.949219 15.664062 87.636719 L 15.664062 73.5 C 15.664062 73.1875 15.914062 72.9375 16.226562 72.9375 L 44.675781 72.9375 C 44.898438 72.9375 45.105469 73.074219 45.191406 73.28125 C 45.503906 74.027344 46.078125 74.628906 46.808594 74.976562 C 47.003906 75.070312 47.128906 75.265625 47.128906 75.484375 Z M 46.007812 87.078125 L 46.007812 75.824219 C 45.289062 75.40625 44.703125 74.796875 44.316406 74.058594 L 16.789062 74.058594 L 16.789062 87.078125 Z M 46.007812 87.078125 " fill-opacity="1" fill-rule="nonzero"/></g><g clip-path="url(#f5645695ae)"><path fill="#000000" d="M 50.375 36.664062 L 50.375 68.53125 C 50.375 68.722656 50.277344 68.898438 50.117188 69.003906 C 49.957031 69.105469 49.753906 69.121094 49.578125 69.039062 C 49.152344 68.84375 48.691406 68.742188 48.214844 68.742188 C 47.71875 68.742188 47.25 68.851562 46.8125 69.0625 C 46.640625 69.144531 46.433594 69.136719 46.269531 69.03125 C 46.105469 68.929688 46.007812 68.75 46.007812 68.554688 L 46.007812 40.472656 L 28.398438 40.472656 C 28.085938 40.472656 27.835938 40.222656 27.835938 39.910156 L 27.835938 36.664062 C 27.835938 36.355469 28.085938 36.101562 28.398438 36.101562 L 49.8125 36.101562 C 50.125 36.101562 50.375 36.355469 50.375 36.664062 Z M 49.253906 67.742188 L 49.253906 37.226562 L 28.960938 37.226562 L 28.960938 39.347656 L 46.566406 39.347656 C 46.878906 39.347656 47.128906 39.601562 47.128906 39.910156 L 47.128906 67.753906 C 47.480469 67.664062 47.84375 67.621094 48.214844 67.621094 C 48.570312 67.621094 48.914062 67.660156 49.253906 67.742188 Z M 49.253906 67.742188 " fill-opacity="1" fill-rule="nonzero"/></g><g clip-path="url(#5a985d5709)"><path fill="#000000" d="M 47.128906 39.910156 L 47.128906 68.554688 C 47.128906 68.777344 47 68.976562 46.800781 69.066406 C 46.691406 69.117188 46.589844 69.171875 46.492188 69.234375 C 45.984375 69.550781 45.578125 69.988281 45.308594 70.507812 C 45.214844 70.695312 45.019531 70.816406 44.808594 70.816406 L 32.429688 70.816406 C 32.117188 70.816406 31.867188 70.5625 31.867188 70.253906 L 31.867188 39.910156 C 31.867188 39.601562 32.117188 39.347656 32.429688 39.347656 L 46.566406 39.347656 C 46.878906 39.347656 47.128906 39.601562 47.128906 39.910156 Z M 46.007812 68.214844 L 46.007812 40.472656 L 32.992188 40.472656 L 32.992188 69.691406 L 44.484375 69.691406 C 44.835938 69.121094 45.320312 68.640625 45.894531 68.28125 C 45.929688 68.257812 45.96875 68.238281 46.007812 68.214844 Z M 46.007812 68.214844 " fill-opacity="1" fill-rule="nonzero"/></g><path fill="#000000" d="M 71.988281 45.386719 L 71.988281 51.175781 C 71.988281 52.523438 70.894531 53.621094 69.546875 53.621094 L 60.253906 53.621094 C 58.945312 53.621094 57.875 52.601562 57.8125 51.292969 C 57.808594 51.246094 57.808594 51.207031 57.808594 51.175781 L 57.808594 45.386719 C 57.808594 43.003906 59.75 41.0625 62.132812 41.0625 L 67.664062 41.0625 C 68.308594 41.0625 68.925781 41.199219 69.5 41.46875 C 71.011719 42.179688 71.988281 43.71875 71.988281 45.386719 Z M 58.933594 51.199219 C 58.933594 51.210938 58.933594 51.222656 58.933594 51.234375 C 58.964844 51.941406 59.542969 52.496094 60.253906 52.496094 L 69.546875 52.496094 C 70.273438 52.496094 70.867188 51.90625 70.867188 51.175781 L 70.867188 45.386719 C 70.867188 44.152344 70.144531 43.015625 69.023438 42.488281 C 68.597656 42.289062 68.140625 42.1875 67.664062 42.1875 L 62.132812 42.1875 C 60.367188 42.1875 58.933594 43.621094 58.933594 45.386719 L 58.933594 51.175781 C 58.933594 51.183594 58.933594 51.191406 58.933594 51.199219 Z M 58.375 51.257812 L 58.375 51.253906 Z M 58.375 51.257812 " fill-opacity="1" fill-rule="nonzero"/><path fill="#000000" d="M 67.011719 39.191406 L 67.011719 41.625 C 67.011719 41.933594 66.757812 42.1875 66.449219 42.1875 L 63.425781 42.1875 C 63.113281 42.1875 62.863281 41.933594 62.863281 41.625 L 62.863281 39.191406 C 62.863281 38.878906 63.113281 38.628906 63.425781 38.628906 L 66.449219 38.628906 C 66.757812 38.628906 67.011719 38.878906 67.011719 39.191406 Z M 65.886719 41.0625 L 65.886719 39.753906 L 63.984375 39.753906 L 63.984375 41.0625 Z M 65.886719 41.0625 " fill-opacity="1" fill-rule="nonzero"/><path fill="#000000" d="M 73.882812 40.765625 C 73.882812 40.84375 73.867188 40.925781 73.832031 41 C 73.703125 41.28125 73.367188 41.40625 73.085938 41.273438 C 73.035156 41.25 69.0625 39.445312 64.898438 39.445312 C 60.734375 39.445312 56.84375 41.253906 56.804688 41.273438 C 56.523438 41.40625 56.1875 41.285156 56.054688 41.003906 C 55.921875 40.722656 56.042969 40.390625 56.324219 40.257812 C 56.492188 40.179688 60.472656 38.324219 64.898438 38.324219 C 69.328125 38.324219 73.386719 40.175781 73.558594 40.253906 C 73.761719 40.351562 73.882812 40.554688 73.882812 40.765625 Z M 73.882812 40.765625 " fill-opacity="1" fill-rule="nonzero"/><path fill="#000000" d="M 58.933594 46.46875 C 58.933594 46.777344 58.679688 47.03125 58.371094 47.03125 L 56.335938 47.03125 L 56.335938 51.238281 C 56.335938 51.550781 56.085938 51.800781 55.773438 51.800781 C 55.464844 51.800781 55.210938 51.550781 55.210938 51.238281 L 55.210938 46.46875 C 55.210938 46.160156 55.464844 45.90625 55.773438 45.90625 L 58.371094 45.90625 C 58.679688 45.90625 58.933594 46.160156 58.933594 46.46875 Z M 58.933594 46.46875 " fill-opacity="1" fill-rule="nonzero"/><path fill="#000000" d="M 74.585938 46.46875 L 74.585938 51.238281 C 74.585938 51.550781 74.335938 51.800781 74.023438 51.800781 C 73.714844 51.800781 73.460938 51.550781 73.460938 51.238281 L 73.460938 47.03125 L 71.429688 47.03125 C 71.117188 47.03125 70.867188 46.777344 70.867188 46.46875 C 70.867188 46.160156 71.117188 45.90625 71.429688 45.90625 L 74.023438 45.90625 C 74.335938 45.90625 74.585938 46.160156 74.585938 46.46875 Z M 74.585938 46.46875 " fill-opacity="1" fill-rule="nonzero"/><g clip-path="url(#2a2bec793f)"><path fill="#000000" d="M 83.964844 52.078125 L 83.964844 73.492188 C 83.964844 73.804688 83.710938 74.054688 83.402344 74.054688 L 51.753906 74.054688 C 51.566406 74.054688 51.390625 73.960938 51.289062 73.804688 C 51.183594 73.648438 51.164062 73.449219 51.238281 73.277344 C 51.402344 72.875 51.488281 72.449219 51.488281 72.015625 C 51.488281 71.484375 51.363281 70.976562 51.117188 70.507812 C 51.027344 70.332031 51.035156 70.125 51.136719 69.957031 C 51.238281 69.789062 51.421875 69.683594 51.617188 69.683594 L 79.59375 69.683594 L 79.59375 52.078125 C 79.59375 51.765625 79.847656 51.515625 80.15625 51.515625 L 83.402344 51.515625 C 83.710938 51.515625 83.964844 51.765625 83.964844 52.078125 Z M 82.839844 72.929688 L 82.839844 52.636719 L 80.71875 52.636719 L 80.71875 70.246094 C 80.71875 70.558594 80.464844 70.808594 80.15625 70.808594 L 52.441406 70.808594 C 52.640625 71.496094 52.664062 72.234375 52.515625 72.929688 Z M 82.839844 72.929688 " fill-opacity="1" fill-rule="nonzero"/></g><path fill="#000000" d="M 80.71875 56.105469 L 80.71875 70.246094 C 80.71875 70.558594 80.464844 70.808594 80.15625 70.808594 L 51.617188 70.808594 C 51.40625 70.808594 51.214844 70.691406 51.117188 70.507812 C 50.78125 69.863281 50.238281 69.34375 49.578125 69.039062 C 49.378906 68.949219 49.253906 68.75 49.253906 68.53125 L 49.253906 56.105469 C 49.253906 55.796875 49.503906 55.546875 49.8125 55.546875 L 80.15625 55.546875 C 80.464844 55.546875 80.71875 55.796875 80.71875 56.105469 Z M 79.59375 69.683594 L 79.59375 56.667969 L 50.375 56.667969 L 50.375 68.1875 C 51.011719 68.546875 51.550781 69.066406 51.941406 69.683594 Z M 79.59375 69.683594 " fill-opacity="1" fill-rule="nonzero"/><g clip-path="url(#1ff69134f9)"><path fill="#000000" d="M 52.613281 72.015625 C 52.613281 72.597656 52.5 73.167969 52.273438 73.707031 C 52.179688 73.933594 52.070312 74.148438 51.949219 74.34375 C 51.492188 75.074219 50.835938 75.652344 50.046875 76.011719 C 49.476562 76.28125 48.859375 76.414062 48.214844 76.414062 C 47.554688 76.414062 46.921875 76.273438 46.328125 75.992188 C 45.347656 75.523438 44.574219 74.71875 44.15625 73.714844 C 43.929688 73.175781 43.816406 72.601562 43.816406 72.015625 C 43.816406 71.296875 43.984375 70.617188 44.3125 69.992188 C 44.671875 69.292969 45.21875 68.703125 45.894531 68.28125 C 46.027344 68.195312 46.175781 68.117188 46.328125 68.046875 C 46.917969 67.761719 47.550781 67.621094 48.214844 67.621094 C 48.855469 67.621094 49.472656 67.753906 50.050781 68.019531 C 50.929688 68.425781 51.664062 69.125 52.113281 69.988281 C 52.441406 70.609375 52.613281 71.3125 52.613281 72.015625 Z M 44.941406 72.015625 C 44.941406 72.453125 45.027344 72.878906 45.191406 73.28125 C 45.503906 74.027344 46.078125 74.628906 46.808594 74.976562 C 47.25 75.183594 47.722656 75.292969 48.214844 75.292969 C 48.695312 75.292969 49.152344 75.191406 49.578125 74.992188 C 50.164062 74.722656 50.65625 74.292969 50.996094 73.746094 C 51.085938 73.605469 51.167969 73.445312 51.238281 73.277344 C 51.402344 72.875 51.488281 72.449219 51.488281 72.015625 C 51.488281 71.484375 51.363281 70.976562 51.117188 70.507812 C 50.78125 69.863281 50.238281 69.34375 49.578125 69.039062 C 49.152344 68.84375 48.691406 68.742188 48.214844 68.742188 C 47.71875 68.742188 47.25 68.851562 46.8125 69.0625 C 46.808594 69.0625 46.804688 69.066406 46.800781 69.066406 C 46.691406 69.117188 46.589844 69.171875 46.492188 69.234375 C 45.984375 69.550781 45.578125 69.988281 45.308594 70.507812 C 45.0625 70.976562 44.941406 71.480469 44.941406 72.015625 Z M 44.941406 72.015625 " fill-opacity="1" fill-rule="nonzero"/></g><path fill="#000000" d="M 78.996094 86.917969 L 78.996094 92.449219 C 78.996094 93.09375 78.859375 93.710938 78.589844 94.285156 C 77.878906 95.796875 76.34375 96.773438 74.671875 96.773438 L 68.882812 96.773438 C 67.535156 96.773438 66.441406 95.679688 66.441406 94.332031 L 66.441406 85.039062 C 66.441406 83.726562 67.460938 82.660156 68.765625 82.597656 C 68.8125 82.59375 68.851562 82.59375 68.882812 82.59375 L 74.671875 82.59375 C 77.058594 82.59375 78.996094 84.53125 78.996094 86.917969 Z M 67.5625 94.332031 C 67.5625 95.058594 68.15625 95.648438 68.882812 95.648438 L 74.671875 95.648438 C 75.910156 95.648438 77.046875 94.925781 77.574219 93.808594 C 77.773438 93.382812 77.875 92.925781 77.875 92.449219 L 77.875 86.917969 C 77.875 85.152344 76.4375 83.714844 74.671875 83.714844 L 68.882812 83.714844 C 68.875 83.714844 68.867188 83.714844 68.859375 83.714844 C 68.851562 83.71875 68.839844 83.71875 68.828125 83.71875 C 68.117188 83.75 67.5625 84.328125 67.5625 85.039062 Z M 67.5625 94.332031 " fill-opacity="1" fill-rule="nonzero"/><path fill="#000000" d="M 81.433594 88.207031 L 81.433594 91.234375 C 81.433594 91.542969 81.179688 91.792969 80.871094 91.792969 L 78.4375 91.792969 C 78.125 91.792969 77.875 91.542969 77.875 91.234375 L 77.875 88.207031 C 77.875 87.898438 78.125 87.644531 78.4375 87.644531 L 80.871094 87.644531 C 81.179688 87.644531 81.433594 87.898438 81.433594 88.207031 Z M 80.308594 90.671875 L 80.308594 88.769531 L 78.996094 88.769531 L 78.996094 90.671875 Z M 80.308594 90.671875 " fill-opacity="1" fill-rule="nonzero"/><path fill="#000000" d="M 81.738281 89.683594 C 81.738281 94.109375 79.882812 98.171875 79.804688 98.339844 C 79.675781 98.625 79.339844 98.746094 79.058594 98.617188 C 78.777344 98.484375 78.65625 98.152344 78.785156 97.871094 C 78.808594 97.816406 80.613281 93.847656 80.613281 89.683594 C 80.613281 85.519531 78.804688 81.625 78.789062 81.585938 C 78.65625 81.308594 78.773438 80.972656 79.054688 80.839844 C 79.335938 80.707031 79.671875 80.828125 79.804688 81.109375 C 79.882812 81.273438 81.738281 85.257812 81.738281 89.683594 Z M 81.738281 89.683594 " fill-opacity="1" fill-rule="nonzero"/><path fill="#000000" d="M 74.152344 80.558594 L 74.152344 83.15625 C 74.152344 83.464844 73.902344 83.714844 73.589844 83.714844 C 73.28125 83.714844 73.03125 83.464844 73.03125 83.15625 L 73.03125 81.121094 L 68.820312 81.121094 C 68.511719 81.121094 68.257812 80.867188 68.257812 80.558594 C 68.257812 80.246094 68.511719 79.996094 68.820312 79.996094 L 73.589844 79.996094 C 73.902344 79.996094 74.152344 80.246094 74.152344 80.558594 Z M 74.152344 80.558594 " fill-opacity="1" fill-rule="nonzero"/><path fill="#000000" d="M 74.152344 96.210938 L 74.152344 98.808594 C 74.152344 99.117188 73.902344 99.371094 73.589844 99.371094 L 68.820312 99.371094 C 68.511719 99.371094 68.257812 99.117188 68.257812 98.808594 C 68.257812 98.5 68.511719 98.246094 68.820312 98.246094 L 73.03125 98.246094 L 73.03125 96.210938 C 73.03125 95.902344 73.28125 95.648438 73.589844 95.648438 C 73.902344 95.648438 74.152344 95.902344 74.152344 96.210938 Z M 74.152344 96.210938 " fill-opacity="1" fill-rule="nonzero"/><g clip-path="url(#5a0d978044)"><path fill="#000000" d="M 68.546875 104.941406 L 68.546875 108.1875 C 68.546875 108.496094 68.292969 108.746094 67.984375 108.746094 L 46.566406 108.746094 C 46.257812 108.746094 46.007812 108.496094 46.007812 108.1875 L 46.007812 76.589844 C 46.007812 76.398438 46.105469 76.21875 46.269531 76.113281 C 46.429688 76.011719 46.632812 76 46.808594 76.082031 C 47.25 76.289062 47.722656 76.398438 48.214844 76.398438 C 48.695312 76.398438 49.152344 76.296875 49.578125 76.097656 C 49.75 76.015625 49.953125 76.03125 50.117188 76.132812 C 50.277344 76.238281 50.375 76.414062 50.375 76.605469 L 50.375 104.378906 L 67.984375 104.378906 C 68.292969 104.378906 68.546875 104.628906 68.546875 104.941406 Z M 67.421875 107.625 L 67.421875 105.5 L 49.8125 105.5 C 49.503906 105.5 49.253906 105.25 49.253906 104.941406 L 49.253906 77.398438 C 48.917969 77.480469 48.570312 77.519531 48.214844 77.519531 C 47.84375 77.519531 47.480469 77.476562 47.128906 77.386719 L 47.128906 107.625 Z M 67.421875 107.625 " fill-opacity="1" fill-rule="nonzero"/></g><path fill="#000000" d="M 64.515625 74.597656 L 64.515625 104.941406 C 64.515625 105.25 64.265625 105.5 63.953125 105.5 L 49.8125 105.5 C 49.503906 105.5 49.253906 105.25 49.253906 104.941406 L 49.253906 76.605469 C 49.253906 76.386719 49.378906 76.1875 49.582031 76.097656 C 50.164062 75.828125 50.65625 75.398438 50.996094 74.851562 C 51.085938 74.707031 51.167969 74.550781 51.238281 74.382812 C 51.324219 74.171875 51.527344 74.035156 51.753906 74.035156 L 63.953125 74.035156 C 64.265625 74.035156 64.515625 74.289062 64.515625 74.597656 Z M 63.390625 104.378906 L 63.390625 75.160156 L 52.113281 75.160156 C 52.0625 75.257812 52.007812 75.355469 51.949219 75.449219 C 51.558594 76.078125 51.015625 76.589844 50.375 76.953125 L 50.375 104.378906 Z M 63.390625 104.378906 " fill-opacity="1" fill-rule="nonzero"/><g clip-path="url(#862061f7e2)"><path fill="#000000" d="M 47.128906 76.589844 L 47.128906 88.742188 C 47.128906 89.054688 46.878906 89.304688 46.566406 89.304688 L 16.226562 89.304688 C 15.914062 89.304688 15.664062 89.054688 15.664062 88.742188 L 15.664062 74.605469 C 15.664062 74.292969 15.914062 74.042969 16.226562 74.042969 L 44.675781 74.042969 C 44.898438 74.042969 45.105469 74.179688 45.191406 74.386719 C 45.503906 75.132812 46.078125 75.734375 46.808594 76.082031 C 47.003906 76.175781 47.128906 76.371094 47.128906 76.589844 Z M 46.007812 88.183594 L 46.007812 76.929688 C 45.289062 76.511719 44.703125 75.902344 44.316406 75.164062 L 16.789062 75.164062 L 16.789062 88.183594 Z M 46.007812 88.183594 " fill-opacity="1" fill-rule="nonzero"/></g><g clip-path="url(#169c811e0f)"><path fill="#000000" d="M 50.375 37.769531 L 50.375 69.632812 C 50.375 69.828125 50.277344 70.003906 50.117188 70.109375 C 49.957031 70.210938 49.753906 70.226562 49.578125 70.144531 C 49.152344 69.949219 48.691406 69.847656 48.214844 69.847656 C 47.71875 69.847656 47.25 69.957031 46.8125 70.167969 C 46.640625 70.25 46.433594 70.238281 46.269531 70.136719 C 46.105469 70.035156 46.007812 69.855469 46.007812 69.660156 L 46.007812 41.578125 L 28.398438 41.578125 C 28.085938 41.578125 27.835938 41.324219 27.835938 41.015625 L 27.835938 37.769531 C 27.835938 37.460938 28.085938 37.207031 28.398438 37.207031 L 49.8125 37.207031 C 50.125 37.207031 50.375 37.460938 50.375 37.769531 Z M 49.253906 68.847656 L 49.253906 38.332031 L 28.960938 38.332031 L 28.960938 40.453125 L 46.566406 40.453125 C 46.878906 40.453125 47.128906 40.707031 47.128906 41.015625 L 47.128906 68.859375 C 47.480469 68.769531 47.84375 68.726562 48.214844 68.726562 C 48.570312 68.726562 48.914062 68.765625 49.253906 68.847656 Z M 49.253906 68.847656 " fill-opacity="1" fill-rule="nonzero"/></g><g clip-path="url(#03e7277022)"><path fill="#000000" d="M 47.128906 41.015625 L 47.128906 69.660156 C 47.128906 69.882812 47 70.082031 46.800781 70.171875 C 46.691406 70.222656 46.589844 70.277344 46.492188 70.339844 C 45.984375 70.65625 45.578125 71.09375 45.308594 71.613281 C 45.214844 71.800781 45.019531 71.917969 44.808594 71.917969 L 32.429688 71.917969 C 32.117188 71.917969 31.867188 71.667969 31.867188 71.359375 L 31.867188 41.015625 C 31.867188 40.707031 32.117188 40.453125 32.429688 40.453125 L 46.566406 40.453125 C 46.878906 40.453125 47.128906 40.707031 47.128906 41.015625 Z M 46.007812 69.320312 L 46.007812 41.578125 L 32.992188 41.578125 L 32.992188 70.796875 L 44.484375 70.796875 C 44.835938 70.226562 45.320312 69.746094 45.894531 69.386719 C 45.929688 69.363281 45.96875 69.339844 46.007812 69.320312 Z M 46.007812 69.320312 " fill-opacity="1" fill-rule="nonzero"/></g><path fill="#000000" d="M 71.988281 46.492188 L 71.988281 52.28125 C 71.988281 53.628906 70.894531 54.726562 69.546875 54.726562 L 60.253906 54.726562 C 58.945312 54.726562 57.875 53.707031 57.8125 52.398438 C 57.808594 52.351562 57.808594 52.3125 57.808594 52.28125 L 57.808594 46.492188 C 57.808594 44.109375 59.75 42.167969 62.132812 42.167969 L 67.664062 42.167969 C 68.308594 42.167969 68.925781 42.304688 69.5 42.574219 C 71.011719 43.285156 71.988281 44.824219 71.988281 46.492188 Z M 58.933594 52.304688 C 58.933594 52.316406 58.933594 52.328125 58.933594 52.339844 C 58.964844 53.046875 59.542969 53.601562 60.253906 53.601562 L 69.546875 53.601562 C 70.273438 53.601562 70.867188 53.011719 70.867188 52.28125 L 70.867188 46.492188 C 70.867188 45.257812 70.144531 44.117188 69.023438 43.59375 C 68.597656 43.394531 68.140625 43.292969 67.664062 43.292969 L 62.132812 43.292969 C 60.367188 43.292969 58.933594 44.726562 58.933594 46.492188 L 58.933594 52.28125 C 58.933594 52.289062 58.933594 52.296875 58.933594 52.304688 Z M 58.375 52.359375 Z M 58.375 52.359375 " fill-opacity="1" fill-rule="nonzero"/><path fill="#000000" d="M 67.011719 40.296875 L 67.011719 42.730469 C 67.011719 43.039062 66.757812 43.292969 66.449219 43.292969 L 63.425781 43.292969 C 63.113281 43.292969 62.863281 43.039062 62.863281 42.730469 L 62.863281 40.296875 C 62.863281 39.984375 63.113281 39.734375 63.425781 39.734375 L 66.449219 39.734375 C 66.757812 39.734375 67.011719 39.984375 67.011719 40.296875 Z M 65.886719 42.167969 L 65.886719 40.859375 L 63.984375 40.859375 L 63.984375 42.167969 Z M 65.886719 42.167969 " fill-opacity="1" fill-rule="nonzero"/><path fill="#000000" d="M 73.882812 41.871094 C 73.882812 41.949219 73.867188 42.03125 73.832031 42.105469 C 73.703125 42.386719 73.367188 42.511719 73.085938 42.378906 C 73.035156 42.355469 69.0625 40.550781 64.898438 40.550781 C 60.734375 40.550781 56.84375 42.359375 56.804688 42.378906 C 56.523438 42.511719 56.1875 42.390625 56.054688 42.109375 C 55.921875 41.828125 56.042969 41.496094 56.324219 41.363281 C 56.492188 41.285156 60.472656 39.425781 64.898438 39.425781 C 69.328125 39.425781 73.386719 41.28125 73.558594 41.359375 C 73.761719 41.457031 73.882812 41.660156 73.882812 41.871094 Z M 73.882812 41.871094 " fill-opacity="1" fill-rule="nonzero"/><path fill="#000000" d="M 58.933594 47.574219 C 58.933594 47.882812 58.679688 48.136719 58.371094 48.136719 L 56.335938 48.136719 L 56.335938 52.34375 C 56.335938 52.65625 56.085938 52.90625 55.773438 52.90625 C 55.464844 52.90625 55.210938 52.65625 55.210938 52.34375 L 55.210938 47.574219 C 55.210938 47.265625 55.464844 47.011719 55.773438 47.011719 L 58.371094 47.011719 C 58.679688 47.011719 58.933594 47.265625 58.933594 47.574219 Z M 58.933594 47.574219 " fill-opacity="1" fill-rule="nonzero"/><path fill="#000000" d="M 74.585938 47.574219 L 74.585938 52.34375 C 74.585938 52.65625 74.335938 52.90625 74.023438 52.90625 C 73.714844 52.90625 73.460938 52.65625 73.460938 52.34375 L 73.460938 48.136719 L 71.429688 48.136719 C 71.117188 48.136719 70.867188 47.882812 70.867188 47.574219 C 70.867188 47.265625 71.117188 47.011719 71.429688 47.011719 L 74.023438 47.011719 C 74.335938 47.011719 74.585938 47.265625 74.585938 47.574219 Z M 74.585938 47.574219 " fill-opacity="1" fill-rule="nonzero"/><g clip-path="url(#85ccda08bc)"><path fill="#000000" d="M 83.964844 53.179688 L 83.964844 74.597656 C 83.964844 74.90625 83.710938 75.160156 83.402344 75.160156 L 51.753906 75.160156 C 51.566406 75.160156 51.390625 75.066406 51.289062 74.910156 C 51.183594 74.753906 51.164062 74.554688 51.238281 74.382812 C 51.402344 73.980469 51.488281 73.554688 51.488281 73.121094 C 51.488281 72.589844 51.363281 72.082031 51.117188 71.613281 C 51.027344 71.4375 51.035156 71.230469 51.136719 71.0625 C 51.238281 70.894531 51.421875 70.789062 51.617188 70.789062 L 79.59375 70.789062 L 79.59375 53.179688 C 79.59375 52.871094 79.847656 52.621094 80.15625 52.621094 L 83.402344 52.621094 C 83.710938 52.621094 83.964844 52.871094 83.964844 53.179688 Z M 82.839844 74.035156 L 82.839844 53.742188 L 80.71875 53.742188 L 80.71875 71.351562 C 80.71875 71.664062 80.464844 71.914062 80.15625 71.914062 L 52.441406 71.914062 C 52.640625 72.601562 52.664062 73.339844 52.515625 74.035156 Z M 82.839844 74.035156 " fill-opacity="1" fill-rule="nonzero"/></g><path fill="#000000" d="M 80.71875 57.210938 L 80.71875 71.351562 C 80.71875 71.664062 80.464844 71.914062 80.15625 71.914062 L 51.617188 71.914062 C 51.40625 71.914062 51.214844 71.796875 51.117188 71.613281 C 50.78125 70.96875 50.238281 70.449219 49.578125 70.144531 C 49.378906 70.054688 49.253906 69.855469 49.253906 69.632812 L 49.253906 57.210938 C 49.253906 56.902344 49.503906 56.648438 49.8125 56.648438 L 80.15625 56.648438 C 80.464844 56.648438 80.71875 56.902344 80.71875 57.210938 Z M 79.59375 70.789062 L 79.59375 57.773438 L 50.375 57.773438 L 50.375 69.292969 C 51.011719 69.652344 51.550781 70.171875 51.941406 70.789062 Z M 79.59375 70.789062 " fill-opacity="1" fill-rule="nonzero"/><g clip-path="url(#af592c77a9)"><path fill="#000000" d="M 52.613281 73.121094 C 52.613281 73.703125 52.5 74.273438 52.273438 74.8125 C 52.179688 75.039062 52.070312 75.253906 51.949219 75.449219 C 51.492188 76.179688 50.835938 76.757812 50.046875 77.117188 C 49.476562 77.382812 48.859375 77.519531 48.214844 77.519531 C 47.554688 77.519531 46.921875 77.378906 46.328125 77.097656 C 45.347656 76.628906 44.574219 75.820312 44.15625 74.820312 C 43.929688 74.277344 43.816406 73.707031 43.816406 73.121094 C 43.816406 72.402344 43.984375 71.722656 44.3125 71.097656 C 44.671875 70.398438 45.21875 69.808594 45.894531 69.386719 C 46.027344 69.300781 46.175781 69.222656 46.328125 69.152344 C 46.917969 68.867188 47.550781 68.726562 48.214844 68.726562 C 48.855469 68.726562 49.472656 68.859375 50.050781 69.125 C 50.929688 69.53125 51.664062 70.230469 52.113281 71.09375 C 52.441406 71.714844 52.613281 72.417969 52.613281 73.121094 Z M 44.941406 73.121094 C 44.941406 73.558594 45.027344 73.984375 45.191406 74.386719 C 45.503906 75.132812 46.078125 75.734375 46.808594 76.082031 C 47.25 76.289062 47.722656 76.398438 48.214844 76.398438 C 48.695312 76.398438 49.152344 76.296875 49.578125 76.097656 C 50.164062 75.828125 50.65625 75.398438 50.996094 74.851562 C 51.085938 74.707031 51.167969 74.550781 51.238281 74.382812 C 51.402344 73.980469 51.488281 73.554688 51.488281 73.121094 C 51.488281 72.589844 51.363281 72.082031 51.117188 71.613281 C 50.78125 70.96875 50.238281 70.449219 49.578125 70.144531 C 49.152344 69.949219 48.691406 69.847656 48.214844 69.847656 C 47.71875 69.847656 47.25 69.957031 46.8125 70.167969 C 46.808594 70.167969 46.804688 70.171875 46.800781 70.171875 C 46.691406 70.222656 46.589844 70.277344 46.492188 70.339844 C 45.984375 70.65625 45.578125 71.09375 45.308594 71.613281 C 45.0625 72.082031 44.941406 72.585938 44.941406 73.121094 Z M 44.941406 73.121094 " fill-opacity="1" fill-rule="nonzero"/></g><g fill="#01703a" fill-opacity="1"><g transform="translate(31.249965, 131.005072)"><g><path d="M 11.046875 -116.453125 L 40.609375 -116.453125 C 47.078125 -116.453125 53 -115.476562 58.375 -113.53125 C 63.75 -111.59375 68.023438 -108.484375 71.203125 -104.203125 C 74.390625 -99.929688 75.984375 -94.257812 75.984375 -87.1875 L 75.984375 -84.203125 C 75.984375 -77.628906 74.363281 -72.425781 71.125 -68.59375 C 67.894531 -64.769531 63.742188 -61.960938 58.671875 -60.171875 C 64.546875 -58.378906 69.398438 -55.390625 73.234375 -51.203125 C 77.066406 -47.023438 78.984375 -41.203125 78.984375 -33.734375 L 78.984375 -30.75 C 78.984375 -23.382812 77.335938 -17.4375 74.046875 -12.90625 C 70.765625 -8.382812 66.410156 -5.101562 60.984375 -3.0625 C 55.554688 -1.019531 49.5625 0 43 0 L 11.046875 0 Z M 43.75 -54.9375 L 21.796875 -54.9375 L 21.796875 -9.703125 L 43.75 -9.703125 C 48.125 -9.703125 52.148438 -10.445312 55.828125 -11.9375 C 59.515625 -13.4375 62.453125 -15.753906 64.640625 -18.890625 C 66.835938 -22.023438 67.9375 -26.128906 67.9375 -31.203125 L 67.9375 -33.4375 C 67.9375 -38.519531 66.835938 -42.648438 64.640625 -45.828125 C 62.453125 -49.015625 59.515625 -51.328125 55.828125 -52.765625 C 52.148438 -54.210938 48.125 -54.9375 43.75 -54.9375 Z M 41.0625 -106.75 L 21.796875 -106.75 L 21.796875 -64.640625 L 41.0625 -64.640625 C 45.4375 -64.640625 49.414062 -65.285156 53 -66.578125 C 56.582031 -67.878906 59.46875 -69.992188 61.65625 -72.921875 C 63.84375 -75.859375 64.9375 -79.71875 64.9375 -84.5 L 64.9375 -86.890625 C 64.9375 -91.765625 63.84375 -95.644531 61.65625 -98.53125 C 59.46875 -101.414062 56.582031 -103.503906 53 -104.796875 C 49.414062 -106.097656 45.4375 -106.75 41.0625 -106.75 Z M 41.0625 -106.75 "/></g></g></g></svg>