<svg xmlns="http://www.w3.org/2000/svg" xmlns:xlink="http://www.w3.org/1999/xlink" width="200" zoomAndPan="magnify" viewBox="0 0 150 149.999998" height="200" preserveAspectRatio="xMidYMid meet" version="1.0"><defs><g/><clipPath id="1442fe6472"><path d="M 47.449219 74 L 70 74 L 70 106.023438 L 47.449219 106.023438 Z M 47.449219 74 " clip-rule="nonzero"/></clipPath><clipPath id="1dec2291d1"><path d="M 47.449219 72 L 49 72 L 49 88 L 47.449219 88 Z M 47.449219 72 " clip-rule="nonzero"/></clipPath><clipPath id="a7688cc201"><path d="M 47.449219 37.566406 L 52 37.566406 L 52 70 L 47.449219 70 Z M 47.449219 37.566406 " clip-rule="nonzero"/></clipPath><clipPath id="e46fb71069"><path d="M 47.449219 40 L 49 40 L 49 71 L 47.449219 71 Z M 47.449219 40 " clip-rule="nonzero"/></clipPath><clipPath id="6ef44501fa"><path d="M 52 52 L 83.863281 52 L 83.863281 75 L 52 75 Z M 52 52 " clip-rule="nonzero"/></clipPath><clipPath id="0cee8df8a9"><path d="M 47.449219 67 L 54 67 L 54 77 L 47.449219 77 Z M 47.449219 67 " clip-rule="nonzero"/></clipPath><clipPath id="bad51b5501"><path d="M 48.527344 74 L 70 74 L 70 105.007812 L 48.527344 105.007812 Z M 48.527344 74 " clip-rule="nonzero"/></clipPath><clipPath id="dab92907d4"><path d="M 48.527344 72 L 50 72 L 50 88 L 48.527344 88 Z M 48.527344 72 " clip-rule="nonzero"/></clipPath><clipPath id="cca9476e9e"><path d="M 48.527344 38.734375 L 53 38.734375 L 53 70 L 48.527344 70 Z M 48.527344 38.734375 " clip-rule="nonzero"/></clipPath><clipPath id="cb48ec058b"><path d="M 48.527344 41 L 50 41 L 50 71 L 48.527344 71 Z M 48.527344 41 " clip-rule="nonzero"/></clipPath><clipPath id="c8ba2ede5d"><path d="M 53 53 L 83.484375 53 L 83.484375 74 L 53 74 Z M 53 53 " clip-rule="nonzero"/></clipPath><clipPath id="962ccf6b7e"><path d="M 48.527344 68 L 55 68 L 55 77 L 48.527344 77 Z M 48.527344 68 " clip-rule="nonzero"/></clipPath><clipPath id="d343960fd1"><path d="M 48.527344 75 L 70 75 L 70 106.023438 L 48.527344 106.023438 Z M 48.527344 75 " clip-rule="nonzero"/></clipPath><clipPath id="1aea1db4f0"><path d="M 48.527344 73 L 50 73 L 50 89 L 48.527344 89 Z M 48.527344 73 " clip-rule="nonzero"/></clipPath><clipPath id="2ebff20cf7"><path d="M 48.527344 39.75 L 53 39.75 L 53 71 L 48.527344 71 Z M 48.527344 39.75 " clip-rule="nonzero"/></clipPath><clipPath id="6539da44c3"><path d="M 48.527344 42 L 50 42 L 50 72 L 48.527344 72 Z M 48.527344 42 " clip-rule="nonzero"/></clipPath><clipPath id="69fc3cc046"><path d="M 53 54 L 83.484375 54 L 83.484375 75 L 53 75 Z M 53 54 " clip-rule="nonzero"/></clipPath><clipPath id="f71c96240e"><path d="M 48.527344 69 L 55 69 L 55 78 L 48.527344 78 Z M 48.527344 69 " clip-rule="nonzero"/></clipPath></defs><path fill="#100f0d" d="M 79.0625 85.230469 L 79.0625 90.5 C 79.0625 91.113281 78.933594 91.699219 78.675781 92.246094 C 78 93.6875 76.535156 94.617188 74.945312 94.617188 L 69.433594 94.617188 C 68.148438 94.617188 67.105469 93.574219 67.105469 92.292969 L 67.105469 83.441406 C 67.105469 82.195312 68.074219 81.175781 69.320312 81.117188 C 69.363281 81.113281 69.402344 81.113281 69.433594 81.113281 L 74.945312 81.113281 C 77.214844 81.113281 79.0625 82.960938 79.0625 85.230469 Z M 68.175781 92.292969 C 68.175781 92.984375 68.738281 93.546875 69.433594 93.546875 L 74.945312 93.546875 C 76.121094 93.546875 77.207031 92.859375 77.707031 91.792969 C 77.898438 91.386719 77.992188 90.953125 77.992188 90.5 L 77.992188 85.230469 C 77.992188 83.550781 76.625 82.183594 74.945312 82.183594 L 69.433594 82.183594 C 69.425781 82.183594 69.417969 82.183594 69.410156 82.183594 C 69.398438 82.183594 69.390625 82.183594 69.378906 82.183594 C 68.703125 82.210938 68.175781 82.765625 68.175781 83.441406 Z M 68.175781 92.292969 " fill-opacity="1" fill-rule="nonzero"/><path fill="#100f0d" d="M 81.382812 86.460938 L 81.382812 89.339844 C 81.382812 89.636719 81.144531 89.875 80.847656 89.875 L 78.527344 89.875 C 78.234375 89.875 77.992188 89.636719 77.992188 89.339844 L 77.992188 86.460938 C 77.992188 86.164062 78.234375 85.925781 78.527344 85.925781 L 80.847656 85.925781 C 81.144531 85.925781 81.382812 86.164062 81.382812 86.460938 Z M 80.3125 88.804688 L 80.3125 86.996094 L 79.0625 86.996094 L 79.0625 88.804688 Z M 80.3125 88.804688 " fill-opacity="1" fill-rule="nonzero"/><path fill="#100f0d" d="M 81.675781 87.867188 C 81.675781 92.078125 79.910156 95.949219 79.832031 96.113281 C 79.710938 96.378906 79.390625 96.496094 79.125 96.371094 C 78.855469 96.25 78.738281 95.929688 78.863281 95.664062 C 78.886719 95.613281 80.605469 91.832031 80.605469 87.867188 C 80.605469 83.898438 78.882812 80.191406 78.863281 80.15625 C 78.738281 79.886719 78.851562 79.570312 79.121094 79.441406 C 79.386719 79.316406 79.707031 79.429688 79.832031 79.699219 C 79.90625 79.859375 81.675781 83.648438 81.675781 87.867188 Z M 81.675781 87.867188 " fill-opacity="1" fill-rule="nonzero"/><path fill="#100f0d" d="M 74.449219 79.175781 L 74.449219 81.648438 C 74.449219 81.941406 74.210938 82.183594 73.914062 82.183594 C 73.621094 82.183594 73.378906 81.941406 73.378906 81.648438 L 73.378906 79.710938 L 69.371094 79.710938 C 69.078125 79.710938 68.835938 79.46875 68.835938 79.175781 C 68.835938 78.878906 69.078125 78.640625 69.371094 78.640625 L 73.914062 78.640625 C 74.210938 78.640625 74.449219 78.878906 74.449219 79.175781 Z M 74.449219 79.175781 " fill-opacity="1" fill-rule="nonzero"/><path fill="#100f0d" d="M 74.449219 94.082031 L 74.449219 96.554688 C 74.449219 96.851562 74.210938 97.089844 73.914062 97.089844 L 69.371094 97.089844 C 69.078125 97.089844 68.835938 96.851562 68.835938 96.554688 C 68.835938 96.261719 69.078125 96.019531 69.371094 96.019531 L 73.378906 96.019531 L 73.378906 94.082031 C 73.378906 93.789062 73.621094 93.546875 73.914062 93.546875 C 74.210938 93.546875 74.449219 93.789062 74.449219 94.082031 Z M 74.449219 94.082031 " fill-opacity="1" fill-rule="nonzero"/><g clip-path="url(#1442fe6472)"><path fill="#100f0d" d="M 69.109375 102.394531 L 69.109375 105.488281 C 69.109375 105.78125 68.871094 106.023438 68.574219 106.023438 L 48.179688 106.023438 C 47.882812 106.023438 47.644531 105.78125 47.644531 105.488281 L 47.644531 75.394531 C 47.644531 75.210938 47.738281 75.042969 47.890625 74.941406 C 48.046875 74.84375 48.242188 74.832031 48.40625 74.910156 C 48.828125 75.109375 49.277344 75.210938 49.746094 75.210938 C 50.203125 75.210938 50.640625 75.117188 51.042969 74.925781 C 51.210938 74.851562 51.402344 74.863281 51.558594 74.960938 C 51.710938 75.058594 51.804688 75.230469 51.804688 75.410156 L 51.804688 101.859375 L 68.574219 101.859375 C 68.871094 101.859375 69.109375 102.101562 69.109375 102.394531 Z M 68.039062 104.953125 L 68.039062 102.929688 L 51.269531 102.929688 C 50.972656 102.929688 50.734375 102.691406 50.734375 102.394531 L 50.734375 76.164062 C 50.414062 76.242188 50.085938 76.28125 49.746094 76.28125 C 49.394531 76.28125 49.046875 76.238281 48.714844 76.152344 L 48.714844 104.953125 Z M 68.039062 104.953125 " fill-opacity="1" fill-rule="nonzero"/></g><path fill="#100f0d" d="M 65.269531 73.5 L 65.269531 102.394531 C 65.269531 102.691406 65.03125 102.929688 64.734375 102.929688 L 51.269531 102.929688 C 50.972656 102.929688 50.734375 102.691406 50.734375 102.394531 L 50.734375 75.410156 C 50.734375 75.203125 50.855469 75.011719 51.046875 74.925781 C 51.605469 74.671875 52.070312 74.261719 52.394531 73.742188 C 52.480469 73.605469 52.558594 73.453125 52.625 73.292969 C 52.707031 73.09375 52.902344 72.964844 53.117188 72.964844 L 64.738281 72.964844 C 65.03125 72.964844 65.269531 73.203125 65.269531 73.5 Z M 64.203125 101.859375 L 64.203125 74.03125 L 53.460938 74.03125 C 53.410156 74.128906 53.355469 74.21875 53.300781 74.308594 C 52.929688 74.90625 52.414062 75.394531 51.804688 75.738281 L 51.804688 101.859375 Z M 64.203125 101.859375 " fill-opacity="1" fill-rule="nonzero"/><g clip-path="url(#1dec2291d1)"><path fill="#100f0d" d="M 48.714844 75.394531 L 48.714844 86.96875 C 48.714844 87.265625 48.472656 87.503906 48.179688 87.503906 L 19.28125 87.503906 C 18.984375 87.503906 18.746094 87.265625 18.746094 86.96875 L 18.746094 73.503906 C 18.746094 73.207031 18.984375 72.96875 19.28125 72.96875 L 46.375 72.96875 C 46.589844 72.96875 46.785156 73.097656 46.867188 73.296875 C 47.164062 74.007812 47.710938 74.582031 48.410156 74.910156 C 48.59375 75 48.714844 75.1875 48.714844 75.394531 Z M 47.644531 86.433594 L 47.644531 75.71875 C 46.960938 75.320312 46.402344 74.738281 46.035156 74.039062 L 19.816406 74.039062 L 19.816406 86.433594 Z M 47.644531 86.433594 " fill-opacity="1" fill-rule="nonzero"/></g><g clip-path="url(#a7688cc201)"><path fill="#100f0d" d="M 51.804688 38.421875 L 51.804688 68.769531 C 51.804688 68.953125 51.710938 69.125 51.558594 69.222656 C 51.40625 69.320312 51.210938 69.332031 51.046875 69.257812 C 50.640625 69.070312 50.203125 68.976562 49.746094 68.976562 C 49.277344 68.976562 48.828125 69.078125 48.410156 69.277344 C 48.246094 69.359375 48.050781 69.347656 47.894531 69.25 C 47.738281 69.152344 47.644531 68.980469 47.644531 68.796875 L 47.644531 42.050781 L 30.871094 42.050781 C 30.578125 42.050781 30.335938 41.808594 30.335938 41.515625 L 30.335938 38.421875 C 30.335938 38.128906 30.578125 37.886719 30.871094 37.886719 L 51.269531 37.886719 C 51.566406 37.886719 51.804688 38.128906 51.804688 38.421875 Z M 50.734375 68.019531 L 50.734375 38.957031 L 31.40625 38.957031 L 31.40625 40.980469 L 48.179688 40.980469 C 48.472656 40.980469 48.714844 41.21875 48.714844 41.515625 L 48.714844 68.03125 C 49.046875 67.949219 49.394531 67.90625 49.746094 67.90625 C 50.082031 67.90625 50.414062 67.945312 50.734375 68.019531 Z M 50.734375 68.019531 " fill-opacity="1" fill-rule="nonzero"/></g><g clip-path="url(#e46fb71069)"><path fill="#100f0d" d="M 48.714844 41.515625 L 48.714844 68.796875 C 48.714844 69.007812 48.589844 69.195312 48.398438 69.285156 C 48.296875 69.332031 48.199219 69.382812 48.105469 69.441406 C 47.621094 69.742188 47.234375 70.160156 46.980469 70.65625 C 46.886719 70.835938 46.703125 70.949219 46.503906 70.949219 L 34.710938 70.949219 C 34.417969 70.949219 34.175781 70.707031 34.175781 70.414062 L 34.175781 41.515625 C 34.175781 41.21875 34.417969 40.980469 34.710938 40.980469 L 48.179688 40.980469 C 48.472656 40.980469 48.714844 41.21875 48.714844 41.515625 Z M 47.644531 68.472656 L 47.644531 42.050781 L 35.246094 42.050781 L 35.246094 69.878906 L 46.191406 69.878906 C 46.527344 69.335938 46.988281 68.875 47.535156 68.535156 C 47.570312 68.515625 47.605469 68.492188 47.644531 68.472656 Z M 47.644531 68.472656 " fill-opacity="1" fill-rule="nonzero"/></g><path fill="#100f0d" d="M 72.390625 46.730469 L 72.390625 52.246094 C 72.390625 53.527344 71.347656 54.574219 70.0625 54.574219 L 61.210938 54.574219 C 59.964844 54.574219 58.945312 53.601562 58.886719 52.355469 C 58.882812 52.3125 58.882812 52.273438 58.882812 52.246094 L 58.882812 46.730469 C 58.882812 44.460938 60.730469 42.613281 63.003906 42.613281 L 68.273438 42.613281 C 68.882812 42.613281 69.472656 42.742188 70.019531 43 C 71.460938 43.675781 72.390625 45.140625 72.390625 46.730469 Z M 59.953125 52.265625 C 59.957031 52.277344 59.957031 52.289062 59.957031 52.296875 C 59.984375 52.972656 60.535156 53.503906 61.210938 53.503906 L 70.066406 53.503906 C 70.757812 53.503906 71.320312 52.9375 71.320312 52.246094 L 71.320312 46.730469 C 71.320312 45.554688 70.628906 44.46875 69.5625 43.96875 C 69.160156 43.777344 68.726562 43.683594 68.273438 43.683594 L 63.003906 43.683594 C 61.320312 43.683594 59.953125 45.050781 59.953125 46.730469 L 59.953125 52.246094 C 59.953125 52.25 59.953125 52.257812 59.953125 52.265625 Z M 59.421875 52.320312 Z M 59.421875 52.320312 " fill-opacity="1" fill-rule="nonzero"/><path fill="#100f0d" d="M 67.648438 40.828125 L 67.648438 43.148438 C 67.648438 43.441406 67.40625 43.683594 67.113281 43.683594 L 64.230469 43.683594 C 63.9375 43.683594 63.695312 43.441406 63.695312 43.148438 L 63.695312 40.828125 C 63.695312 40.535156 63.9375 40.292969 64.230469 40.292969 L 67.113281 40.292969 C 67.40625 40.292969 67.648438 40.535156 67.648438 40.828125 Z M 66.578125 42.613281 L 66.578125 41.363281 L 64.765625 41.363281 L 64.765625 42.613281 Z M 66.578125 42.613281 " fill-opacity="1" fill-rule="nonzero"/><path fill="#100f0d" d="M 74.195312 42.328125 C 74.195312 42.40625 74.175781 42.480469 74.144531 42.554688 C 74.019531 42.820312 73.703125 42.9375 73.433594 42.816406 C 73.382812 42.792969 69.601562 41.074219 65.636719 41.074219 C 61.671875 41.074219 57.964844 42.796875 57.925781 42.8125 C 57.660156 42.9375 57.339844 42.824219 57.214844 42.558594 C 57.089844 42.289062 57.203125 41.972656 57.46875 41.84375 C 57.628906 41.769531 61.421875 40.003906 65.636719 40.003906 C 69.855469 40.003906 73.71875 41.769531 73.882812 41.84375 C 74.078125 41.933594 74.195312 42.128906 74.195312 42.328125 Z M 74.195312 42.328125 " fill-opacity="1" fill-rule="nonzero"/><path fill="#100f0d" d="M 59.953125 47.761719 C 59.953125 48.054688 59.714844 48.296875 59.417969 48.296875 L 57.480469 48.296875 L 57.480469 52.304688 C 57.480469 52.601562 57.242188 52.839844 56.945312 52.839844 C 56.652344 52.839844 56.410156 52.601562 56.410156 52.304688 L 56.410156 47.761719 C 56.410156 47.464844 56.652344 47.226562 56.945312 47.226562 L 59.417969 47.226562 C 59.714844 47.226562 59.953125 47.464844 59.953125 47.761719 Z M 59.953125 47.761719 " fill-opacity="1" fill-rule="nonzero"/><path fill="#100f0d" d="M 74.863281 47.761719 L 74.863281 52.304688 C 74.863281 52.601562 74.625 52.839844 74.328125 52.839844 C 74.03125 52.839844 73.792969 52.601562 73.792969 52.304688 L 73.792969 48.296875 L 71.855469 48.296875 C 71.558594 48.296875 71.320312 48.054688 71.320312 47.761719 C 71.320312 47.464844 71.558594 47.226562 71.855469 47.226562 L 74.328125 47.226562 C 74.625 47.226562 74.863281 47.464844 74.863281 47.761719 Z M 74.863281 47.761719 " fill-opacity="1" fill-rule="nonzero"/><g clip-path="url(#6ef44501fa)"><path fill="#100f0d" d="M 83.792969 53.101562 L 83.792969 73.5 C 83.792969 73.792969 83.554688 74.035156 83.257812 74.035156 L 53.117188 74.035156 C 52.941406 74.035156 52.773438 73.945312 52.671875 73.796875 C 52.574219 73.644531 52.554688 73.457031 52.625 73.292969 C 52.785156 72.910156 52.863281 72.503906 52.863281 72.09375 C 52.863281 71.585938 52.746094 71.101562 52.511719 70.65625 C 52.425781 70.488281 52.433594 70.289062 52.527344 70.128906 C 52.625 69.96875 52.800781 69.871094 52.988281 69.871094 L 79.632812 69.871094 L 79.632812 53.101562 C 79.632812 52.804688 79.871094 52.566406 80.167969 52.566406 L 83.257812 52.566406 C 83.554688 52.566406 83.792969 52.804688 83.792969 53.101562 Z M 82.722656 72.964844 L 82.722656 53.636719 L 80.703125 53.636719 L 80.703125 70.40625 C 80.703125 70.703125 80.460938 70.941406 80.167969 70.941406 L 53.773438 70.941406 C 53.960938 71.597656 53.984375 72.300781 53.84375 72.964844 Z M 82.722656 72.964844 " fill-opacity="1" fill-rule="nonzero"/></g><path fill="#100f0d" d="M 80.703125 56.941406 L 80.703125 70.40625 C 80.703125 70.703125 80.460938 70.941406 80.167969 70.941406 L 52.988281 70.941406 C 52.789062 70.941406 52.605469 70.832031 52.511719 70.65625 C 52.191406 70.042969 51.671875 69.546875 51.046875 69.257812 C 50.855469 69.171875 50.734375 68.980469 50.734375 68.769531 L 50.734375 56.941406 C 50.734375 56.644531 50.972656 56.40625 51.269531 56.40625 L 80.167969 56.40625 C 80.460938 56.40625 80.703125 56.644531 80.703125 56.941406 Z M 79.632812 69.871094 L 79.632812 57.476562 L 51.804688 57.476562 L 51.804688 68.445312 C 52.410156 68.789062 52.925781 69.28125 53.296875 69.871094 Z M 79.632812 69.871094 " fill-opacity="1" fill-rule="nonzero"/><g clip-path="url(#0cee8df8a9)"><path fill="#100f0d" d="M 53.933594 72.09375 C 53.933594 72.648438 53.828125 73.1875 53.613281 73.703125 C 53.523438 73.917969 53.417969 74.121094 53.300781 74.308594 C 52.867188 75.007812 52.242188 75.554688 51.492188 75.898438 C 50.949219 76.152344 50.359375 76.28125 49.746094 76.28125 C 49.117188 76.28125 48.515625 76.144531 47.949219 75.878906 C 47.015625 75.433594 46.28125 74.664062 45.878906 73.710938 C 45.667969 73.195312 45.558594 72.652344 45.558594 72.09375 C 45.558594 71.410156 45.71875 70.757812 46.03125 70.164062 C 46.371094 69.5 46.894531 68.9375 47.535156 68.535156 C 47.664062 68.453125 47.804688 68.378906 47.949219 68.3125 C 48.511719 68.042969 49.113281 67.90625 49.746094 67.90625 C 50.355469 67.90625 50.945312 68.03125 51.492188 68.285156 C 52.332031 68.671875 53.03125 69.335938 53.460938 70.160156 C 53.769531 70.753906 53.933594 71.421875 53.933594 72.09375 Z M 46.628906 72.09375 C 46.628906 72.507812 46.710938 72.914062 46.867188 73.296875 C 47.164062 74.007812 47.710938 74.582031 48.410156 74.910156 C 48.828125 75.109375 49.277344 75.210938 49.746094 75.210938 C 50.203125 75.210938 50.640625 75.117188 51.042969 74.925781 C 51.605469 74.671875 52.070312 74.261719 52.394531 73.742188 C 52.480469 73.605469 52.558594 73.453125 52.625 73.292969 C 52.785156 72.910156 52.863281 72.503906 52.863281 72.09375 C 52.863281 71.585938 52.746094 71.101562 52.511719 70.65625 C 52.191406 70.042969 51.671875 69.546875 51.046875 69.257812 C 50.640625 69.070312 50.203125 68.976562 49.746094 68.976562 C 49.277344 68.976562 48.828125 69.078125 48.410156 69.277344 C 48.40625 69.28125 48.402344 69.28125 48.398438 69.285156 C 48.296875 69.332031 48.199219 69.382812 48.105469 69.441406 C 47.621094 69.742188 47.234375 70.160156 46.980469 70.65625 C 46.746094 71.101562 46.628906 71.582031 46.628906 72.09375 Z M 46.628906 72.09375 " fill-opacity="1" fill-rule="nonzero"/></g><path fill="#100f0d" d="M 79.195312 84.835938 L 79.195312 89.945312 C 79.195312 90.539062 79.066406 91.109375 78.816406 91.640625 C 78.160156 93.039062 76.742188 93.941406 75.199219 93.941406 L 69.851562 93.941406 C 68.605469 93.941406 67.59375 92.929688 67.59375 91.6875 L 67.59375 83.097656 C 67.59375 81.886719 68.535156 80.902344 69.742188 80.84375 C 69.785156 80.839844 69.824219 80.839844 69.851562 80.839844 L 75.199219 80.839844 C 77.402344 80.839844 79.195312 82.632812 79.195312 84.835938 Z M 68.628906 91.6875 C 68.628906 92.355469 69.179688 92.902344 69.851562 92.902344 L 75.199219 92.902344 C 76.339844 92.902344 77.390625 92.234375 77.878906 91.199219 C 78.0625 90.808594 78.15625 90.386719 78.15625 89.945312 L 78.15625 84.835938 C 78.15625 83.203125 76.832031 81.878906 75.199219 81.878906 L 69.851562 81.878906 C 69.84375 81.878906 69.835938 81.878906 69.828125 81.878906 C 69.820312 81.878906 69.808594 81.878906 69.796875 81.878906 C 69.144531 81.90625 68.628906 82.441406 68.628906 83.097656 Z M 68.628906 91.6875 " fill-opacity="1" fill-rule="nonzero"/><path fill="#100f0d" d="M 81.445312 86.027344 L 81.445312 88.820312 C 81.445312 89.109375 81.210938 89.339844 80.925781 89.339844 L 78.675781 89.339844 C 78.390625 89.339844 78.15625 89.109375 78.15625 88.820312 L 78.15625 86.027344 C 78.15625 85.742188 78.390625 85.507812 78.675781 85.507812 L 80.925781 85.507812 C 81.210938 85.507812 81.445312 85.742188 81.445312 86.027344 Z M 80.40625 88.304688 L 80.40625 86.546875 L 79.195312 86.546875 L 79.195312 88.304688 Z M 80.40625 88.304688 " fill-opacity="1" fill-rule="nonzero"/><path fill="#100f0d" d="M 81.726562 87.390625 C 81.726562 91.480469 80.015625 95.234375 79.941406 95.390625 C 79.820312 95.652344 79.511719 95.765625 79.253906 95.644531 C 78.992188 95.523438 78.878906 95.214844 79 94.953125 C 79.019531 94.90625 80.6875 91.238281 80.6875 87.390625 C 80.6875 83.542969 79.015625 79.945312 79 79.910156 C 78.878906 79.652344 78.988281 79.34375 79.25 79.21875 C 79.507812 79.097656 79.816406 79.207031 79.9375 79.46875 C 80.011719 79.621094 81.726562 83.300781 81.726562 87.390625 Z M 81.726562 87.390625 " fill-opacity="1" fill-rule="nonzero"/><path fill="#100f0d" d="M 74.71875 78.960938 L 74.71875 81.359375 C 74.71875 81.644531 74.488281 81.878906 74.199219 81.878906 C 73.914062 81.878906 73.679688 81.644531 73.679688 81.359375 L 73.679688 79.480469 L 69.792969 79.480469 C 69.507812 79.480469 69.273438 79.246094 69.273438 78.960938 C 69.273438 78.671875 69.507812 78.441406 69.792969 78.441406 L 74.199219 78.441406 C 74.488281 78.441406 74.71875 78.671875 74.71875 78.960938 Z M 74.71875 78.960938 " fill-opacity="1" fill-rule="nonzero"/><path fill="#100f0d" d="M 74.71875 93.421875 L 74.71875 95.820312 C 74.71875 96.109375 74.488281 96.339844 74.199219 96.339844 L 69.792969 96.339844 C 69.507812 96.339844 69.273438 96.109375 69.273438 95.820312 C 69.273438 95.535156 69.507812 95.300781 69.792969 95.300781 L 73.679688 95.300781 L 73.679688 93.421875 C 73.679688 93.136719 73.914062 92.902344 74.199219 92.902344 C 74.488281 92.902344 74.71875 93.136719 74.71875 93.421875 Z M 74.71875 93.421875 " fill-opacity="1" fill-rule="nonzero"/><g clip-path="url(#bad51b5501)"><path fill="#100f0d" d="M 69.539062 101.488281 L 69.539062 104.484375 C 69.539062 104.773438 69.304688 105.003906 69.019531 105.003906 L 49.230469 105.003906 C 48.945312 105.003906 48.714844 104.773438 48.714844 104.484375 L 48.714844 75.292969 C 48.714844 75.117188 48.804688 74.949219 48.953125 74.855469 C 49.105469 74.757812 49.292969 74.746094 49.453125 74.824219 C 49.863281 75.015625 50.300781 75.113281 50.753906 75.113281 C 51.195312 75.113281 51.621094 75.023438 52.011719 74.839844 C 52.171875 74.765625 52.359375 74.777344 52.511719 74.871094 C 52.660156 74.96875 52.75 75.132812 52.75 75.308594 L 52.75 100.96875 L 69.019531 100.96875 C 69.304688 100.96875 69.539062 101.199219 69.539062 101.488281 Z M 68.5 103.964844 L 68.5 102.007812 L 52.230469 102.007812 C 51.945312 102.007812 51.710938 101.773438 51.710938 101.488281 L 51.710938 76.039062 C 51.402344 76.113281 51.082031 76.152344 50.753906 76.152344 C 50.410156 76.152344 50.078125 76.113281 49.75 76.03125 L 49.75 103.964844 Z M 68.5 103.964844 " fill-opacity="1" fill-rule="nonzero"/></g><path fill="#100f0d" d="M 65.8125 73.453125 L 65.8125 101.488281 C 65.8125 101.773438 65.582031 102.007812 65.296875 102.007812 L 52.230469 102.007812 C 51.945312 102.007812 51.710938 101.773438 51.710938 101.488281 L 51.710938 75.308594 C 51.710938 75.105469 51.832031 74.921875 52.015625 74.835938 C 52.554688 74.589844 53.007812 74.191406 53.324219 73.6875 C 53.40625 73.554688 53.480469 73.410156 53.546875 73.253906 C 53.625 73.058594 53.816406 72.933594 54.023438 72.933594 L 65.296875 72.933594 C 65.582031 72.933594 65.816406 73.167969 65.816406 73.453125 Z M 64.777344 100.96875 L 64.777344 73.972656 L 54.355469 73.972656 C 54.308594 74.066406 54.257812 74.152344 54.203125 74.238281 C 53.839844 74.820312 53.34375 75.292969 52.75 75.628906 L 52.75 100.96875 Z M 64.777344 100.96875 " fill-opacity="1" fill-rule="nonzero"/><g clip-path="url(#dab92907d4)"><path fill="#100f0d" d="M 49.75 75.292969 L 49.75 86.523438 C 49.75 86.808594 49.519531 87.042969 49.230469 87.042969 L 21.199219 87.042969 C 20.910156 87.042969 20.679688 86.808594 20.679688 86.523438 L 20.679688 73.457031 C 20.679688 73.171875 20.910156 72.9375 21.199219 72.9375 L 47.480469 72.9375 C 47.691406 72.9375 47.878906 73.066406 47.960938 73.257812 C 48.25 73.945312 48.78125 74.503906 49.457031 74.824219 C 49.636719 74.910156 49.75 75.09375 49.75 75.292969 Z M 48.714844 86.003906 L 48.714844 75.605469 C 48.050781 75.21875 47.507812 74.65625 47.152344 73.976562 L 21.71875 73.976562 L 21.71875 86.003906 Z M 48.714844 86.003906 " fill-opacity="1" fill-rule="nonzero"/></g><g clip-path="url(#cca9476e9e)"><path fill="#100f0d" d="M 52.75 39.425781 L 52.75 68.867188 C 52.75 69.042969 52.660156 69.210938 52.511719 69.304688 C 52.363281 69.398438 52.175781 69.414062 52.015625 69.339844 C 51.621094 69.15625 51.195312 69.066406 50.753906 69.066406 C 50.296875 69.066406 49.863281 69.164062 49.457031 69.359375 C 49.296875 69.4375 49.109375 69.425781 48.957031 69.332031 C 48.804688 69.238281 48.714844 69.070312 48.714844 68.890625 L 48.714844 42.945312 L 32.445312 42.945312 C 32.15625 42.945312 31.925781 42.710938 31.925781 42.425781 L 31.925781 39.425781 C 31.925781 39.140625 32.15625 38.90625 32.445312 38.90625 L 52.230469 38.90625 C 52.519531 38.90625 52.75 39.140625 52.75 39.425781 Z M 51.710938 68.140625 L 51.710938 39.945312 L 32.964844 39.945312 L 32.964844 41.90625 L 49.230469 41.90625 C 49.519531 41.90625 49.75 42.140625 49.75 42.425781 L 49.75 68.152344 C 50.074219 68.070312 50.410156 68.027344 50.753906 68.027344 C 51.082031 68.027344 51.402344 68.066406 51.710938 68.140625 Z M 51.710938 68.140625 " fill-opacity="1" fill-rule="nonzero"/></g><g clip-path="url(#cb48ec058b)"><path fill="#100f0d" d="M 49.75 42.425781 L 49.75 68.890625 C 49.75 69.097656 49.632812 69.28125 49.445312 69.363281 C 49.347656 69.410156 49.25 69.460938 49.160156 69.519531 C 48.691406 69.808594 48.316406 70.214844 48.070312 70.695312 C 47.980469 70.871094 47.800781 70.980469 47.609375 70.980469 L 36.167969 70.980469 C 35.882812 70.980469 35.648438 70.746094 35.648438 70.460938 L 35.648438 42.425781 C 35.648438 42.140625 35.882812 41.90625 36.167969 41.90625 L 49.234375 41.90625 C 49.519531 41.90625 49.75 42.140625 49.75 42.425781 Z M 48.714844 68.574219 L 48.714844 42.945312 L 36.6875 42.945312 L 36.6875 69.941406 L 47.304688 69.941406 C 47.632812 69.414062 48.078125 68.96875 48.609375 68.640625 C 48.644531 68.617188 48.679688 68.597656 48.714844 68.574219 Z M 48.714844 68.574219 " fill-opacity="1" fill-rule="nonzero"/></g><path fill="#100f0d" d="M 72.71875 47.484375 L 72.71875 52.835938 C 72.71875 54.078125 71.707031 55.09375 70.464844 55.09375 L 61.875 55.09375 C 60.667969 55.09375 59.679688 54.148438 59.621094 52.945312 C 59.617188 52.898438 59.617188 52.863281 59.617188 52.835938 L 59.617188 47.484375 C 59.617188 45.28125 61.410156 43.492188 63.613281 43.492188 L 68.726562 43.492188 C 69.316406 43.492188 69.890625 43.617188 70.421875 43.867188 C 71.816406 44.523438 72.71875 45.945312 72.71875 47.484375 Z M 60.65625 52.855469 C 60.65625 52.867188 60.660156 52.875 60.660156 52.886719 C 60.6875 53.542969 61.21875 54.054688 61.875 54.054688 L 70.464844 54.054688 C 71.136719 54.054688 71.683594 53.507812 71.683594 52.835938 L 71.683594 47.484375 C 71.683594 46.34375 71.011719 45.292969 69.980469 44.808594 C 69.585938 44.621094 69.164062 44.527344 68.726562 44.527344 L 63.613281 44.527344 C 61.984375 44.527344 60.65625 45.855469 60.65625 47.484375 L 60.65625 52.835938 C 60.65625 52.84375 60.65625 52.847656 60.65625 52.855469 Z M 60.140625 52.90625 Z M 60.140625 52.90625 " fill-opacity="1" fill-rule="nonzero"/><path fill="#100f0d" d="M 68.121094 41.761719 L 68.121094 44.007812 C 68.121094 44.296875 67.886719 44.527344 67.601562 44.527344 L 64.804688 44.527344 C 64.519531 44.527344 64.285156 44.296875 64.285156 44.007812 L 64.285156 41.761719 C 64.285156 41.472656 64.519531 41.242188 64.804688 41.242188 L 67.601562 41.242188 C 67.886719 41.242188 68.121094 41.472656 68.121094 41.761719 Z M 67.082031 43.492188 L 67.082031 42.28125 L 65.324219 42.28125 L 65.324219 43.492188 Z M 67.082031 43.492188 " fill-opacity="1" fill-rule="nonzero"/><path fill="#100f0d" d="M 74.46875 43.214844 C 74.46875 43.289062 74.453125 43.363281 74.421875 43.433594 C 74.300781 43.695312 73.992188 43.808594 73.734375 43.6875 C 73.683594 43.664062 70.015625 41.996094 66.167969 41.996094 C 62.320312 41.996094 58.726562 43.667969 58.6875 43.683594 C 58.429688 43.808594 58.121094 43.695312 58 43.4375 C 57.875 43.175781 57.988281 42.867188 58.246094 42.746094 C 58.402344 42.671875 62.078125 40.957031 66.167969 40.957031 C 70.257812 40.957031 74.011719 42.671875 74.167969 42.746094 C 74.359375 42.832031 74.46875 43.019531 74.46875 43.214844 Z M 74.46875 43.214844 " fill-opacity="1" fill-rule="nonzero"/><path fill="#100f0d" d="M 60.65625 48.484375 C 60.65625 48.773438 60.425781 49.003906 60.136719 49.003906 L 58.257812 49.003906 L 58.257812 52.894531 C 58.257812 53.179688 58.023438 53.410156 57.738281 53.410156 C 57.453125 53.410156 57.21875 53.179688 57.21875 52.894531 L 57.21875 48.484375 C 57.21875 48.199219 57.453125 47.964844 57.738281 47.964844 L 60.136719 47.964844 C 60.425781 47.964844 60.65625 48.199219 60.65625 48.484375 Z M 60.65625 48.484375 " fill-opacity="1" fill-rule="nonzero"/><path fill="#100f0d" d="M 75.117188 48.484375 L 75.117188 52.894531 C 75.117188 53.179688 74.886719 53.410156 74.601562 53.410156 C 74.3125 53.410156 74.082031 53.179688 74.082031 52.894531 L 74.082031 49.003906 L 72.199219 49.003906 C 71.914062 49.003906 71.683594 48.773438 71.683594 48.484375 C 71.683594 48.199219 71.914062 47.964844 72.199219 47.964844 L 74.601562 47.964844 C 74.886719 47.964844 75.117188 48.199219 75.117188 48.484375 Z M 75.117188 48.484375 " fill-opacity="1" fill-rule="nonzero"/><g clip-path="url(#c8ba2ede5d)"><path fill="#100f0d" d="M 83.78125 53.667969 L 83.78125 73.453125 C 83.78125 73.738281 83.550781 73.972656 83.265625 73.972656 L 54.023438 73.972656 C 53.851562 73.972656 53.691406 73.886719 53.59375 73.742188 C 53.496094 73.597656 53.480469 73.414062 53.546875 73.253906 C 53.699219 72.882812 53.777344 72.488281 53.777344 72.089844 C 53.777344 71.597656 53.664062 71.128906 53.4375 70.695312 C 53.351562 70.535156 53.359375 70.339844 53.453125 70.183594 C 53.546875 70.03125 53.714844 69.933594 53.898438 69.933594 L 79.746094 69.933594 L 79.746094 53.664062 C 79.746094 53.378906 79.976562 53.148438 80.265625 53.148438 L 83.265625 53.148438 C 83.550781 53.148438 83.78125 53.378906 83.78125 53.664062 Z M 82.746094 72.933594 L 82.746094 54.183594 L 80.785156 54.183594 L 80.785156 70.453125 C 80.785156 70.742188 80.550781 70.972656 80.265625 70.972656 L 54.660156 70.972656 C 54.839844 71.609375 54.863281 72.292969 54.726562 72.933594 Z M 82.746094 72.933594 " fill-opacity="1" fill-rule="nonzero"/></g><path fill="#100f0d" d="M 80.785156 57.390625 L 80.785156 70.453125 C 80.785156 70.742188 80.550781 70.972656 80.265625 70.972656 L 53.898438 70.972656 C 53.703125 70.972656 53.527344 70.867188 53.4375 70.695312 C 53.125 70.101562 52.621094 69.617188 52.015625 69.339844 C 51.832031 69.253906 51.710938 69.070312 51.710938 68.867188 L 51.710938 57.390625 C 51.710938 57.101562 51.945312 56.871094 52.230469 56.871094 L 80.265625 56.871094 C 80.550781 56.871094 80.785156 57.101562 80.785156 57.390625 Z M 79.746094 69.933594 L 79.746094 57.910156 L 52.75 57.910156 L 52.75 68.550781 C 53.335938 68.882812 53.835938 69.363281 54.199219 69.933594 Z M 79.746094 69.933594 " fill-opacity="1" fill-rule="nonzero"/><g clip-path="url(#962ccf6b7e)"><path fill="#100f0d" d="M 54.816406 72.089844 C 54.816406 72.628906 54.710938 73.152344 54.503906 73.652344 C 54.417969 73.863281 54.316406 74.058594 54.203125 74.238281 C 53.78125 74.914062 53.171875 75.449219 52.445312 75.78125 C 51.921875 76.027344 51.347656 76.152344 50.753906 76.152344 C 50.144531 76.152344 49.558594 76.023438 49.011719 75.761719 C 48.101562 75.332031 47.390625 74.585938 47.003906 73.660156 C 46.796875 73.160156 46.691406 72.632812 46.691406 72.089844 C 46.691406 71.425781 46.84375 70.796875 47.148438 70.21875 C 47.480469 69.574219 47.984375 69.027344 48.609375 68.640625 C 48.734375 68.558594 48.871094 68.488281 49.011719 68.421875 C 49.554688 68.160156 50.140625 68.027344 50.753906 68.027344 C 51.347656 68.027344 51.917969 68.152344 52.449219 68.394531 C 53.261719 68.769531 53.941406 69.417969 54.355469 70.214844 C 54.65625 70.789062 54.816406 71.4375 54.816406 72.089844 Z M 47.730469 72.089844 C 47.730469 72.492188 47.808594 72.886719 47.960938 73.257812 C 48.25 73.945312 48.78125 74.503906 49.457031 74.824219 C 49.863281 75.015625 50.300781 75.113281 50.753906 75.113281 C 51.195312 75.113281 51.621094 75.023438 52.011719 74.839844 C 52.554688 74.589844 53.007812 74.191406 53.324219 73.6875 C 53.40625 73.554688 53.480469 73.410156 53.546875 73.253906 C 53.699219 72.882812 53.777344 72.488281 53.777344 72.089844 C 53.777344 71.597656 53.664062 71.128906 53.4375 70.695312 C 53.125 70.101562 52.621094 69.617188 52.015625 69.339844 C 51.621094 69.15625 51.195312 69.066406 50.753906 69.066406 C 50.296875 69.066406 49.863281 69.164062 49.457031 69.359375 C 49.453125 69.359375 49.449219 69.363281 49.445312 69.363281 C 49.347656 69.410156 49.25 69.460938 49.160156 69.519531 C 48.691406 69.808594 48.316406 70.214844 48.070312 70.695312 C 47.84375 71.128906 47.730469 71.597656 47.730469 72.089844 Z M 47.730469 72.089844 " fill-opacity="1" fill-rule="nonzero"/></g><path fill="#100f0d" d="M 79.195312 85.851562 L 79.195312 90.960938 C 79.195312 91.554688 79.066406 92.125 78.816406 92.65625 C 78.160156 94.054688 76.742188 94.957031 75.199219 94.957031 L 69.851562 94.957031 C 68.605469 94.957031 67.59375 93.945312 67.59375 92.703125 L 67.59375 84.113281 C 67.59375 82.902344 68.535156 81.917969 69.742188 81.859375 C 69.785156 81.855469 69.824219 81.855469 69.851562 81.855469 L 75.199219 81.855469 C 77.402344 81.855469 79.195312 83.648438 79.195312 85.851562 Z M 68.628906 92.703125 C 68.628906 93.371094 69.179688 93.917969 69.851562 93.917969 L 75.199219 93.917969 C 76.339844 93.917969 77.390625 93.25 77.878906 92.214844 C 78.0625 91.824219 78.15625 91.402344 78.15625 90.960938 L 78.15625 85.851562 C 78.15625 84.21875 76.832031 82.894531 75.199219 82.894531 L 69.851562 82.894531 C 69.84375 82.894531 69.835938 82.894531 69.828125 82.894531 C 69.820312 82.894531 69.808594 82.894531 69.796875 82.894531 C 69.144531 82.921875 68.628906 83.457031 68.628906 84.113281 Z M 68.628906 92.703125 " fill-opacity="1" fill-rule="nonzero"/><path fill="#100f0d" d="M 81.445312 87.042969 L 81.445312 89.835938 C 81.445312 90.125 81.210938 90.355469 80.925781 90.355469 L 78.675781 90.355469 C 78.390625 90.355469 78.15625 90.125 78.15625 89.835938 L 78.15625 87.042969 C 78.15625 86.757812 78.390625 86.523438 78.675781 86.523438 L 80.925781 86.523438 C 81.210938 86.523438 81.445312 86.757812 81.445312 87.042969 Z M 80.40625 89.316406 L 80.40625 87.5625 L 79.195312 87.5625 L 79.195312 89.316406 Z M 80.40625 89.316406 " fill-opacity="1" fill-rule="nonzero"/><path fill="#100f0d" d="M 81.726562 88.40625 C 81.726562 92.496094 80.015625 96.246094 79.941406 96.40625 C 79.820312 96.664062 79.511719 96.777344 79.253906 96.660156 C 78.992188 96.539062 78.878906 96.230469 79 95.96875 C 79.019531 95.921875 80.6875 92.253906 80.6875 88.40625 C 80.6875 84.558594 79.015625 80.960938 79 80.925781 C 78.878906 80.667969 78.988281 80.355469 79.25 80.234375 C 79.507812 80.113281 79.816406 80.222656 79.9375 80.484375 C 80.011719 80.636719 81.726562 84.316406 81.726562 88.40625 Z M 81.726562 88.40625 " fill-opacity="1" fill-rule="nonzero"/><path fill="#100f0d" d="M 74.71875 79.976562 L 74.71875 82.375 C 74.71875 82.660156 74.488281 82.894531 74.199219 82.894531 C 73.914062 82.894531 73.679688 82.660156 73.679688 82.375 L 73.679688 80.496094 L 69.792969 80.496094 C 69.507812 80.496094 69.273438 80.261719 69.273438 79.976562 C 69.273438 79.6875 69.507812 79.457031 69.792969 79.457031 L 74.199219 79.457031 C 74.488281 79.457031 74.71875 79.6875 74.71875 79.976562 Z M 74.71875 79.976562 " fill-opacity="1" fill-rule="nonzero"/><path fill="#100f0d" d="M 74.71875 94.4375 L 74.71875 96.835938 C 74.71875 97.125 74.488281 97.355469 74.199219 97.355469 L 69.792969 97.355469 C 69.507812 97.355469 69.273438 97.125 69.273438 96.835938 C 69.273438 96.550781 69.507812 96.316406 69.792969 96.316406 L 73.679688 96.316406 L 73.679688 94.4375 C 73.679688 94.152344 73.914062 93.917969 74.199219 93.917969 C 74.488281 93.917969 74.71875 94.152344 74.71875 94.4375 Z M 74.71875 94.4375 " fill-opacity="1" fill-rule="nonzero"/><g clip-path="url(#d343960fd1)"><path fill="#100f0d" d="M 69.539062 102.503906 L 69.539062 105.5 C 69.539062 105.789062 69.304688 106.019531 69.019531 106.019531 L 49.230469 106.019531 C 48.945312 106.019531 48.714844 105.789062 48.714844 105.5 L 48.714844 76.308594 C 48.714844 76.128906 48.804688 75.964844 48.953125 75.871094 C 49.105469 75.773438 49.292969 75.761719 49.453125 75.839844 C 49.863281 76.03125 50.300781 76.128906 50.753906 76.128906 C 51.195312 76.128906 51.621094 76.039062 52.011719 75.855469 C 52.171875 75.78125 52.359375 75.792969 52.511719 75.886719 C 52.660156 75.980469 52.75 76.148438 52.75 76.324219 L 52.75 101.984375 L 69.019531 101.984375 C 69.304688 101.984375 69.539062 102.214844 69.539062 102.503906 Z M 68.5 104.980469 L 68.5 103.019531 L 52.230469 103.019531 C 51.945312 103.019531 51.710938 102.789062 51.710938 102.503906 L 51.710938 77.054688 C 51.402344 77.128906 51.082031 77.167969 50.753906 77.167969 C 50.410156 77.167969 50.078125 77.125 49.75 77.042969 L 49.75 104.980469 Z M 68.5 104.980469 " fill-opacity="1" fill-rule="nonzero"/></g><path fill="#100f0d" d="M 65.8125 74.46875 L 65.8125 102.503906 C 65.8125 102.789062 65.582031 103.019531 65.296875 103.019531 L 52.230469 103.019531 C 51.945312 103.019531 51.710938 102.789062 51.710938 102.503906 L 51.710938 76.324219 C 51.710938 76.121094 51.832031 75.9375 52.015625 75.851562 C 52.554688 75.605469 53.007812 75.207031 53.324219 74.703125 C 53.40625 74.570312 53.480469 74.425781 53.546875 74.269531 C 53.625 74.074219 53.816406 73.949219 54.023438 73.949219 L 65.296875 73.949219 C 65.582031 73.949219 65.816406 74.179688 65.816406 74.46875 Z M 64.777344 101.984375 L 64.777344 74.988281 L 54.355469 74.988281 C 54.308594 75.078125 54.257812 75.167969 54.203125 75.253906 C 53.839844 75.835938 53.34375 76.308594 52.75 76.644531 L 52.75 101.984375 Z M 64.777344 101.984375 " fill-opacity="1" fill-rule="nonzero"/><g clip-path="url(#1aea1db4f0)"><path fill="#100f0d" d="M 49.75 76.308594 L 49.75 87.539062 C 49.75 87.824219 49.519531 88.058594 49.230469 88.058594 L 21.199219 88.058594 C 20.910156 88.058594 20.679688 87.824219 20.679688 87.539062 L 20.679688 74.472656 C 20.679688 74.1875 20.910156 73.953125 21.199219 73.953125 L 47.480469 73.953125 C 47.691406 73.953125 47.878906 74.082031 47.960938 74.273438 C 48.25 74.960938 48.78125 75.519531 49.457031 75.839844 C 49.636719 75.925781 49.75 76.109375 49.75 76.308594 Z M 48.714844 87.019531 L 48.714844 76.621094 C 48.050781 76.234375 47.507812 75.671875 47.152344 74.992188 L 21.71875 74.992188 L 21.71875 87.019531 Z M 48.714844 87.019531 " fill-opacity="1" fill-rule="nonzero"/></g><g clip-path="url(#2ebff20cf7)"><path fill="#100f0d" d="M 52.75 40.441406 L 52.75 69.882812 C 52.75 70.058594 52.660156 70.222656 52.511719 70.320312 C 52.363281 70.414062 52.175781 70.429688 52.015625 70.355469 C 51.621094 70.171875 51.195312 70.078125 50.753906 70.078125 C 50.296875 70.078125 49.863281 70.179688 49.457031 70.375 C 49.296875 70.453125 49.109375 70.441406 48.957031 70.347656 C 48.804688 70.253906 48.714844 70.085938 48.714844 69.90625 L 48.714844 43.960938 L 32.445312 43.960938 C 32.15625 43.960938 31.925781 43.726562 31.925781 43.441406 L 31.925781 40.441406 C 31.925781 40.15625 32.15625 39.921875 32.445312 39.921875 L 52.230469 39.921875 C 52.519531 39.921875 52.75 40.15625 52.75 40.441406 Z M 51.710938 69.15625 L 51.710938 40.960938 L 32.964844 40.960938 L 32.964844 42.921875 L 49.230469 42.921875 C 49.519531 42.921875 49.75 43.15625 49.75 43.441406 L 49.75 69.167969 C 50.074219 69.082031 50.410156 69.042969 50.753906 69.042969 C 51.082031 69.042969 51.402344 69.078125 51.710938 69.15625 Z M 51.710938 69.15625 " fill-opacity="1" fill-rule="nonzero"/></g><g clip-path="url(#6539da44c3)"><path fill="#100f0d" d="M 49.75 43.441406 L 49.75 69.90625 C 49.75 70.109375 49.632812 70.296875 49.445312 70.378906 C 49.347656 70.425781 49.25 70.476562 49.160156 70.535156 C 48.691406 70.824219 48.316406 71.230469 48.070312 71.710938 C 47.980469 71.886719 47.800781 71.992188 47.609375 71.992188 L 36.167969 71.992188 C 35.882812 71.992188 35.648438 71.761719 35.648438 71.476562 L 35.648438 43.441406 C 35.648438 43.15625 35.882812 42.921875 36.167969 42.921875 L 49.234375 42.921875 C 49.519531 42.921875 49.75 43.15625 49.75 43.441406 Z M 48.714844 69.589844 L 48.714844 43.960938 L 36.6875 43.960938 L 36.6875 70.957031 L 47.304688 70.957031 C 47.632812 70.429688 48.078125 69.984375 48.609375 69.65625 C 48.644531 69.632812 48.679688 69.613281 48.714844 69.589844 Z M 48.714844 69.589844 " fill-opacity="1" fill-rule="nonzero"/></g><path fill="#100f0d" d="M 72.71875 48.5 L 72.71875 53.851562 C 72.71875 55.09375 71.707031 56.109375 70.464844 56.109375 L 61.875 56.109375 C 60.667969 56.109375 59.679688 55.164062 59.621094 53.960938 C 59.617188 53.914062 59.617188 53.878906 59.617188 53.851562 L 59.617188 48.5 C 59.617188 46.296875 61.410156 44.507812 63.613281 44.507812 L 68.726562 44.507812 C 69.316406 44.507812 69.890625 44.632812 70.421875 44.882812 C 71.816406 45.539062 72.71875 46.960938 72.71875 48.5 Z M 60.65625 53.871094 C 60.65625 53.882812 60.660156 53.890625 60.660156 53.902344 C 60.6875 54.558594 61.21875 55.070312 61.875 55.070312 L 70.464844 55.070312 C 71.136719 55.070312 71.683594 54.523438 71.683594 53.851562 L 71.683594 48.5 C 71.683594 47.359375 71.011719 46.308594 69.980469 45.820312 C 69.585938 45.636719 69.164062 45.542969 68.726562 45.542969 L 63.613281 45.542969 C 61.984375 45.542969 60.65625 46.871094 60.65625 48.5 L 60.65625 53.851562 C 60.65625 53.855469 60.65625 53.863281 60.65625 53.871094 Z M 60.140625 53.921875 Z M 60.140625 53.921875 " fill-opacity="1" fill-rule="nonzero"/><path fill="#100f0d" d="M 68.121094 42.777344 L 68.121094 45.023438 C 68.121094 45.3125 67.886719 45.542969 67.601562 45.542969 L 64.804688 45.542969 C 64.519531 45.542969 64.285156 45.3125 64.285156 45.023438 L 64.285156 42.777344 C 64.285156 42.488281 64.519531 42.257812 64.804688 42.257812 L 67.601562 42.257812 C 67.886719 42.257812 68.121094 42.488281 68.121094 42.777344 Z M 67.082031 44.507812 L 67.082031 43.296875 L 65.324219 43.296875 L 65.324219 44.507812 Z M 67.082031 44.507812 " fill-opacity="1" fill-rule="nonzero"/><path fill="#100f0d" d="M 74.46875 44.230469 C 74.46875 44.304688 74.453125 44.378906 74.421875 44.449219 C 74.300781 44.707031 73.992188 44.824219 73.734375 44.703125 C 73.683594 44.679688 70.015625 43.011719 66.167969 43.011719 C 62.320312 43.011719 58.726562 44.683594 58.6875 44.699219 C 58.429688 44.824219 58.121094 44.710938 58 44.453125 C 57.875 44.191406 57.988281 43.882812 58.246094 43.761719 C 58.402344 43.6875 62.078125 41.972656 66.167969 41.972656 C 70.257812 41.972656 74.011719 43.6875 74.167969 43.757812 C 74.359375 43.847656 74.46875 44.035156 74.46875 44.230469 Z M 74.46875 44.230469 " fill-opacity="1" fill-rule="nonzero"/><path fill="#100f0d" d="M 60.65625 49.5 C 60.65625 49.789062 60.425781 50.019531 60.136719 50.019531 L 58.257812 50.019531 L 58.257812 53.90625 C 58.257812 54.195312 58.023438 54.425781 57.738281 54.425781 C 57.453125 54.425781 57.21875 54.195312 57.21875 53.90625 L 57.21875 49.5 C 57.21875 49.214844 57.453125 48.980469 57.738281 48.980469 L 60.136719 48.980469 C 60.425781 48.980469 60.65625 49.214844 60.65625 49.5 Z M 60.65625 49.5 " fill-opacity="1" fill-rule="nonzero"/><path fill="#100f0d" d="M 75.117188 49.5 L 75.117188 53.90625 C 75.117188 54.195312 74.886719 54.425781 74.601562 54.425781 C 74.3125 54.425781 74.082031 54.195312 74.082031 53.90625 L 74.082031 50.019531 L 72.199219 50.019531 C 71.914062 50.019531 71.683594 49.789062 71.683594 49.5 C 71.683594 49.214844 71.914062 48.980469 72.199219 48.980469 L 74.601562 48.980469 C 74.886719 48.980469 75.117188 49.214844 75.117188 49.5 Z M 75.117188 49.5 " fill-opacity="1" fill-rule="nonzero"/><g clip-path="url(#69fc3cc046)"><path fill="#100f0d" d="M 83.78125 54.679688 L 83.78125 74.46875 C 83.78125 74.753906 83.550781 74.988281 83.265625 74.988281 L 54.023438 74.988281 C 53.851562 74.988281 53.691406 74.902344 53.59375 74.757812 C 53.496094 74.613281 53.480469 74.429688 53.546875 74.269531 C 53.699219 73.898438 53.777344 73.503906 53.777344 73.105469 C 53.777344 72.613281 53.664062 72.144531 53.4375 71.710938 C 53.351562 71.546875 53.359375 71.355469 53.453125 71.199219 C 53.546875 71.046875 53.714844 70.949219 53.898438 70.949219 L 79.746094 70.949219 L 79.746094 54.679688 C 79.746094 54.394531 79.976562 54.160156 80.265625 54.160156 L 83.265625 54.160156 C 83.550781 54.160156 83.78125 54.394531 83.78125 54.679688 Z M 82.746094 73.949219 L 82.746094 55.199219 L 80.785156 55.199219 L 80.785156 71.46875 C 80.785156 71.757812 80.550781 71.988281 80.265625 71.988281 L 54.660156 71.988281 C 54.839844 72.625 54.863281 73.308594 54.726562 73.949219 Z M 82.746094 73.949219 " fill-opacity="1" fill-rule="nonzero"/></g><path fill="#100f0d" d="M 80.785156 58.40625 L 80.785156 71.46875 C 80.785156 71.757812 80.550781 71.988281 80.265625 71.988281 L 53.898438 71.988281 C 53.703125 71.988281 53.527344 71.882812 53.4375 71.710938 C 53.125 71.113281 52.621094 70.632812 52.015625 70.355469 C 51.832031 70.269531 51.710938 70.085938 51.710938 69.882812 L 51.710938 58.40625 C 51.710938 58.117188 51.945312 57.886719 52.230469 57.886719 L 80.265625 57.886719 C 80.550781 57.886719 80.785156 58.117188 80.785156 58.40625 Z M 79.746094 70.949219 L 79.746094 58.925781 L 52.75 58.925781 L 52.75 69.566406 C 53.335938 69.898438 53.835938 70.378906 54.199219 70.949219 Z M 79.746094 70.949219 " fill-opacity="1" fill-rule="nonzero"/><g clip-path="url(#f71c96240e)"><path fill="#100f0d" d="M 54.816406 73.105469 C 54.816406 73.644531 54.710938 74.167969 54.503906 74.667969 C 54.417969 74.878906 54.316406 75.074219 54.203125 75.253906 C 53.78125 75.929688 53.171875 76.464844 52.445312 76.796875 C 51.921875 77.042969 51.347656 77.167969 50.753906 77.167969 C 50.144531 77.167969 49.558594 77.035156 49.011719 76.777344 C 48.101562 76.347656 47.390625 75.597656 47.003906 74.675781 C 46.796875 74.175781 46.691406 73.644531 46.691406 73.105469 C 46.691406 72.441406 46.84375 71.8125 47.148438 71.234375 C 47.480469 70.589844 47.984375 70.042969 48.609375 69.65625 C 48.734375 69.574219 48.871094 69.5 49.011719 69.4375 C 49.554688 69.175781 50.140625 69.042969 50.753906 69.042969 C 51.347656 69.042969 51.917969 69.167969 52.449219 69.410156 C 53.261719 69.785156 53.941406 70.433594 54.355469 71.230469 C 54.65625 71.804688 54.816406 72.453125 54.816406 73.105469 Z M 47.730469 73.105469 C 47.730469 73.507812 47.808594 73.902344 47.960938 74.273438 C 48.25 74.960938 48.78125 75.519531 49.457031 75.839844 C 49.863281 76.03125 50.300781 76.128906 50.753906 76.128906 C 51.195312 76.128906 51.621094 76.039062 52.011719 75.855469 C 52.554688 75.605469 53.007812 75.207031 53.324219 74.703125 C 53.40625 74.570312 53.480469 74.425781 53.546875 74.269531 C 53.699219 73.898438 53.777344 73.503906 53.777344 73.105469 C 53.777344 72.613281 53.664062 72.144531 53.4375 71.710938 C 53.125 71.113281 52.621094 70.632812 52.015625 70.355469 C 51.621094 70.171875 51.195312 70.078125 50.753906 70.078125 C 50.296875 70.078125 49.863281 70.179688 49.457031 70.375 C 49.453125 70.375 49.449219 70.378906 49.445312 70.378906 C 49.347656 70.425781 49.25 70.476562 49.160156 70.535156 C 48.691406 70.824219 48.316406 71.230469 48.070312 71.710938 C 47.84375 72.144531 47.730469 72.609375 47.730469 73.105469 Z M 47.730469 73.105469 " fill-opacity="1" fill-rule="nonzero"/></g><g fill="#01703a" fill-opacity="1"><g transform="translate(34.810044, 126.464993)"><g><path d="M 10.15625 -106.984375 L 37.3125 -106.984375 C 43.25 -106.984375 48.6875 -106.085938 53.625 -104.296875 C 58.5625 -102.515625 62.492188 -99.660156 65.421875 -95.734375 C 68.347656 -91.804688 69.8125 -86.59375 69.8125 -80.09375 L 69.8125 -77.359375 C 69.8125 -71.316406 68.320312 -66.535156 65.34375 -63.015625 C 62.375 -59.503906 58.5625 -56.925781 53.90625 -55.28125 C 59.300781 -53.632812 63.757812 -50.890625 67.28125 -47.046875 C 70.800781 -43.203125 72.5625 -37.851562 72.5625 -31 L 72.5625 -28.25 C 72.5625 -21.488281 71.050781 -16.023438 68.03125 -11.859375 C 65.007812 -7.703125 61.003906 -4.6875 56.015625 -2.8125 C 51.035156 -0.9375 45.53125 0 39.5 0 L 10.15625 0 Z M 40.1875 -50.46875 L 20.03125 -50.46875 L 20.03125 -8.921875 L 40.1875 -8.921875 C 44.207031 -8.921875 47.910156 -9.601562 51.296875 -10.96875 C 54.679688 -12.34375 57.378906 -14.46875 59.390625 -17.34375 C 61.398438 -20.226562 62.40625 -24.003906 62.40625 -28.671875 L 62.40625 -30.71875 C 62.40625 -35.382812 61.398438 -39.179688 59.390625 -42.109375 C 57.378906 -45.035156 54.679688 -47.160156 51.296875 -48.484375 C 47.910156 -49.804688 44.207031 -50.46875 40.1875 -50.46875 Z M 37.71875 -98.0625 L 20.03125 -98.0625 L 20.03125 -59.390625 L 37.71875 -59.390625 C 41.738281 -59.390625 45.394531 -59.984375 48.6875 -61.171875 C 51.976562 -62.359375 54.628906 -64.300781 56.640625 -67 C 58.648438 -69.695312 59.65625 -73.238281 59.65625 -77.625 L 59.65625 -79.828125 C 59.65625 -84.304688 58.648438 -87.867188 56.640625 -90.515625 C 54.628906 -93.171875 51.976562 -95.09375 48.6875 -96.28125 C 45.394531 -97.46875 41.738281 -98.0625 37.71875 -98.0625 Z M 37.71875 -98.0625 "/></g></g></g></svg>