<svg xmlns="http://www.w3.org/2000/svg" xmlns:xlink="http://www.w3.org/1999/xlink" width="230" zoomAndPan="magnify" viewBox="0 0 172.5 37.5" height="50" preserveAspectRatio="xMidYMid meet" version="1.0"><defs><g/><clipPath id="5b7700cefd"><path d="M 100 17 L 103.945312 17 L 103.945312 21 L 100 21 Z M 100 17 " clip-rule="nonzero"/></clipPath><clipPath id="5bd8597fe2"><path d="M 102 18 L 103.945312 18 L 103.945312 20 L 102 20 Z M 102 18 " clip-rule="nonzero"/></clipPath><clipPath id="3aecc7da33"><path d="M 103 17 L 103.945312 17 L 103.945312 21 L 103 21 Z M 103 17 " clip-rule="nonzero"/></clipPath><clipPath id="bdfbbba799"><path d="M 97.292969 16 L 102 16 L 102 22.398438 L 97.292969 22.398438 Z M 97.292969 16 " clip-rule="nonzero"/></clipPath><clipPath id="dc4cfdbad5"><path d="M 97.292969 16 L 101 16 L 101 22 L 97.292969 22 Z M 97.292969 16 " clip-rule="nonzero"/></clipPath><clipPath id="4895400911"><path d="M 97.292969 15 L 98 15 L 98 20 L 97.292969 20 Z M 97.292969 15 " clip-rule="nonzero"/></clipPath><clipPath id="77c0d398b5"><path d="M 97.292969 16 L 98 16 L 98 20 L 97.292969 20 Z M 97.292969 16 " clip-rule="nonzero"/></clipPath><clipPath id="703390c3d3"><path d="M 97.292969 9.976562 L 99 9.976562 L 99 16 L 97.292969 16 Z M 97.292969 9.976562 " clip-rule="nonzero"/></clipPath><clipPath id="d81e0bdb12"><path d="M 97.292969 10 L 98 10 L 98 17 L 97.292969 17 Z M 97.292969 10 " clip-rule="nonzero"/></clipPath><clipPath id="47f55ddd0f"><path d="M 98 12 L 103.945312 12 L 103.945312 17 L 98 17 Z M 98 12 " clip-rule="nonzero"/></clipPath><clipPath id="36c797be52"><path d="M 97.292969 13 L 103.945312 13 L 103.945312 17 L 97.292969 17 Z M 97.292969 13 " clip-rule="nonzero"/></clipPath><clipPath id="44cce73237"><path d="M 97.292969 15 L 99 15 L 99 17 L 97.292969 17 Z M 97.292969 15 " clip-rule="nonzero"/></clipPath><clipPath id="53607d74ea"><path d="M 101 17 L 103.871094 17 L 103.871094 21 L 101 21 Z M 101 17 " clip-rule="nonzero"/></clipPath><clipPath id="56402dbca0"><path d="M 102 18 L 103.871094 18 L 103.871094 20 L 102 20 Z M 102 18 " clip-rule="nonzero"/></clipPath><clipPath id="5a5ae58798"><path d="M 103 17 L 103.871094 17 L 103.871094 21 L 103 21 Z M 103 17 " clip-rule="nonzero"/></clipPath><clipPath id="39cf48021b"><path d="M 97.492188 16 L 102 16 L 102 22.210938 L 97.492188 22.210938 Z M 97.492188 16 " clip-rule="nonzero"/></clipPath><clipPath id="8141a274d6"><path d="M 97.492188 15 L 98 15 L 98 20 L 97.492188 20 Z M 97.492188 15 " clip-rule="nonzero"/></clipPath><clipPath id="50c7b7e063"><path d="M 97.492188 16 L 98 16 L 98 19 L 97.492188 19 Z M 97.492188 16 " clip-rule="nonzero"/></clipPath><clipPath id="ffde6b7111"><path d="M 97.492188 10.125 L 99 10.125 L 99 16 L 97.492188 16 Z M 97.492188 10.125 " clip-rule="nonzero"/></clipPath><clipPath id="ae4fe4926c"><path d="M 97.492188 10.125 L 98 10.125 L 98 16 L 97.492188 16 Z M 97.492188 10.125 " clip-rule="nonzero"/></clipPath><clipPath id="7ef7897262"><path d="M 99 10.125 L 102 10.125 L 102 14 L 99 14 Z M 99 10.125 " clip-rule="nonzero"/></clipPath><clipPath id="69625ed9ae"><path d="M 100 10.125 L 102 10.125 L 102 12 L 100 12 Z M 100 10.125 " clip-rule="nonzero"/></clipPath><clipPath id="a5a5f5a70a"><path d="M 99 10.125 L 103 10.125 L 103 12 L 99 12 Z M 99 10.125 " clip-rule="nonzero"/></clipPath><clipPath id="3f24d1ba21"><path d="M 98 12 L 103.871094 12 L 103.871094 17 L 98 17 Z M 98 12 " clip-rule="nonzero"/></clipPath><clipPath id="bcd7b9a506"><path d="M 98 13 L 103.871094 13 L 103.871094 16 L 98 16 Z M 98 13 " clip-rule="nonzero"/></clipPath><clipPath id="010435200b"><path d="M 97.492188 15 L 99 15 L 99 17 L 97.492188 17 Z M 97.492188 15 " clip-rule="nonzero"/></clipPath><clipPath id="721825dabb"><path d="M 100 17 L 103.773438 17 L 103.773438 21 L 100 21 Z M 100 17 " clip-rule="nonzero"/></clipPath><clipPath id="d62a5cd23f"><path d="M 102 18 L 103.773438 18 L 103.773438 20 L 102 20 Z M 102 18 " clip-rule="nonzero"/></clipPath><clipPath id="0eb570c0db"><path d="M 103 17 L 103.773438 17 L 103.773438 21 L 103 21 Z M 103 17 " clip-rule="nonzero"/></clipPath><clipPath id="eee90d2b7f"><path d="M 97.394531 16 L 102 16 L 102 22.027344 L 97.394531 22.027344 Z M 97.394531 16 " clip-rule="nonzero"/></clipPath><clipPath id="3c549ae9d2"><path d="M 97.394531 15 L 98 15 L 98 20 L 97.394531 20 Z M 97.394531 15 " clip-rule="nonzero"/></clipPath><clipPath id="24eaea3a7f"><path d="M 97.394531 16 L 98 16 L 98 19 L 97.394531 19 Z M 97.394531 16 " clip-rule="nonzero"/></clipPath><clipPath id="31d5ef9ff4"><path d="M 97.394531 9.941406 L 99 9.941406 L 99 16 L 97.394531 16 Z M 97.394531 9.941406 " clip-rule="nonzero"/></clipPath><clipPath id="b4a871f153"><path d="M 97.394531 10 L 98 10 L 98 16 L 97.394531 16 Z M 97.394531 10 " clip-rule="nonzero"/></clipPath><clipPath id="fe253d45c9"><path d="M 98 12 L 103.773438 12 L 103.773438 17 L 98 17 Z M 98 12 " clip-rule="nonzero"/></clipPath><clipPath id="d79550d4c6"><path d="M 98 13 L 103.773438 13 L 103.773438 16 L 98 16 Z M 98 13 " clip-rule="nonzero"/></clipPath><clipPath id="c6dd62ac40"><path d="M 97.394531 15 L 99 15 L 99 17 L 97.394531 17 Z M 97.394531 15 " clip-rule="nonzero"/></clipPath><clipPath id="309e18c434"><path d="M 0.886719 6 L 14 6 L 14 26 L 0.886719 26 Z M 0.886719 6 " clip-rule="nonzero"/></clipPath><clipPath id="e1d91f82b2"><path d="M 165.191406 29.25 L 167.78125 29.25 L 167.78125 32.269531 L 165.191406 32.269531 Z M 165.191406 29.25 " clip-rule="nonzero"/></clipPath><clipPath id="c3d6c7648f"><path d="M 168.140625 29.25 L 171.117188 29.25 L 171.117188 32.269531 L 168.140625 32.269531 Z M 168.140625 29.25 " clip-rule="nonzero"/></clipPath></defs><g clip-path="url(#5b7700cefd)"><path fill="#000000" d="M 103.085938 18.605469 L 103.085938 19.566406 C 103.085938 19.679688 103.058594 19.785156 103.011719 19.886719 C 102.890625 20.148438 102.625 20.316406 102.332031 20.316406 L 101.328125 20.316406 C 101.09375 20.316406 100.902344 20.128906 100.902344 19.894531 L 100.902344 18.28125 C 100.902344 18.054688 101.082031 17.867188 101.308594 17.855469 C 101.316406 17.855469 101.324219 17.855469 101.328125 17.855469 L 102.332031 17.855469 C 102.746094 17.855469 103.085938 18.191406 103.085938 18.605469 Z M 101.097656 19.894531 C 101.097656 20.019531 101.203125 20.125 101.328125 20.125 L 102.332031 20.125 C 102.546875 20.125 102.746094 19.996094 102.835938 19.804688 C 102.871094 19.730469 102.890625 19.648438 102.890625 19.566406 L 102.890625 18.605469 C 102.890625 18.300781 102.640625 18.050781 102.332031 18.050781 L 101.328125 18.050781 C 101.328125 18.050781 101.324219 18.050781 101.324219 18.050781 C 101.324219 18.050781 101.320312 18.050781 101.320312 18.050781 C 101.195312 18.058594 101.097656 18.15625 101.097656 18.28125 Z M 101.097656 19.894531 " fill-opacity="1" fill-rule="nonzero"/></g><g clip-path="url(#5bd8597fe2)"><path fill="#000000" d="M 103.507812 18.832031 L 103.507812 19.355469 C 103.507812 19.410156 103.464844 19.453125 103.410156 19.453125 L 102.988281 19.453125 C 102.933594 19.453125 102.890625 19.410156 102.890625 19.355469 L 102.890625 18.832031 C 102.890625 18.777344 102.933594 18.734375 102.988281 18.734375 L 103.410156 18.734375 C 103.464844 18.734375 103.507812 18.777344 103.507812 18.832031 Z M 103.3125 19.257812 L 103.3125 18.929688 L 103.085938 18.929688 L 103.085938 19.257812 Z M 103.3125 19.257812 " fill-opacity="1" fill-rule="nonzero"/></g><g clip-path="url(#3aecc7da33)"><path fill="#000000" d="M 103.558594 19.085938 C 103.558594 19.855469 103.238281 20.5625 103.222656 20.589844 C 103.203125 20.640625 103.144531 20.660156 103.09375 20.636719 C 103.046875 20.617188 103.023438 20.558594 103.046875 20.507812 C 103.050781 20.5 103.363281 19.808594 103.363281 19.085938 C 103.363281 18.363281 103.050781 17.6875 103.046875 17.679688 C 103.023438 17.632812 103.046875 17.574219 103.09375 17.550781 C 103.144531 17.527344 103.199219 17.550781 103.222656 17.597656 C 103.238281 17.628906 103.558594 18.320312 103.558594 19.085938 Z M 103.558594 19.085938 " fill-opacity="1" fill-rule="nonzero"/></g><path fill="#000000" d="M 102.242188 17.503906 L 102.242188 17.953125 C 102.242188 18.007812 102.199219 18.050781 102.144531 18.050781 C 102.089844 18.050781 102.046875 18.007812 102.046875 17.953125 L 102.046875 17.601562 L 101.316406 17.601562 C 101.261719 17.601562 101.21875 17.558594 101.21875 17.503906 C 101.21875 17.449219 101.261719 17.40625 101.316406 17.40625 L 102.144531 17.40625 C 102.199219 17.40625 102.242188 17.449219 102.242188 17.503906 Z M 102.242188 17.503906 " fill-opacity="1" fill-rule="nonzero"/><path fill="#000000" d="M 102.242188 20.21875 L 102.242188 20.671875 C 102.242188 20.726562 102.199219 20.769531 102.144531 20.769531 L 101.316406 20.769531 C 101.261719 20.769531 101.21875 20.726562 101.21875 20.671875 C 101.21875 20.617188 101.261719 20.574219 101.316406 20.574219 L 102.046875 20.574219 L 102.046875 20.21875 C 102.046875 20.167969 102.089844 20.125 102.144531 20.125 C 102.199219 20.125 102.242188 20.167969 102.242188 20.21875 Z M 102.242188 20.21875 " fill-opacity="1" fill-rule="nonzero"/><g clip-path="url(#bdfbbba799)"><path fill="#000000" d="M 101.269531 21.734375 L 101.269531 22.300781 C 101.269531 22.355469 101.226562 22.398438 101.171875 22.398438 L 97.453125 22.398438 C 97.398438 22.398438 97.355469 22.355469 97.355469 22.300781 L 97.355469 16.8125 C 97.355469 16.78125 97.375 16.75 97.402344 16.730469 C 97.429688 16.714844 97.464844 16.710938 97.496094 16.726562 C 97.570312 16.761719 97.652344 16.78125 97.738281 16.78125 C 97.824219 16.78125 97.902344 16.761719 97.976562 16.726562 C 98.007812 16.714844 98.042969 16.714844 98.070312 16.734375 C 98.097656 16.753906 98.113281 16.785156 98.113281 16.816406 L 98.113281 21.636719 L 101.171875 21.636719 C 101.226562 21.636719 101.269531 21.683594 101.269531 21.734375 Z M 101.074219 22.203125 L 101.074219 21.832031 L 98.015625 21.832031 C 97.964844 21.832031 97.917969 21.789062 97.917969 21.734375 L 97.917969 16.953125 C 97.863281 16.96875 97.800781 16.976562 97.738281 16.976562 C 97.675781 16.976562 97.613281 16.96875 97.550781 16.953125 L 97.550781 22.203125 Z M 101.074219 22.203125 " fill-opacity="1" fill-rule="nonzero"/></g><g clip-path="url(#dc4cfdbad5)"><path fill="#000000" d="M 100.570312 16.46875 L 100.570312 21.734375 C 100.570312 21.789062 100.527344 21.832031 100.472656 21.832031 L 98.015625 21.832031 C 97.964844 21.832031 97.917969 21.789062 97.917969 21.734375 L 97.917969 16.816406 C 97.917969 16.777344 97.941406 16.742188 97.976562 16.726562 C 98.078125 16.683594 98.164062 16.605469 98.222656 16.511719 C 98.238281 16.488281 98.253906 16.460938 98.265625 16.429688 C 98.28125 16.394531 98.316406 16.371094 98.355469 16.371094 L 100.472656 16.371094 C 100.527344 16.371094 100.570312 16.414062 100.570312 16.46875 Z M 100.375 21.636719 L 100.375 16.566406 L 98.417969 16.566406 C 98.40625 16.582031 98.398438 16.601562 98.386719 16.617188 C 98.320312 16.726562 98.226562 16.8125 98.113281 16.875 L 98.113281 21.636719 Z M 100.375 21.636719 " fill-opacity="1" fill-rule="nonzero"/></g><g clip-path="url(#4895400911)"><path fill="#000000" d="M 97.246094 15.90625 C 97.246094 15.921875 97.242188 15.9375 97.234375 15.949219 C 97.191406 16.03125 97.171875 16.117188 97.171875 16.210938 C 97.171875 16.289062 97.1875 16.363281 97.214844 16.429688 C 97.226562 16.460938 97.222656 16.496094 97.207031 16.523438 C 97.1875 16.550781 97.15625 16.566406 97.125 16.566406 L 92.28125 16.566406 L 92.28125 19.625 C 92.28125 19.679688 92.238281 19.722656 92.183594 19.722656 L 91.621094 19.722656 C 91.566406 19.722656 91.523438 19.679688 91.523438 19.625 L 91.523438 15.90625 C 91.523438 15.851562 91.566406 15.808594 91.621094 15.808594 L 97.148438 15.808594 C 97.183594 15.808594 97.214844 15.824219 97.230469 15.855469 C 97.242188 15.871094 97.246094 15.886719 97.246094 15.90625 Z M 96.976562 16.210938 C 96.976562 16.140625 96.984375 16.070312 97.003906 16.003906 L 91.71875 16.003906 L 91.71875 19.527344 L 92.089844 19.527344 L 92.089844 16.46875 C 92.089844 16.414062 92.132812 16.371094 92.183594 16.371094 L 96.992188 16.371094 C 96.980469 16.320312 96.976562 16.265625 96.976562 16.210938 Z M 96.976562 16.210938 " fill-opacity="1" fill-rule="nonzero"/></g><g clip-path="url(#77c0d398b5)"><path fill="#000000" d="M 97.550781 16.8125 L 97.550781 18.925781 C 97.550781 18.976562 97.507812 19.023438 97.453125 19.023438 L 92.183594 19.023438 C 92.132812 19.023438 92.089844 18.976562 92.089844 18.925781 L 92.089844 16.46875 C 92.089844 16.414062 92.132812 16.371094 92.183594 16.371094 L 97.125 16.371094 C 97.164062 16.371094 97.199219 16.394531 97.214844 16.429688 C 97.269531 16.5625 97.367188 16.664062 97.496094 16.726562 C 97.53125 16.742188 97.550781 16.777344 97.550781 16.8125 Z M 97.355469 18.828125 L 97.355469 16.871094 C 97.230469 16.800781 97.128906 16.695312 97.0625 16.566406 L 92.28125 16.566406 L 92.28125 18.828125 Z M 97.355469 18.828125 " fill-opacity="1" fill-rule="nonzero"/></g><g clip-path="url(#703390c3d3)"><path fill="#000000" d="M 98.113281 10.074219 L 98.113281 15.605469 C 98.113281 15.640625 98.097656 15.671875 98.070312 15.6875 C 98.042969 15.707031 98.007812 15.707031 97.976562 15.695312 C 97.902344 15.660156 97.824219 15.644531 97.738281 15.644531 C 97.652344 15.644531 97.570312 15.660156 97.496094 15.699219 C 97.464844 15.714844 97.429688 15.710938 97.402344 15.695312 C 97.375 15.675781 97.355469 15.644531 97.355469 15.609375 L 97.355469 10.734375 L 94.296875 10.734375 C 94.246094 10.734375 94.203125 10.691406 94.203125 10.636719 L 94.203125 10.074219 C 94.203125 10.019531 94.246094 9.976562 94.296875 9.976562 L 98.015625 9.976562 C 98.070312 9.976562 98.113281 10.019531 98.113281 10.074219 Z M 97.917969 15.46875 L 97.917969 10.171875 L 94.394531 10.171875 L 94.394531 10.539062 L 97.453125 10.539062 C 97.507812 10.539062 97.550781 10.582031 97.550781 10.636719 L 97.550781 15.472656 C 97.613281 15.457031 97.675781 15.449219 97.738281 15.449219 C 97.800781 15.449219 97.859375 15.457031 97.917969 15.46875 Z M 97.917969 15.46875 " fill-opacity="1" fill-rule="nonzero"/></g><g clip-path="url(#d81e0bdb12)"><path fill="#000000" d="M 97.550781 10.636719 L 97.550781 15.609375 C 97.550781 15.648438 97.527344 15.683594 97.492188 15.699219 C 97.476562 15.707031 97.457031 15.71875 97.441406 15.730469 C 97.351562 15.785156 97.28125 15.859375 97.234375 15.949219 C 97.21875 15.984375 97.183594 16.003906 97.148438 16.003906 L 95 16.003906 C 94.945312 16.003906 94.902344 15.960938 94.902344 15.90625 L 94.902344 10.636719 C 94.902344 10.582031 94.945312 10.539062 95 10.539062 L 97.453125 10.539062 C 97.507812 10.539062 97.550781 10.582031 97.550781 10.636719 Z M 97.355469 15.550781 L 97.355469 10.734375 L 95.097656 10.734375 L 95.097656 15.808594 L 97.089844 15.808594 C 97.152344 15.710938 97.238281 15.625 97.335938 15.5625 C 97.34375 15.558594 97.347656 15.554688 97.355469 15.550781 Z M 97.355469 15.550781 " fill-opacity="1" fill-rule="nonzero"/></g><path fill="#000000" d="M 101.867188 11.589844 L 101.867188 12.59375 C 101.867188 12.828125 101.675781 13.019531 101.445312 13.019531 L 99.828125 13.019531 C 99.601562 13.019531 99.417969 12.839844 99.40625 12.613281 C 99.40625 12.605469 99.40625 12.597656 99.40625 12.59375 L 99.40625 11.589844 C 99.40625 11.175781 99.742188 10.835938 100.15625 10.835938 L 101.117188 10.835938 C 101.226562 10.835938 101.335938 10.859375 101.433594 10.90625 C 101.699219 11.03125 101.867188 11.296875 101.867188 11.589844 Z M 99.601562 12.597656 C 99.601562 12.597656 99.601562 12.601562 99.601562 12.601562 C 99.605469 12.726562 99.707031 12.824219 99.828125 12.824219 L 101.445312 12.824219 C 101.570312 12.824219 101.671875 12.71875 101.671875 12.59375 L 101.671875 11.589844 C 101.671875 11.375 101.546875 11.175781 101.351562 11.085938 C 101.277344 11.050781 101.199219 11.03125 101.117188 11.03125 L 100.15625 11.03125 C 99.851562 11.03125 99.601562 11.28125 99.601562 11.589844 L 99.601562 12.59375 C 99.601562 12.59375 99.601562 12.597656 99.601562 12.597656 Z M 99.503906 12.605469 Z M 99.503906 12.605469 " fill-opacity="1" fill-rule="nonzero"/><path fill="#000000" d="M 101.003906 10.511719 L 101.003906 10.933594 C 101.003906 10.988281 100.960938 11.03125 100.90625 11.03125 L 100.378906 11.03125 C 100.328125 11.03125 100.28125 10.988281 100.28125 10.933594 L 100.28125 10.511719 C 100.28125 10.457031 100.328125 10.414062 100.378906 10.414062 L 100.90625 10.414062 C 100.960938 10.414062 101.003906 10.457031 101.003906 10.511719 Z M 100.808594 10.835938 L 100.808594 10.609375 L 100.476562 10.609375 L 100.476562 10.835938 Z M 100.808594 10.835938 " fill-opacity="1" fill-rule="nonzero"/><path fill="#000000" d="M 102.195312 10.785156 C 102.195312 10.800781 102.195312 10.8125 102.1875 10.828125 C 102.164062 10.875 102.105469 10.898438 102.058594 10.875 C 102.046875 10.871094 101.359375 10.558594 100.636719 10.558594 C 99.914062 10.558594 99.238281 10.871094 99.230469 10.875 C 99.183594 10.898438 99.125 10.875 99.101562 10.828125 C 99.078125 10.777344 99.097656 10.71875 99.148438 10.699219 C 99.175781 10.683594 99.867188 10.363281 100.636719 10.363281 C 101.40625 10.363281 102.109375 10.683594 102.140625 10.695312 C 102.175781 10.714844 102.195312 10.75 102.195312 10.785156 Z M 102.195312 10.785156 " fill-opacity="1" fill-rule="nonzero"/><path fill="#000000" d="M 99.601562 11.777344 C 99.601562 11.828125 99.558594 11.875 99.503906 11.875 L 99.148438 11.875 L 99.148438 12.605469 C 99.148438 12.65625 99.105469 12.703125 99.050781 12.703125 C 99 12.703125 98.953125 12.65625 98.953125 12.605469 L 98.953125 11.777344 C 98.953125 11.722656 99 11.679688 99.050781 11.679688 L 99.503906 11.679688 C 99.558594 11.679688 99.601562 11.722656 99.601562 11.777344 Z M 99.601562 11.777344 " fill-opacity="1" fill-rule="nonzero"/><path fill="#000000" d="M 102.316406 11.777344 L 102.316406 12.605469 C 102.316406 12.65625 102.273438 12.703125 102.222656 12.703125 C 102.167969 12.703125 102.125 12.65625 102.125 12.605469 L 102.125 11.875 L 101.769531 11.875 C 101.714844 11.875 101.671875 11.828125 101.671875 11.777344 C 101.671875 11.722656 101.714844 11.679688 101.769531 11.679688 L 102.222656 11.679688 C 102.273438 11.679688 102.316406 11.722656 102.316406 11.777344 Z M 102.316406 11.777344 " fill-opacity="1" fill-rule="nonzero"/><g clip-path="url(#47f55ddd0f)"><path fill="#000000" d="M 103.945312 12.75 L 103.945312 16.46875 C 103.945312 16.523438 103.902344 16.566406 103.847656 16.566406 L 98.355469 16.566406 C 98.320312 16.566406 98.292969 16.550781 98.273438 16.523438 C 98.253906 16.496094 98.25 16.460938 98.265625 16.429688 C 98.292969 16.359375 98.308594 16.285156 98.308594 16.210938 C 98.308594 16.121094 98.285156 16.03125 98.242188 15.949219 C 98.226562 15.917969 98.230469 15.882812 98.246094 15.855469 C 98.265625 15.824219 98.296875 15.808594 98.332031 15.808594 L 103.1875 15.808594 L 103.1875 12.75 C 103.1875 12.695312 103.230469 12.652344 103.285156 12.652344 L 103.847656 12.652344 C 103.902344 12.652344 103.945312 12.695312 103.945312 12.75 Z M 103.75 16.371094 L 103.75 12.847656 L 103.382812 12.847656 L 103.382812 15.90625 C 103.382812 15.957031 103.339844 16.003906 103.285156 16.003906 L 98.472656 16.003906 C 98.507812 16.121094 98.511719 16.25 98.488281 16.371094 Z M 103.75 16.371094 " fill-opacity="1" fill-rule="nonzero"/></g><g clip-path="url(#36c797be52)"><path fill="#000000" d="M 103.382812 13.449219 L 103.382812 15.90625 C 103.382812 15.957031 103.339844 16.003906 103.285156 16.003906 L 98.332031 16.003906 C 98.292969 16.003906 98.261719 15.980469 98.242188 15.949219 C 98.183594 15.835938 98.089844 15.746094 97.976562 15.695312 C 97.941406 15.679688 97.917969 15.644531 97.917969 15.605469 L 97.917969 13.449219 C 97.917969 13.394531 97.964844 13.351562 98.015625 13.351562 L 103.285156 13.351562 C 103.339844 13.351562 103.382812 13.394531 103.382812 13.449219 Z M 103.1875 15.808594 L 103.1875 13.546875 L 98.113281 13.546875 L 98.113281 15.546875 C 98.226562 15.609375 98.320312 15.699219 98.386719 15.808594 Z M 103.1875 15.808594 " fill-opacity="1" fill-rule="nonzero"/></g><g clip-path="url(#44cce73237)"><path fill="#000000" d="M 98.503906 16.210938 C 98.503906 16.3125 98.484375 16.410156 98.445312 16.503906 C 98.429688 16.542969 98.410156 16.582031 98.386719 16.617188 C 98.308594 16.742188 98.195312 16.84375 98.058594 16.90625 C 97.957031 16.953125 97.851562 16.976562 97.738281 16.976562 C 97.625 16.976562 97.515625 16.949219 97.410156 16.902344 C 97.242188 16.820312 97.109375 16.679688 97.035156 16.507812 C 96.996094 16.414062 96.976562 16.3125 96.976562 16.210938 C 96.976562 16.085938 97.003906 15.96875 97.0625 15.859375 C 97.125 15.738281 97.21875 15.636719 97.335938 15.5625 C 97.359375 15.546875 97.386719 15.535156 97.414062 15.523438 C 97.515625 15.472656 97.625 15.449219 97.738281 15.449219 C 97.851562 15.449219 97.957031 15.472656 98.058594 15.519531 C 98.210938 15.589844 98.339844 15.710938 98.417969 15.859375 C 98.472656 15.96875 98.503906 16.089844 98.503906 16.210938 Z M 97.171875 16.210938 C 97.171875 16.289062 97.1875 16.363281 97.214844 16.429688 C 97.269531 16.5625 97.367188 16.664062 97.496094 16.726562 C 97.570312 16.761719 97.652344 16.78125 97.738281 16.78125 C 97.824219 16.78125 97.902344 16.761719 97.976562 16.726562 C 98.078125 16.683594 98.164062 16.605469 98.222656 16.511719 C 98.238281 16.488281 98.253906 16.460938 98.265625 16.429688 C 98.292969 16.359375 98.308594 16.285156 98.308594 16.210938 C 98.308594 16.121094 98.285156 16.03125 98.242188 15.949219 C 98.183594 15.835938 98.089844 15.746094 97.976562 15.695312 C 97.902344 15.660156 97.824219 15.644531 97.738281 15.644531 C 97.652344 15.644531 97.570312 15.660156 97.496094 15.699219 C 97.496094 15.699219 97.496094 15.699219 97.492188 15.699219 C 97.476562 15.707031 97.457031 15.71875 97.441406 15.730469 C 97.351562 15.785156 97.28125 15.859375 97.234375 15.949219 C 97.191406 16.03125 97.171875 16.117188 97.171875 16.210938 Z M 97.171875 16.210938 " fill-opacity="1" fill-rule="nonzero"/></g><g clip-path="url(#53607d74ea)"><path fill="#000000" d="M 103.140625 18.523438 L 103.140625 19.457031 C 103.140625 19.566406 103.117188 19.671875 103.074219 19.769531 C 102.953125 20.023438 102.695312 20.1875 102.410156 20.1875 L 101.433594 20.1875 C 101.207031 20.1875 101.019531 20.003906 101.019531 19.777344 L 101.019531 18.207031 C 101.019531 17.984375 101.191406 17.804688 101.414062 17.792969 C 101.421875 17.792969 101.429688 17.792969 101.433594 17.792969 L 102.410156 17.792969 C 102.816406 17.792969 103.140625 18.121094 103.140625 18.523438 Z M 101.210938 19.777344 C 101.210938 19.898438 101.3125 20 101.433594 20 L 102.410156 20 C 102.621094 20 102.8125 19.878906 102.902344 19.6875 C 102.933594 19.617188 102.953125 19.539062 102.953125 19.457031 L 102.953125 18.523438 C 102.953125 18.226562 102.710938 17.984375 102.410156 17.984375 L 101.433594 17.984375 C 101.433594 17.984375 101.429688 17.984375 101.429688 17.984375 C 101.429688 17.984375 101.425781 17.984375 101.425781 17.984375 C 101.304688 17.988281 101.210938 18.085938 101.210938 18.207031 Z M 101.210938 19.777344 " fill-opacity="1" fill-rule="nonzero"/></g><g clip-path="url(#56402dbca0)"><path fill="#000000" d="M 103.554688 18.742188 L 103.554688 19.253906 C 103.554688 19.304688 103.511719 19.347656 103.457031 19.347656 L 103.046875 19.347656 C 102.996094 19.347656 102.953125 19.304688 102.953125 19.253906 L 102.953125 18.742188 C 102.953125 18.691406 102.996094 18.648438 103.046875 18.648438 L 103.457031 18.648438 C 103.511719 18.648438 103.554688 18.691406 103.554688 18.742188 Z M 103.363281 19.160156 L 103.363281 18.835938 L 103.140625 18.835938 L 103.140625 19.160156 Z M 103.363281 19.160156 " fill-opacity="1" fill-rule="nonzero"/></g><g clip-path="url(#5a5ae58798)"><path fill="#000000" d="M 103.605469 18.992188 C 103.605469 19.738281 103.292969 20.425781 103.277344 20.453125 C 103.257812 20.5 103.199219 20.523438 103.152344 20.5 C 103.105469 20.480469 103.085938 20.421875 103.105469 20.375 C 103.109375 20.367188 103.414062 19.695312 103.414062 18.992188 C 103.414062 18.289062 103.109375 17.628906 103.105469 17.625 C 103.085938 17.578125 103.105469 17.519531 103.152344 17.496094 C 103.199219 17.476562 103.257812 17.496094 103.277344 17.542969 C 103.292969 17.570312 103.605469 18.242188 103.605469 18.992188 Z M 103.605469 18.992188 " fill-opacity="1" fill-rule="nonzero"/></g><path fill="#000000" d="M 102.324219 17.449219 L 102.324219 17.890625 C 102.324219 17.941406 102.28125 17.984375 102.230469 17.984375 C 102.175781 17.984375 102.132812 17.941406 102.132812 17.890625 L 102.132812 17.546875 L 101.421875 17.546875 C 101.371094 17.546875 101.328125 17.503906 101.328125 17.449219 C 101.328125 17.398438 101.371094 17.355469 101.421875 17.355469 L 102.230469 17.355469 C 102.28125 17.355469 102.324219 17.398438 102.324219 17.449219 Z M 102.324219 17.449219 " fill-opacity="1" fill-rule="nonzero"/><path fill="#000000" d="M 102.324219 20.09375 L 102.324219 20.53125 C 102.324219 20.585938 102.28125 20.628906 102.230469 20.628906 L 101.421875 20.628906 C 101.371094 20.628906 101.328125 20.585938 101.328125 20.53125 C 101.328125 20.480469 101.371094 20.4375 101.421875 20.4375 L 102.132812 20.4375 L 102.132812 20.09375 C 102.132812 20.042969 102.175781 20 102.230469 20 C 102.28125 20 102.324219 20.042969 102.324219 20.09375 Z M 102.324219 20.09375 " fill-opacity="1" fill-rule="nonzero"/><g clip-path="url(#39cf48021b)"><path fill="#000000" d="M 101.375 21.570312 L 101.375 22.117188 C 101.375 22.167969 101.335938 22.210938 101.28125 22.210938 L 97.664062 22.210938 C 97.613281 22.210938 97.570312 22.167969 97.570312 22.117188 L 97.570312 16.78125 C 97.570312 16.746094 97.585938 16.71875 97.613281 16.699219 C 97.640625 16.683594 97.675781 16.679688 97.703125 16.695312 C 97.777344 16.730469 97.859375 16.746094 97.941406 16.746094 C 98.023438 16.746094 98.101562 16.730469 98.171875 16.695312 C 98.203125 16.683594 98.234375 16.683594 98.261719 16.703125 C 98.289062 16.71875 98.308594 16.75 98.308594 16.78125 L 98.308594 21.472656 L 101.28125 21.472656 C 101.335938 21.472656 101.375 21.515625 101.375 21.570312 Z M 101.1875 22.023438 L 101.1875 21.664062 L 98.210938 21.664062 C 98.160156 21.664062 98.117188 21.621094 98.117188 21.570312 L 98.117188 16.917969 C 98.058594 16.929688 98 16.9375 97.941406 16.9375 C 97.878906 16.9375 97.816406 16.929688 97.757812 16.914062 L 97.757812 22.023438 Z M 101.1875 22.023438 " fill-opacity="1" fill-rule="nonzero"/></g><path fill="#000000" d="M 100.695312 16.441406 L 100.695312 21.570312 C 100.695312 21.621094 100.652344 21.664062 100.601562 21.664062 L 98.210938 21.664062 C 98.160156 21.664062 98.117188 21.621094 98.117188 21.570312 L 98.117188 16.78125 C 98.117188 16.746094 98.140625 16.710938 98.171875 16.695312 C 98.273438 16.652344 98.355469 16.578125 98.410156 16.484375 C 98.425781 16.460938 98.441406 16.433594 98.453125 16.40625 C 98.46875 16.371094 98.5 16.347656 98.539062 16.347656 L 100.601562 16.347656 C 100.652344 16.347656 100.695312 16.390625 100.695312 16.441406 Z M 100.507812 21.472656 L 100.507812 16.539062 L 98.601562 16.539062 C 98.589844 16.554688 98.582031 16.570312 98.574219 16.585938 C 98.507812 16.691406 98.414062 16.78125 98.308594 16.839844 L 98.308594 21.472656 Z M 100.507812 21.472656 " fill-opacity="1" fill-rule="nonzero"/><g clip-path="url(#8141a274d6)"><path fill="#000000" d="M 97.460938 15.894531 C 97.460938 15.910156 97.457031 15.925781 97.449219 15.941406 C 97.410156 16.019531 97.390625 16.105469 97.390625 16.195312 C 97.390625 16.269531 97.402344 16.339844 97.429688 16.40625 C 97.445312 16.4375 97.441406 16.46875 97.421875 16.496094 C 97.40625 16.523438 97.375 16.539062 97.34375 16.539062 L 92.632812 16.539062 L 92.632812 19.515625 C 92.632812 19.566406 92.589844 19.609375 92.539062 19.609375 L 91.988281 19.609375 C 91.9375 19.609375 91.894531 19.566406 91.894531 19.515625 L 91.894531 15.894531 C 91.894531 15.84375 91.9375 15.800781 91.988281 15.800781 L 97.367188 15.800781 C 97.398438 15.800781 97.429688 15.820312 97.449219 15.847656 C 97.457031 15.863281 97.460938 15.878906 97.460938 15.894531 Z M 97.199219 16.195312 C 97.199219 16.125 97.207031 16.054688 97.226562 15.992188 L 92.085938 15.992188 L 92.085938 19.417969 L 92.441406 19.417969 L 92.441406 16.445312 C 92.441406 16.390625 92.484375 16.347656 92.539062 16.347656 L 97.214844 16.347656 C 97.203125 16.296875 97.199219 16.246094 97.199219 16.195312 Z M 97.199219 16.195312 " fill-opacity="1" fill-rule="nonzero"/></g><g clip-path="url(#50c7b7e063)"><path fill="#000000" d="M 97.757812 16.78125 L 97.757812 18.832031 C 97.757812 18.886719 97.714844 18.929688 97.664062 18.929688 L 92.539062 18.929688 C 92.484375 18.929688 92.441406 18.886719 92.441406 18.832031 L 92.441406 16.445312 C 92.441406 16.390625 92.484375 16.347656 92.539062 16.347656 L 97.34375 16.347656 C 97.382812 16.347656 97.417969 16.371094 97.429688 16.40625 C 97.484375 16.535156 97.582031 16.636719 97.703125 16.695312 C 97.738281 16.710938 97.757812 16.742188 97.757812 16.78125 Z M 97.570312 18.738281 L 97.570312 16.835938 C 97.449219 16.765625 97.347656 16.664062 97.285156 16.539062 L 92.632812 16.539062 L 92.632812 18.738281 Z M 97.570312 18.738281 " fill-opacity="1" fill-rule="nonzero"/></g><g clip-path="url(#ffde6b7111)"><path fill="#000000" d="M 98.308594 10.222656 L 98.308594 15.605469 C 98.308594 15.636719 98.289062 15.667969 98.261719 15.683594 C 98.234375 15.703125 98.203125 15.703125 98.171875 15.691406 C 98.101562 15.65625 98.023438 15.640625 97.941406 15.640625 C 97.859375 15.640625 97.777344 15.660156 97.707031 15.695312 C 97.675781 15.707031 97.640625 15.707031 97.613281 15.691406 C 97.585938 15.671875 97.570312 15.640625 97.570312 15.609375 L 97.570312 10.863281 L 94.59375 10.863281 C 94.542969 10.863281 94.5 10.824219 94.5 10.769531 L 94.5 10.222656 C 94.5 10.167969 94.542969 10.125 94.59375 10.125 L 98.210938 10.125 C 98.265625 10.125 98.308594 10.167969 98.308594 10.222656 Z M 98.117188 15.472656 L 98.117188 10.316406 L 94.6875 10.316406 L 94.6875 10.675781 L 97.664062 10.675781 C 97.714844 10.675781 97.757812 10.71875 97.757812 10.769531 L 97.757812 15.472656 C 97.816406 15.457031 97.878906 15.449219 97.941406 15.449219 C 98 15.449219 98.058594 15.457031 98.117188 15.472656 Z M 98.117188 15.472656 " fill-opacity="1" fill-rule="nonzero"/></g><g clip-path="url(#ae4fe4926c)"><path fill="#000000" d="M 97.757812 10.769531 L 97.757812 15.609375 C 97.757812 15.648438 97.738281 15.679688 97.703125 15.695312 C 97.683594 15.703125 97.667969 15.714844 97.652344 15.722656 C 97.566406 15.777344 97.496094 15.851562 97.453125 15.9375 C 97.433594 15.972656 97.402344 15.992188 97.367188 15.992188 L 95.273438 15.992188 C 95.222656 15.992188 95.179688 15.949219 95.179688 15.894531 L 95.179688 10.769531 C 95.179688 10.71875 95.222656 10.675781 95.273438 10.675781 L 97.664062 10.675781 C 97.714844 10.675781 97.757812 10.71875 97.757812 10.769531 Z M 97.570312 15.550781 L 97.570312 10.863281 L 95.371094 10.863281 L 95.371094 15.800781 L 97.3125 15.800781 C 97.371094 15.703125 97.453125 15.625 97.550781 15.5625 C 97.554688 15.558594 97.5625 15.554688 97.570312 15.550781 Z M 97.570312 15.550781 " fill-opacity="1" fill-rule="nonzero"/></g><g clip-path="url(#7ef7897262)"><path fill="#000000" d="M 101.957031 11.695312 L 101.957031 12.671875 C 101.957031 12.902344 101.773438 13.085938 101.546875 13.085938 L 99.976562 13.085938 C 99.753906 13.085938 99.574219 12.914062 99.5625 12.691406 C 99.5625 12.683594 99.5625 12.679688 99.5625 12.671875 L 99.5625 11.695312 C 99.5625 11.292969 99.890625 10.964844 100.292969 10.964844 L 101.226562 10.964844 C 101.335938 10.964844 101.441406 10.988281 101.539062 11.035156 C 101.792969 11.152344 101.957031 11.414062 101.957031 11.695312 Z M 99.753906 12.675781 C 99.753906 12.679688 99.753906 12.679688 99.753906 12.683594 C 99.757812 12.800781 99.855469 12.894531 99.976562 12.894531 L 101.546875 12.894531 C 101.667969 12.894531 101.769531 12.796875 101.769531 12.671875 L 101.769531 11.695312 C 101.769531 11.488281 101.644531 11.292969 101.457031 11.207031 C 101.386719 11.171875 101.308594 11.15625 101.226562 11.15625 L 100.292969 11.15625 C 99.996094 11.15625 99.753906 11.398438 99.753906 11.695312 L 99.753906 12.671875 C 99.753906 12.675781 99.753906 12.675781 99.753906 12.675781 Z M 99.660156 12.6875 Z M 99.660156 12.6875 " fill-opacity="1" fill-rule="nonzero"/></g><g clip-path="url(#69625ed9ae)"><path fill="#000000" d="M 101.117188 10.648438 L 101.117188 11.058594 C 101.117188 11.113281 101.074219 11.15625 101.023438 11.15625 L 100.511719 11.15625 C 100.457031 11.15625 100.417969 11.113281 100.417969 11.058594 L 100.417969 10.648438 C 100.417969 10.597656 100.457031 10.554688 100.511719 10.554688 L 101.023438 10.554688 C 101.074219 10.554688 101.117188 10.597656 101.117188 10.648438 Z M 100.925781 10.964844 L 100.925781 10.742188 L 100.605469 10.742188 L 100.605469 10.964844 Z M 100.925781 10.964844 " fill-opacity="1" fill-rule="nonzero"/></g><g clip-path="url(#a5a5f5a70a)"><path fill="#000000" d="M 102.277344 10.914062 C 102.277344 10.929688 102.277344 10.941406 102.269531 10.953125 C 102.246094 11.003906 102.191406 11.023438 102.144531 11 C 102.132812 10.996094 101.464844 10.691406 100.761719 10.691406 C 100.058594 10.691406 99.398438 10.996094 99.394531 11 C 99.34375 11.023438 99.289062 11.003906 99.265625 10.953125 C 99.246094 10.90625 99.265625 10.851562 99.3125 10.828125 C 99.339844 10.816406 100.011719 10.5 100.761719 10.5 C 101.507812 10.5 102.195312 10.816406 102.222656 10.828125 C 102.257812 10.84375 102.277344 10.878906 102.277344 10.914062 Z M 102.277344 10.914062 " fill-opacity="1" fill-rule="nonzero"/></g><path fill="#000000" d="M 99.753906 11.878906 C 99.753906 11.929688 99.710938 11.972656 99.65625 11.972656 L 99.3125 11.972656 L 99.3125 12.683594 C 99.3125 12.738281 99.269531 12.777344 99.21875 12.777344 C 99.167969 12.777344 99.125 12.738281 99.125 12.683594 L 99.125 11.878906 C 99.125 11.824219 99.167969 11.78125 99.21875 11.78125 L 99.65625 11.78125 C 99.710938 11.78125 99.753906 11.824219 99.753906 11.878906 Z M 99.753906 11.878906 " fill-opacity="1" fill-rule="nonzero"/><path fill="#000000" d="M 102.398438 11.878906 L 102.398438 12.683594 C 102.398438 12.738281 102.355469 12.777344 102.300781 12.777344 C 102.25 12.777344 102.207031 12.738281 102.207031 12.683594 L 102.207031 11.972656 L 101.863281 11.972656 C 101.8125 11.972656 101.769531 11.929688 101.769531 11.878906 C 101.769531 11.824219 101.8125 11.78125 101.863281 11.78125 L 102.300781 11.78125 C 102.355469 11.78125 102.398438 11.824219 102.398438 11.878906 Z M 102.398438 11.878906 " fill-opacity="1" fill-rule="nonzero"/><g clip-path="url(#3f24d1ba21)"><path fill="#000000" d="M 103.980469 12.824219 L 103.980469 16.441406 C 103.980469 16.496094 103.9375 16.539062 103.886719 16.539062 L 98.539062 16.539062 C 98.507812 16.539062 98.480469 16.523438 98.460938 16.496094 C 98.445312 16.46875 98.441406 16.4375 98.453125 16.40625 C 98.480469 16.339844 98.496094 16.265625 98.496094 16.195312 C 98.496094 16.105469 98.472656 16.019531 98.433594 15.9375 C 98.417969 15.910156 98.417969 15.875 98.4375 15.847656 C 98.453125 15.816406 98.484375 15.800781 98.515625 15.800781 L 103.242188 15.800781 L 103.242188 12.824219 C 103.242188 12.773438 103.285156 12.730469 103.339844 12.730469 L 103.886719 12.730469 C 103.9375 12.730469 103.980469 12.773438 103.980469 12.824219 Z M 103.792969 16.347656 L 103.792969 12.921875 L 103.433594 12.921875 L 103.433594 15.894531 C 103.433594 15.949219 103.390625 15.988281 103.339844 15.988281 L 98.65625 15.988281 C 98.691406 16.105469 98.695312 16.230469 98.667969 16.347656 Z M 103.792969 16.347656 " fill-opacity="1" fill-rule="nonzero"/></g><g clip-path="url(#bcd7b9a506)"><path fill="#000000" d="M 103.433594 13.507812 L 103.433594 15.894531 C 103.433594 15.949219 103.390625 15.988281 103.339844 15.988281 L 98.515625 15.988281 C 98.480469 15.988281 98.449219 15.96875 98.433594 15.9375 C 98.375 15.832031 98.285156 15.742188 98.171875 15.691406 C 98.140625 15.675781 98.117188 15.640625 98.117188 15.605469 L 98.117188 13.507812 C 98.117188 13.453125 98.160156 13.410156 98.210938 13.410156 L 103.339844 13.410156 C 103.390625 13.410156 103.433594 13.453125 103.433594 13.507812 Z M 103.242188 15.800781 L 103.242188 13.601562 L 98.308594 13.601562 L 98.308594 15.546875 C 98.414062 15.609375 98.507812 15.695312 98.570312 15.800781 Z M 103.242188 15.800781 " fill-opacity="1" fill-rule="nonzero"/></g><g clip-path="url(#010435200b)"><path fill="#000000" d="M 98.683594 16.195312 C 98.683594 16.292969 98.664062 16.386719 98.628906 16.480469 C 98.613281 16.519531 98.59375 16.554688 98.574219 16.585938 C 98.496094 16.710938 98.382812 16.808594 98.25 16.867188 C 98.15625 16.914062 98.050781 16.9375 97.941406 16.9375 C 97.832031 16.9375 97.722656 16.914062 97.625 16.867188 C 97.457031 16.785156 97.328125 16.648438 97.257812 16.480469 C 97.21875 16.390625 97.199219 16.292969 97.199219 16.195312 C 97.199219 16.074219 97.226562 15.957031 97.28125 15.851562 C 97.34375 15.734375 97.4375 15.632812 97.550781 15.5625 C 97.574219 15.546875 97.597656 15.535156 97.625 15.523438 C 97.722656 15.476562 97.828125 15.449219 97.941406 15.449219 C 98.050781 15.449219 98.15625 15.472656 98.25 15.519531 C 98.402344 15.585938 98.523438 15.707031 98.601562 15.851562 C 98.65625 15.957031 98.683594 16.074219 98.683594 16.195312 Z M 97.390625 16.195312 C 97.390625 16.269531 97.402344 16.339844 97.429688 16.40625 C 97.484375 16.535156 97.582031 16.636719 97.703125 16.695312 C 97.777344 16.730469 97.859375 16.746094 97.941406 16.746094 C 98.023438 16.746094 98.101562 16.730469 98.171875 16.695312 C 98.273438 16.652344 98.355469 16.578125 98.410156 16.484375 C 98.425781 16.460938 98.441406 16.433594 98.453125 16.40625 C 98.480469 16.339844 98.496094 16.265625 98.496094 16.195312 C 98.496094 16.105469 98.472656 16.019531 98.433594 15.9375 C 98.375 15.832031 98.285156 15.742188 98.171875 15.691406 C 98.101562 15.65625 98.023438 15.640625 97.941406 15.640625 C 97.859375 15.640625 97.777344 15.660156 97.707031 15.695312 C 97.703125 15.695312 97.703125 15.695312 97.703125 15.695312 C 97.683594 15.703125 97.667969 15.714844 97.652344 15.722656 C 97.566406 15.777344 97.496094 15.851562 97.453125 15.9375 C 97.410156 16.019531 97.390625 16.105469 97.390625 16.195312 Z M 97.390625 16.195312 " fill-opacity="1" fill-rule="nonzero"/></g><g clip-path="url(#721825dabb)"><path fill="#000000" d="M 103.042969 18.339844 L 103.042969 19.273438 C 103.042969 19.382812 103.019531 19.488281 102.976562 19.585938 C 102.855469 19.839844 102.59375 20.003906 102.3125 20.003906 L 101.335938 20.003906 C 101.109375 20.003906 100.921875 19.820312 100.921875 19.59375 L 100.921875 18.023438 C 100.921875 17.800781 101.09375 17.621094 101.316406 17.609375 C 101.324219 17.609375 101.332031 17.609375 101.335938 17.609375 L 102.3125 17.609375 C 102.714844 17.609375 103.042969 17.9375 103.042969 18.339844 Z M 101.113281 19.59375 C 101.113281 19.714844 101.210938 19.816406 101.335938 19.816406 L 102.3125 19.816406 C 102.523438 19.816406 102.714844 19.691406 102.804688 19.503906 C 102.835938 19.433594 102.855469 19.355469 102.855469 19.273438 L 102.855469 18.339844 C 102.855469 18.042969 102.613281 17.800781 102.3125 17.800781 L 101.335938 17.800781 C 101.335938 17.800781 101.332031 17.800781 101.332031 17.800781 C 101.328125 17.800781 101.328125 17.800781 101.324219 17.800781 C 101.207031 17.804688 101.113281 17.902344 101.113281 18.023438 Z M 101.113281 19.59375 " fill-opacity="1" fill-rule="nonzero"/></g><g clip-path="url(#d62a5cd23f)"><path fill="#000000" d="M 103.457031 18.558594 L 103.457031 19.070312 C 103.457031 19.121094 103.414062 19.164062 103.359375 19.164062 L 102.949219 19.164062 C 102.898438 19.164062 102.855469 19.121094 102.855469 19.070312 L 102.855469 18.558594 C 102.855469 18.503906 102.898438 18.464844 102.949219 18.464844 L 103.359375 18.464844 C 103.414062 18.464844 103.457031 18.503906 103.457031 18.558594 Z M 103.265625 18.972656 L 103.265625 18.652344 L 103.042969 18.652344 L 103.042969 18.972656 Z M 103.265625 18.972656 " fill-opacity="1" fill-rule="nonzero"/></g><g clip-path="url(#0eb570c0db)"><path fill="#000000" d="M 103.507812 18.808594 C 103.507812 19.554688 103.195312 20.242188 103.179688 20.269531 C 103.160156 20.316406 103.101562 20.339844 103.054688 20.316406 C 103.007812 20.292969 102.984375 20.238281 103.007812 20.191406 C 103.011719 20.179688 103.316406 19.511719 103.316406 18.808594 C 103.316406 18.105469 103.011719 17.445312 103.007812 17.441406 C 102.984375 17.390625 103.007812 17.335938 103.054688 17.3125 C 103.101562 17.292969 103.15625 17.3125 103.179688 17.359375 C 103.195312 17.386719 103.507812 18.058594 103.507812 18.808594 Z M 103.507812 18.808594 " fill-opacity="1" fill-rule="nonzero"/></g><path fill="#000000" d="M 102.226562 17.265625 L 102.226562 17.703125 C 102.226562 17.757812 102.183594 17.800781 102.128906 17.800781 C 102.078125 17.800781 102.035156 17.757812 102.035156 17.703125 L 102.035156 17.359375 L 101.324219 17.359375 C 101.273438 17.359375 101.230469 17.316406 101.230469 17.265625 C 101.230469 17.214844 101.273438 17.171875 101.324219 17.171875 L 102.128906 17.171875 C 102.183594 17.171875 102.226562 17.214844 102.226562 17.265625 Z M 102.226562 17.265625 " fill-opacity="1" fill-rule="nonzero"/><path fill="#000000" d="M 102.226562 19.910156 L 102.226562 20.347656 C 102.226562 20.402344 102.183594 20.445312 102.128906 20.445312 L 101.324219 20.445312 C 101.273438 20.445312 101.230469 20.402344 101.230469 20.347656 C 101.230469 20.296875 101.273438 20.253906 101.324219 20.253906 L 102.035156 20.253906 L 102.035156 19.910156 C 102.035156 19.859375 102.078125 19.816406 102.128906 19.816406 C 102.183594 19.816406 102.226562 19.859375 102.226562 19.910156 Z M 102.226562 19.910156 " fill-opacity="1" fill-rule="nonzero"/><g clip-path="url(#eee90d2b7f)"><path fill="#000000" d="M 101.277344 21.386719 L 101.277344 21.933594 C 101.277344 21.984375 101.234375 22.027344 101.183594 22.027344 L 97.566406 22.027344 C 97.511719 22.027344 97.46875 21.984375 97.46875 21.933594 L 97.46875 16.59375 C 97.46875 16.5625 97.488281 16.53125 97.515625 16.515625 C 97.542969 16.496094 97.578125 16.496094 97.605469 16.507812 C 97.679688 16.546875 97.761719 16.5625 97.84375 16.5625 C 97.925781 16.5625 98.003906 16.546875 98.074219 16.511719 C 98.101562 16.5 98.136719 16.5 98.164062 16.519531 C 98.191406 16.535156 98.207031 16.566406 98.207031 16.597656 L 98.207031 21.289062 L 101.183594 21.289062 C 101.234375 21.289062 101.277344 21.332031 101.277344 21.386719 Z M 101.089844 21.839844 L 101.089844 21.480469 L 98.113281 21.480469 C 98.0625 21.480469 98.019531 21.4375 98.019531 21.386719 L 98.019531 16.730469 C 97.960938 16.746094 97.902344 16.753906 97.84375 16.753906 C 97.78125 16.753906 97.71875 16.746094 97.660156 16.730469 L 97.660156 21.839844 Z M 101.089844 21.839844 " fill-opacity="1" fill-rule="nonzero"/></g><path fill="#000000" d="M 100.597656 16.257812 L 100.597656 21.386719 C 100.597656 21.4375 100.554688 21.480469 100.503906 21.480469 L 98.113281 21.480469 C 98.0625 21.480469 98.019531 21.4375 98.019531 21.386719 L 98.019531 16.597656 C 98.019531 16.5625 98.039062 16.527344 98.074219 16.511719 C 98.171875 16.46875 98.257812 16.394531 98.3125 16.300781 C 98.328125 16.277344 98.34375 16.25 98.355469 16.222656 C 98.367188 16.1875 98.402344 16.164062 98.441406 16.164062 L 100.503906 16.164062 C 100.554688 16.164062 100.597656 16.207031 100.597656 16.257812 Z M 100.40625 21.289062 L 100.40625 16.355469 L 98.503906 16.355469 C 98.492188 16.371094 98.484375 16.386719 98.472656 16.402344 C 98.410156 16.507812 98.316406 16.597656 98.207031 16.65625 L 98.207031 21.289062 Z M 100.40625 21.289062 " fill-opacity="1" fill-rule="nonzero"/><g clip-path="url(#3c549ae9d2)"><path fill="#000000" d="M 97.363281 15.710938 C 97.363281 15.726562 97.359375 15.742188 97.351562 15.753906 C 97.3125 15.835938 97.289062 15.917969 97.289062 16.011719 C 97.289062 16.082031 97.304688 16.15625 97.332031 16.222656 C 97.34375 16.253906 97.34375 16.285156 97.324219 16.3125 C 97.308594 16.339844 97.277344 16.355469 97.246094 16.355469 L 92.535156 16.355469 L 92.535156 19.328125 C 92.535156 19.382812 92.492188 19.425781 92.441406 19.425781 L 91.890625 19.425781 C 91.839844 19.425781 91.796875 19.382812 91.796875 19.328125 L 91.796875 15.710938 C 91.796875 15.660156 91.839844 15.617188 91.890625 15.617188 L 97.269531 15.617188 C 97.300781 15.617188 97.332031 15.632812 97.351562 15.664062 C 97.359375 15.675781 97.363281 15.695312 97.363281 15.710938 Z M 97.101562 16.011719 C 97.101562 15.941406 97.109375 15.871094 97.128906 15.804688 L 91.988281 15.804688 L 91.988281 19.234375 L 92.34375 19.234375 L 92.34375 16.261719 C 92.34375 16.207031 92.386719 16.164062 92.441406 16.164062 L 97.117188 16.164062 C 97.105469 16.113281 97.101562 16.0625 97.101562 16.011719 Z M 97.101562 16.011719 " fill-opacity="1" fill-rule="nonzero"/></g><g clip-path="url(#24eaea3a7f)"><path fill="#000000" d="M 97.660156 16.59375 L 97.660156 18.648438 C 97.660156 18.699219 97.617188 18.742188 97.566406 18.742188 L 92.441406 18.742188 C 92.386719 18.742188 92.34375 18.699219 92.34375 18.648438 L 92.34375 16.261719 C 92.34375 16.207031 92.386719 16.164062 92.441406 16.164062 L 97.246094 16.164062 C 97.285156 16.164062 97.316406 16.1875 97.332031 16.222656 C 97.386719 16.347656 97.484375 16.449219 97.605469 16.511719 C 97.640625 16.527344 97.660156 16.558594 97.660156 16.59375 Z M 97.46875 18.554688 L 97.46875 16.652344 C 97.347656 16.582031 97.25 16.480469 97.183594 16.355469 L 92.535156 16.355469 L 92.535156 18.554688 Z M 97.46875 18.554688 " fill-opacity="1" fill-rule="nonzero"/></g><g clip-path="url(#31d5ef9ff4)"><path fill="#000000" d="M 98.207031 10.039062 L 98.207031 15.421875 C 98.207031 15.453125 98.191406 15.484375 98.164062 15.5 C 98.136719 15.519531 98.105469 15.519531 98.074219 15.507812 C 98.003906 15.472656 97.925781 15.457031 97.84375 15.457031 C 97.761719 15.457031 97.679688 15.476562 97.605469 15.511719 C 97.578125 15.523438 97.542969 15.523438 97.515625 15.503906 C 97.488281 15.488281 97.46875 15.457031 97.46875 15.425781 L 97.46875 10.679688 L 94.496094 10.679688 C 94.445312 10.679688 94.402344 10.636719 94.402344 10.585938 L 94.402344 10.039062 C 94.402344 9.984375 94.445312 9.941406 94.496094 9.941406 L 98.113281 9.941406 C 98.167969 9.941406 98.207031 9.984375 98.207031 10.039062 Z M 98.019531 15.289062 L 98.019531 10.132812 L 94.589844 10.132812 L 94.589844 10.492188 L 97.566406 10.492188 C 97.617188 10.492188 97.660156 10.535156 97.660156 10.585938 L 97.660156 15.289062 C 97.71875 15.273438 97.78125 15.265625 97.84375 15.265625 C 97.902344 15.265625 97.960938 15.273438 98.019531 15.289062 Z M 98.019531 15.289062 " fill-opacity="1" fill-rule="nonzero"/></g><g clip-path="url(#b4a871f153)"><path fill="#000000" d="M 97.660156 10.585938 L 97.660156 15.425781 C 97.660156 15.460938 97.640625 15.496094 97.605469 15.511719 C 97.585938 15.519531 97.570312 15.527344 97.550781 15.539062 C 97.46875 15.59375 97.398438 15.667969 97.351562 15.753906 C 97.335938 15.785156 97.304688 15.804688 97.269531 15.804688 L 95.175781 15.804688 C 95.125 15.804688 95.082031 15.765625 95.082031 15.710938 L 95.082031 10.585938 C 95.082031 10.535156 95.125 10.492188 95.175781 10.492188 L 97.566406 10.492188 C 97.617188 10.492188 97.660156 10.535156 97.660156 10.585938 Z M 97.46875 15.367188 L 97.46875 10.679688 L 95.273438 10.679688 L 95.273438 15.617188 L 97.214844 15.617188 C 97.273438 15.519531 97.355469 15.4375 97.453125 15.378906 C 97.457031 15.375 97.464844 15.371094 97.46875 15.367188 Z M 97.46875 15.367188 " fill-opacity="1" fill-rule="nonzero"/></g><path fill="#000000" d="M 101.859375 11.511719 L 101.859375 12.488281 C 101.859375 12.714844 101.675781 12.902344 101.449219 12.902344 L 99.878906 12.902344 C 99.65625 12.902344 99.476562 12.730469 99.464844 12.507812 C 99.464844 12.5 99.464844 12.496094 99.464844 12.488281 L 99.464844 11.511719 C 99.464844 11.109375 99.792969 10.78125 100.195312 10.78125 L 101.128906 10.78125 C 101.238281 10.78125 101.34375 10.804688 101.441406 10.847656 C 101.695312 10.96875 101.859375 11.230469 101.859375 11.511719 Z M 99.65625 12.492188 C 99.65625 12.496094 99.65625 12.496094 99.65625 12.5 C 99.660156 12.617188 99.757812 12.710938 99.878906 12.710938 L 101.449219 12.710938 C 101.570312 12.710938 101.671875 12.613281 101.671875 12.488281 L 101.671875 11.511719 C 101.671875 11.300781 101.546875 11.109375 101.359375 11.019531 C 101.289062 10.988281 101.210938 10.96875 101.128906 10.96875 L 100.195312 10.96875 C 99.898438 10.96875 99.65625 11.214844 99.65625 11.511719 L 99.65625 12.488281 C 99.65625 12.492188 99.65625 12.492188 99.65625 12.492188 Z M 99.558594 12.503906 Z M 99.558594 12.503906 " fill-opacity="1" fill-rule="nonzero"/><path fill="#000000" d="M 101.019531 10.464844 L 101.019531 10.875 C 101.019531 10.929688 100.976562 10.96875 100.925781 10.96875 L 100.414062 10.96875 C 100.359375 10.96875 100.316406 10.929688 100.316406 10.875 L 100.316406 10.464844 C 100.316406 10.410156 100.359375 10.371094 100.414062 10.371094 L 100.925781 10.371094 C 100.976562 10.371094 101.019531 10.410156 101.019531 10.464844 Z M 100.828125 10.78125 L 100.828125 10.558594 L 100.507812 10.558594 L 100.507812 10.78125 Z M 100.828125 10.78125 " fill-opacity="1" fill-rule="nonzero"/><path fill="#000000" d="M 102.179688 10.730469 C 102.179688 10.742188 102.175781 10.757812 102.171875 10.769531 C 102.148438 10.816406 102.09375 10.839844 102.046875 10.816406 C 102.035156 10.8125 101.367188 10.507812 100.664062 10.507812 C 99.957031 10.507812 99.300781 10.8125 99.292969 10.816406 C 99.246094 10.839844 99.191406 10.816406 99.167969 10.769531 C 99.144531 10.722656 99.167969 10.667969 99.214844 10.644531 C 99.242188 10.632812 99.914062 10.316406 100.664062 10.316406 C 101.410156 10.316406 102.097656 10.628906 102.125 10.644531 C 102.160156 10.660156 102.179688 10.695312 102.179688 10.730469 Z M 102.179688 10.730469 " fill-opacity="1" fill-rule="nonzero"/><path fill="#000000" d="M 99.65625 11.695312 C 99.65625 11.746094 99.613281 11.789062 99.558594 11.789062 L 99.214844 11.789062 L 99.214844 12.5 C 99.214844 12.550781 99.171875 12.59375 99.121094 12.59375 C 99.070312 12.59375 99.027344 12.550781 99.027344 12.5 L 99.027344 11.695312 C 99.027344 11.640625 99.070312 11.597656 99.121094 11.597656 L 99.558594 11.597656 C 99.613281 11.597656 99.65625 11.640625 99.65625 11.695312 Z M 99.65625 11.695312 " fill-opacity="1" fill-rule="nonzero"/><path fill="#000000" d="M 102.296875 11.695312 L 102.296875 12.5 C 102.296875 12.550781 102.257812 12.59375 102.203125 12.59375 C 102.152344 12.59375 102.109375 12.550781 102.109375 12.5 L 102.109375 11.789062 L 101.765625 11.789062 C 101.710938 11.789062 101.671875 11.746094 101.671875 11.695312 C 101.671875 11.640625 101.710938 11.597656 101.765625 11.597656 L 102.203125 11.597656 C 102.257812 11.597656 102.296875 11.640625 102.296875 11.695312 Z M 102.296875 11.695312 " fill-opacity="1" fill-rule="nonzero"/><g clip-path="url(#fe253d45c9)"><path fill="#000000" d="M 103.882812 12.640625 L 103.882812 16.257812 C 103.882812 16.3125 103.839844 16.355469 103.789062 16.355469 L 98.441406 16.355469 C 98.410156 16.355469 98.378906 16.339844 98.363281 16.3125 C 98.34375 16.285156 98.34375 16.25 98.355469 16.222656 C 98.382812 16.15625 98.398438 16.082031 98.398438 16.011719 C 98.398438 15.917969 98.375 15.835938 98.335938 15.753906 C 98.320312 15.726562 98.320312 15.691406 98.335938 15.660156 C 98.355469 15.632812 98.386719 15.617188 98.417969 15.617188 L 103.144531 15.617188 L 103.144531 12.640625 C 103.144531 12.589844 103.1875 12.546875 103.238281 12.546875 L 103.789062 12.546875 C 103.839844 12.546875 103.882812 12.589844 103.882812 12.640625 Z M 103.691406 16.164062 L 103.691406 12.734375 L 103.335938 12.734375 L 103.335938 15.710938 C 103.335938 15.761719 103.292969 15.804688 103.238281 15.804688 L 98.558594 15.804688 C 98.589844 15.921875 98.59375 16.046875 98.570312 16.164062 Z M 103.691406 16.164062 " fill-opacity="1" fill-rule="nonzero"/></g><g clip-path="url(#d79550d4c6)"><path fill="#000000" d="M 103.335938 13.320312 L 103.335938 15.710938 C 103.335938 15.761719 103.292969 15.804688 103.238281 15.804688 L 98.417969 15.804688 C 98.382812 15.804688 98.351562 15.785156 98.335938 15.753906 C 98.277344 15.644531 98.183594 15.558594 98.074219 15.507812 C 98.039062 15.492188 98.019531 15.457031 98.019531 15.421875 L 98.019531 13.320312 C 98.019531 13.269531 98.0625 13.226562 98.113281 13.226562 L 103.238281 13.226562 C 103.292969 13.226562 103.335938 13.269531 103.335938 13.320312 Z M 103.144531 15.617188 L 103.144531 13.417969 L 98.207031 13.417969 L 98.207031 15.363281 C 98.316406 15.421875 98.40625 15.511719 98.472656 15.617188 Z M 103.144531 15.617188 " fill-opacity="1" fill-rule="nonzero"/></g><g clip-path="url(#c6dd62ac40)"><path fill="#000000" d="M 98.585938 16.011719 C 98.585938 16.109375 98.566406 16.203125 98.53125 16.296875 C 98.511719 16.332031 98.496094 16.371094 98.472656 16.402344 C 98.398438 16.527344 98.285156 16.625 98.152344 16.683594 C 98.058594 16.730469 97.953125 16.753906 97.84375 16.753906 C 97.730469 16.753906 97.625 16.730469 97.523438 16.679688 C 97.359375 16.601562 97.230469 16.464844 97.15625 16.296875 C 97.121094 16.207031 97.101562 16.109375 97.101562 16.011719 C 97.101562 15.886719 97.128906 15.773438 97.183594 15.667969 C 97.246094 15.550781 97.335938 15.449219 97.453125 15.378906 C 97.472656 15.363281 97.5 15.351562 97.523438 15.339844 C 97.625 15.292969 97.730469 15.265625 97.84375 15.265625 C 97.953125 15.265625 98.054688 15.289062 98.152344 15.335938 C 98.300781 15.402344 98.425781 15.519531 98.503906 15.667969 C 98.558594 15.773438 98.585938 15.890625 98.585938 16.011719 Z M 97.289062 16.011719 C 97.289062 16.082031 97.304688 16.15625 97.332031 16.222656 C 97.386719 16.347656 97.484375 16.449219 97.605469 16.511719 C 97.679688 16.546875 97.761719 16.5625 97.84375 16.5625 C 97.925781 16.5625 98.003906 16.546875 98.074219 16.511719 C 98.171875 16.46875 98.257812 16.394531 98.3125 16.300781 C 98.328125 16.277344 98.34375 16.25 98.355469 16.222656 C 98.382812 16.15625 98.398438 16.082031 98.398438 16.011719 C 98.398438 15.917969 98.375 15.835938 98.335938 15.753906 C 98.277344 15.644531 98.183594 15.558594 98.074219 15.507812 C 98.003906 15.472656 97.925781 15.457031 97.84375 15.457031 C 97.761719 15.457031 97.679688 15.476562 97.605469 15.511719 C 97.585938 15.519531 97.570312 15.527344 97.550781 15.539062 C 97.46875 15.59375 97.398438 15.667969 97.351562 15.753906 C 97.3125 15.832031 97.289062 15.917969 97.289062 16.007812 Z M 97.289062 16.011719 " fill-opacity="1" fill-rule="nonzero"/></g><g clip-path="url(#309e18c434)"><g fill="#01703a" fill-opacity="1"><g transform="translate(-0.294975, 25.047174)"><g><path d="M 4.984375 -14.015625 L 0.515625 -14.015625 C 0.515625 -14.722656 0.515625 -15.414062 0.515625 -16.09375 C 0.515625 -16.78125 0.515625 -17.472656 0.515625 -18.171875 L 14.015625 -18.171875 C 14.015625 -17.472656 14.015625 -16.78125 14.015625 -16.09375 C 14.015625 -15.414062 14.015625 -14.722656 14.015625 -14.015625 L 9.578125 -14.015625 L 9.578125 0 C 8.816406 0 8.050781 0 7.28125 0 C 6.507812 0 5.742188 0 4.984375 0 Z M 4.984375 -14.015625 "/></g></g></g></g><g fill="#01703a" fill-opacity="1"><g transform="translate(14.285962, 25.047174)"><g><path d="M 17.4375 -18.171875 L 17.4375 0 C 16.644531 0 15.851562 0 15.0625 0 C 14.28125 0 13.488281 0 12.6875 0 L 12.6875 -7.296875 L 7.078125 -7.296875 L 7.078125 0 C 6.285156 0 5.488281 0 4.6875 0 C 3.894531 0 3.109375 0 2.328125 0 L 2.328125 -18.171875 C 3.109375 -18.171875 3.894531 -18.171875 4.6875 -18.171875 C 5.488281 -18.171875 6.285156 -18.171875 7.078125 -18.171875 L 7.078125 -11.578125 L 12.6875 -11.578125 L 12.6875 -18.171875 C 13.488281 -18.171875 14.28125 -18.171875 15.0625 -18.171875 C 15.851562 -18.171875 16.644531 -18.171875 17.4375 -18.171875 Z M 17.4375 -18.171875 "/></g></g></g><g fill="#01703a" fill-opacity="1"><g transform="translate(34.055842, 25.047174)"><g><path d="M 13.65625 -18.171875 C 13.65625 -17.492188 13.65625 -16.804688 13.65625 -16.109375 C 13.65625 -15.421875 13.65625 -14.722656 13.65625 -14.015625 C 12.75 -14.015625 11.957031 -14.015625 11.28125 -14.015625 C 10.613281 -14.015625 9.945312 -14.015625 9.28125 -14.015625 C 8.613281 -14.015625 7.828125 -14.015625 6.921875 -14.015625 L 6.921875 -11.4375 L 13.109375 -11.4375 C 13.109375 -10.75 13.109375 -10.0625 13.109375 -9.375 C 13.109375 -8.695312 13.109375 -8.007812 13.109375 -7.3125 L 6.921875 -7.3125 C 6.921875 -6.78125 6.921875 -6.253906 6.921875 -5.734375 C 6.921875 -5.210938 6.921875 -4.675781 6.921875 -4.125 C 7.828125 -4.125 8.628906 -4.125 9.328125 -4.125 C 10.023438 -4.125 10.734375 -4.125 11.453125 -4.125 C 12.171875 -4.125 12.984375 -4.125 13.890625 -4.125 C 13.890625 -3.445312 13.890625 -2.757812 13.890625 -2.0625 C 13.890625 -1.375 13.890625 -0.6875 13.890625 0 C 12.460938 0 11.132812 0 9.90625 0 C 8.6875 0 7.460938 0 6.234375 0 C 5.015625 0 3.707031 0 2.3125 0 C 2.3125 -3.039062 2.3125 -6.078125 2.3125 -9.109375 C 2.3125 -12.140625 2.3125 -15.160156 2.3125 -18.171875 C 3.707031 -18.171875 5 -18.171875 6.1875 -18.171875 C 7.375 -18.171875 8.554688 -18.171875 9.734375 -18.171875 C 10.921875 -18.171875 12.226562 -18.171875 13.65625 -18.171875 Z M 13.65625 -18.171875 "/></g></g></g><g fill="#01703a" fill-opacity="1"><g transform="translate(49.622672, 25.047174)"><g/></g></g><g fill="#000000" fill-opacity="1"><g transform="translate(56.763673, 25.047174)"><g><path d="M 1.21875 -9.078125 C 1.21875 -10.617188 1.484375 -11.96875 2.015625 -13.125 C 2.554688 -14.289062 3.269531 -15.257812 4.15625 -16.03125 C 5.050781 -16.8125 6.046875 -17.394531 7.140625 -17.78125 C 8.242188 -18.175781 9.375 -18.375 10.53125 -18.375 C 11.46875 -18.375 12.398438 -18.238281 13.328125 -17.96875 C 14.265625 -17.695312 15.132812 -17.285156 15.9375 -16.734375 C 16.75 -16.179688 17.429688 -15.46875 17.984375 -14.59375 C 18.535156 -13.71875 18.898438 -12.675781 19.078125 -11.46875 C 18.273438 -11.46875 17.507812 -11.46875 16.78125 -11.46875 C 16.0625 -11.46875 15.300781 -11.46875 14.5 -11.46875 C 14.175781 -12.382812 13.675781 -13.054688 13 -13.484375 C 12.320312 -13.921875 11.5 -14.140625 10.53125 -14.140625 C 9.164062 -14.140625 8.070312 -13.671875 7.25 -12.734375 C 6.425781 -11.804688 6.015625 -10.585938 6.015625 -9.078125 C 6.015625 -8.203125 6.203125 -7.378906 6.578125 -6.609375 C 6.953125 -5.847656 7.472656 -5.234375 8.140625 -4.765625 C 8.816406 -4.304688 9.613281 -4.066406 10.53125 -4.046875 C 11.519531 -4.046875 12.378906 -4.289062 13.109375 -4.78125 C 13.847656 -5.28125 14.335938 -6.015625 14.578125 -6.984375 C 15.359375 -6.984375 16.113281 -6.984375 16.84375 -6.984375 C 17.582031 -6.984375 18.351562 -6.984375 19.15625 -6.984375 C 18.976562 -5.703125 18.617188 -4.601562 18.078125 -3.6875 C 17.535156 -2.78125 16.859375 -2.039062 16.046875 -1.46875 C 15.242188 -0.90625 14.363281 -0.488281 13.40625 -0.21875 C 12.457031 0.0507812 11.5 0.1875 10.53125 0.1875 C 9.375 0.1875 8.242188 0 7.140625 -0.375 C 6.046875 -0.757812 5.050781 -1.34375 4.15625 -2.125 C 3.269531 -2.90625 2.554688 -3.875 2.015625 -5.03125 C 1.484375 -6.195312 1.21875 -7.546875 1.21875 -9.078125 Z M 1.21875 -9.078125 "/></g></g></g><g fill="#000000" fill-opacity="1"><g transform="translate(77.156224, 25.047174)"><g><path d="M 9.34375 -3.921875 C 9.789062 -3.921875 10.226562 -4 10.65625 -4.15625 C 11.082031 -4.320312 11.425781 -4.566406 11.6875 -4.890625 C 11.957031 -5.222656 12.09375 -5.632812 12.09375 -6.125 L 12.09375 -18.171875 C 12.832031 -18.171875 13.570312 -18.171875 14.3125 -18.171875 C 15.0625 -18.171875 15.800781 -18.171875 16.53125 -18.171875 L 16.53125 -6.046875 C 16.53125 -4.710938 16.191406 -3.570312 15.515625 -2.625 C 14.835938 -1.6875 13.953125 -0.96875 12.859375 -0.46875 C 11.765625 0.0195312 10.59375 0.265625 9.34375 0.265625 C 8.40625 0.265625 7.507812 0.125 6.65625 -0.15625 C 5.800781 -0.445312 5.03125 -0.859375 4.34375 -1.390625 C 3.664062 -1.929688 3.125 -2.59375 2.71875 -3.375 C 2.320312 -4.15625 2.125 -5.046875 2.125 -6.046875 L 2.125 -18.171875 C 2.851562 -18.171875 3.59375 -18.171875 4.34375 -18.171875 C 5.09375 -18.171875 5.832031 -18.171875 6.5625 -18.171875 L 6.5625 -6.125 C 6.5625 -5.632812 6.695312 -5.222656 6.96875 -4.890625 C 7.25 -4.566406 7.601562 -4.320312 8.03125 -4.15625 C 8.457031 -4 8.894531 -3.921875 9.34375 -3.921875 Z M 9.34375 -3.921875 "/></g></g></g><g fill="#000000" fill-opacity="1"><g transform="translate(95.894057, 25.047174)"><g/></g></g><g fill="#000000" fill-opacity="1"><g transform="translate(103.028856, 25.047174)"><g/></g></g><g fill="#000000" fill-opacity="1"><g transform="translate(110.171027, 25.047174)"><g><path d="M 7.703125 -4.078125 L 10.015625 -4.078125 L 10.015625 0 L 0.796875 0 L 0.796875 -4.078125 L 3.109375 -4.078125 L 3.109375 -14.125 L 0.984375 -14.125 L 0.984375 -18.171875 L 9.84375 -18.171875 L 9.84375 -14.125 L 7.703125 -14.125 Z M 7.703125 -4.078125 "/></g></g></g><g fill="#000000" fill-opacity="1"><g transform="translate(120.912143, 25.047174)"><g><path d="M 1.21875 -9.078125 C 1.21875 -10.617188 1.484375 -11.96875 2.015625 -13.125 C 2.554688 -14.289062 3.269531 -15.257812 4.15625 -16.03125 C 5.050781 -16.8125 6.046875 -17.394531 7.140625 -17.78125 C 8.242188 -18.175781 9.375 -18.375 10.53125 -18.375 C 11.46875 -18.375 12.398438 -18.238281 13.328125 -17.96875 C 14.265625 -17.695312 15.132812 -17.285156 15.9375 -16.734375 C 16.75 -16.179688 17.429688 -15.46875 17.984375 -14.59375 C 18.535156 -13.71875 18.898438 -12.675781 19.078125 -11.46875 C 18.273438 -11.46875 17.507812 -11.46875 16.78125 -11.46875 C 16.0625 -11.46875 15.300781 -11.46875 14.5 -11.46875 C 14.175781 -12.382812 13.675781 -13.054688 13 -13.484375 C 12.320312 -13.921875 11.5 -14.140625 10.53125 -14.140625 C 9.164062 -14.140625 8.070312 -13.671875 7.25 -12.734375 C 6.425781 -11.804688 6.015625 -10.585938 6.015625 -9.078125 C 6.015625 -8.203125 6.203125 -7.378906 6.578125 -6.609375 C 6.953125 -5.847656 7.472656 -5.234375 8.140625 -4.765625 C 8.816406 -4.304688 9.613281 -4.066406 10.53125 -4.046875 C 11.519531 -4.046875 12.378906 -4.289062 13.109375 -4.78125 C 13.847656 -5.28125 14.335938 -6.015625 14.578125 -6.984375 C 15.359375 -6.984375 16.113281 -6.984375 16.84375 -6.984375 C 17.582031 -6.984375 18.351562 -6.984375 19.15625 -6.984375 C 18.976562 -5.703125 18.617188 -4.601562 18.078125 -3.6875 C 17.535156 -2.78125 16.859375 -2.039062 16.046875 -1.46875 C 15.242188 -0.90625 14.363281 -0.488281 13.40625 -0.21875 C 12.457031 0.0507812 11.5 0.1875 10.53125 0.1875 C 9.375 0.1875 8.242188 0 7.140625 -0.375 C 6.046875 -0.757812 5.050781 -1.34375 4.15625 -2.125 C 3.269531 -2.90625 2.554688 -3.875 2.015625 -5.03125 C 1.484375 -6.195312 1.21875 -7.546875 1.21875 -9.078125 Z M 1.21875 -9.078125 "/></g></g></g><g fill="#000000" fill-opacity="1"><g transform="translate(141.304694, 25.047174)"><g><path d="M 6.953125 -18.171875 C 6.953125 -16.816406 6.953125 -15.695312 6.953125 -14.8125 C 6.953125 -13.9375 6.953125 -13.207031 6.953125 -12.625 C 6.953125 -12.039062 6.953125 -11.546875 6.953125 -11.140625 C 6.953125 -10.734375 6.953125 -10.34375 6.953125 -9.96875 C 6.953125 -9.601562 6.953125 -9.179688 6.953125 -8.703125 C 6.953125 -8.234375 6.953125 -7.640625 6.953125 -6.921875 C 6.953125 -6.203125 6.953125 -5.285156 6.953125 -4.171875 L 13.546875 -4.171875 C 13.546875 -3.398438 13.546875 -2.707031 13.546875 -2.09375 C 13.546875 -1.476562 13.546875 -0.78125 13.546875 0 C 11.679688 0 9.800781 0 7.90625 0 C 6.007812 0 4.132812 0 2.28125 0 L 2.28125 -18.171875 C 3.0625 -18.171875 3.835938 -18.171875 4.609375 -18.171875 C 5.378906 -18.171875 6.160156 -18.171875 6.953125 -18.171875 Z M 6.953125 -18.171875 "/></g></g></g><g fill="#000000" fill-opacity="1"><g transform="translate(155.729957, 25.047174)"><g><path d="M 13.65625 -18.171875 C 13.65625 -17.492188 13.65625 -16.804688 13.65625 -16.109375 C 13.65625 -15.421875 13.65625 -14.722656 13.65625 -14.015625 C 12.75 -14.015625 11.957031 -14.015625 11.28125 -14.015625 C 10.613281 -14.015625 9.945312 -14.015625 9.28125 -14.015625 C 8.613281 -14.015625 7.828125 -14.015625 6.921875 -14.015625 L 6.921875 -11.4375 L 13.109375 -11.4375 C 13.109375 -10.75 13.109375 -10.0625 13.109375 -9.375 C 13.109375 -8.695312 13.109375 -8.007812 13.109375 -7.3125 L 6.921875 -7.3125 C 6.921875 -6.78125 6.921875 -6.253906 6.921875 -5.734375 C 6.921875 -5.210938 6.921875 -4.675781 6.921875 -4.125 C 7.828125 -4.125 8.628906 -4.125 9.328125 -4.125 C 10.023438 -4.125 10.734375 -4.125 11.453125 -4.125 C 12.171875 -4.125 12.984375 -4.125 13.890625 -4.125 C 13.890625 -3.445312 13.890625 -2.757812 13.890625 -2.0625 C 13.890625 -1.375 13.890625 -0.6875 13.890625 0 C 12.460938 0 11.132812 0 9.90625 0 C 8.6875 0 7.460938 0 6.234375 0 C 5.015625 0 3.707031 0 2.3125 0 C 2.3125 -3.039062 2.3125 -6.078125 2.3125 -9.109375 C 2.3125 -12.140625 2.3125 -15.160156 2.3125 -18.171875 C 3.707031 -18.171875 5 -18.171875 6.1875 -18.171875 C 7.375 -18.171875 8.554688 -18.171875 9.734375 -18.171875 C 10.921875 -18.171875 12.226562 -18.171875 13.65625 -18.171875 Z M 13.65625 -18.171875 "/></g></g></g><g fill="#01703a" fill-opacity="1"><g transform="translate(94.980677, 25.587953)"><g><path d="M 1.84375 -19.421875 L 6.765625 -19.421875 C 7.847656 -19.421875 8.835938 -19.253906 9.734375 -18.921875 C 10.628906 -18.597656 11.34375 -18.078125 11.875 -17.359375 C 12.40625 -16.648438 12.671875 -15.707031 12.671875 -14.53125 L 12.671875 -14.03125 C 12.671875 -12.9375 12.398438 -12.070312 11.859375 -11.4375 C 11.316406 -10.800781 10.625 -10.332031 9.78125 -10.03125 C 10.757812 -9.726562 11.566406 -9.226562 12.203125 -8.53125 C 12.847656 -7.832031 13.171875 -6.863281 13.171875 -5.625 L 13.171875 -5.125 C 13.171875 -3.894531 12.894531 -2.898438 12.34375 -2.140625 C 11.800781 -1.390625 11.078125 -0.84375 10.171875 -0.5 C 9.265625 -0.164062 8.265625 0 7.171875 0 L 1.84375 0 Z M 7.296875 -9.15625 L 3.640625 -9.15625 L 3.640625 -1.625 L 7.296875 -1.625 C 8.023438 -1.625 8.695312 -1.742188 9.3125 -1.984375 C 9.925781 -2.234375 10.414062 -2.617188 10.78125 -3.140625 C 11.144531 -3.671875 11.328125 -4.359375 11.328125 -5.203125 L 11.328125 -5.578125 C 11.328125 -6.421875 11.144531 -7.109375 10.78125 -7.640625 C 10.414062 -8.171875 9.925781 -8.554688 9.3125 -8.796875 C 8.695312 -9.035156 8.023438 -9.15625 7.296875 -9.15625 Z M 6.84375 -17.796875 L 3.640625 -17.796875 L 3.640625 -10.78125 L 6.84375 -10.78125 C 7.570312 -10.78125 8.234375 -10.882812 8.828125 -11.09375 C 9.429688 -11.3125 9.914062 -11.664062 10.28125 -12.15625 C 10.644531 -12.644531 10.828125 -13.289062 10.828125 -14.09375 L 10.828125 -14.484375 C 10.828125 -15.296875 10.644531 -15.941406 10.28125 -16.421875 C 9.914062 -16.910156 9.429688 -17.257812 8.828125 -17.46875 C 8.234375 -17.6875 7.570312 -17.796875 6.84375 -17.796875 Z M 6.84375 -17.796875 "/></g></g></g><g clip-path="url(#e1d91f82b2)"><path fill="#100f0d" d="M 167.773438 29.25 L 167.773438 29.785156 L 166.820312 29.785156 L 166.820312 32.269531 L 166.148438 32.269531 L 166.148438 29.785156 L 165.191406 29.785156 L 165.191406 29.25 L 167.773438 29.25 " fill-opacity="1" fill-rule="nonzero"/></g><g clip-path="url(#c3d6c7648f)"><path fill="#100f0d" d="M 170.273438 29.25 L 171.230469 29.25 L 171.230469 32.269531 L 170.613281 32.269531 L 170.613281 30.226562 C 170.613281 30.167969 170.613281 30.085938 170.613281 29.980469 C 170.617188 29.875 170.617188 29.792969 170.617188 29.734375 L 170.011719 32.269531 L 169.367188 32.269531 L 168.765625 29.734375 C 168.765625 29.792969 168.765625 29.875 168.769531 29.980469 C 168.769531 30.085938 168.769531 30.167969 168.769531 30.226562 L 168.769531 32.269531 L 168.148438 32.269531 L 168.148438 29.25 L 169.117188 29.25 L 169.699219 31.625 L 170.273438 29.25 " fill-opacity="1" fill-rule="nonzero"/></g></svg>